<svg width="36" height="20" viewBox="0 0 36 20" fill="none" xmlns="http://www.w3.org/2000/svg">
<path d="M3.38891 14.698V2.348L4.16891 2.4V14.698C4.16891 15.6167 4.35958 16.3447 4.74091 16.882C5.12225 17.4193 5.65091 17.688 6.32691 17.688C6.36158 17.688 6.37891 17.74 6.37891 17.844C6.37891 17.948 6.36158 18 6.32691 18C5.94558 18 5.54691 17.9913 5.13091 17.974C4.73225 17.9567 4.29025 17.948 3.80491 17.948C3.28491 17.948 2.77358 17.9567 2.27091 17.974C1.78558 17.9913 1.33491 18 0.918914 18C0.866914 18 0.840914 17.948 0.840914 17.844C0.840914 17.74 0.866914 17.688 0.918914 17.688C1.68158 17.688 2.27958 17.4193 2.71291 16.882C3.16358 16.3447 3.38891 15.6167 3.38891 14.698ZM16.6489 18.39C16.6489 18.442 16.6056 18.468 16.5189 18.468C16.4496 18.4853 16.3976 18.4853 16.3629 18.468L3.54491 3.882C2.92091 3.17133 2.39225 2.69467 1.95891 2.452C1.52558 2.192 1.09225 2.062 0.658914 2.062C0.624247 2.062 0.606914 2.01 0.606914 1.906C0.606914 1.802 0.624247 1.75 0.658914 1.75C1.00558 1.75 1.36091 1.75867 1.72491 1.776C2.08891 1.79333 2.42691 1.802 2.73891 1.802C3.36291 1.802 3.92625 1.79333 4.42891 1.776C4.93158 1.75867 5.32158 1.75 5.59891 1.75C5.82425 1.75 5.98891 1.854 6.09291 2.062C6.21425 2.25267 6.48291 2.59933 6.89891 3.102L16.4409 14.1L16.6489 18.39ZM16.6489 5.078V18.39L15.8949 17.61V5.078C15.8949 4.15933 15.7042 3.43133 15.3229 2.894C14.9416 2.33933 14.4129 2.062 13.7369 2.062C13.7022 2.062 13.6849 2.01 13.6849 1.906C13.6849 1.802 13.7022 1.75 13.7369 1.75C14.1182 1.75 14.5082 1.76733 14.9069 1.802C15.3229 1.81933 15.7736 1.828 16.2589 1.828C16.7269 1.828 17.1862 1.81933 17.6369 1.802C18.0876 1.76733 18.5036 1.75 18.8849 1.75C18.9196 1.75 18.9369 1.802 18.9369 1.906C18.9369 2.01 18.9196 2.062 18.8849 2.062C18.1916 2.062 17.6456 2.33933 17.2469 2.894C16.8482 3.43133 16.6489 4.15933 16.6489 5.078Z" fill="#1F2D20"/>
<path d="M24.9781 2.348C23.9207 2.348 23.0194 2.70333 22.2741 3.414C21.5461 4.10733 20.9654 5.09533 20.5321 6.378C20.5147 6.43 20.4627 6.456 20.3761 6.456C20.2894 6.43867 20.2461 6.404 20.2461 6.352C20.2807 6.10933 20.3154 5.77133 20.3501 5.338C20.3847 4.88733 20.4194 4.402 20.4541 3.882C20.5061 3.362 20.5407 2.85933 20.5581 2.374C20.5927 1.88867 20.6101 1.49 20.6101 1.178C20.6101 1.09133 20.6534 1.048 20.7401 1.048C20.8441 1.048 20.8961 1.09133 20.8961 1.178C20.8961 1.35133 20.9827 1.48133 21.1561 1.568C21.3467 1.63733 21.5547 1.68933 21.7801 1.724C22.0227 1.74133 22.2221 1.75 22.3781 1.75C23.8687 1.802 25.6107 1.828 27.6041 1.828C28.8174 1.828 29.7881 1.81933 30.5161 1.802C31.2441 1.76733 31.9461 1.75 32.6221 1.75C33.2461 1.75 33.7141 1.71533 34.0261 1.646C34.3554 1.55933 34.5634 1.37733 34.6501 1.1C34.6674 1.03067 34.7194 0.995999 34.8061 0.995999C34.9101 0.995999 34.9621 1.03067 34.9621 1.1C34.9274 1.37733 34.8927 1.76733 34.8581 2.27C34.8407 2.75533 34.8147 3.27533 34.7801 3.83C34.7627 4.36733 34.7454 4.87 34.7281 5.338C34.7107 5.78867 34.7021 6.12667 34.7021 6.352C34.7021 6.404 34.6587 6.43 34.5721 6.43C34.4854 6.43 34.4334 6.404 34.4161 6.352C34.1561 4.98267 33.6621 3.97733 32.9341 3.336C32.2234 2.67733 31.3567 2.348 30.3341 2.348C29.9874 2.348 29.7187 2.4 29.5281 2.504C29.3547 2.59067 29.2334 2.74667 29.1641 2.972C29.1121 3.19733 29.0861 3.50933 29.0861 3.908V15.894C29.0861 16.3967 29.1381 16.778 29.2421 17.038C29.3461 17.298 29.5454 17.4713 29.8401 17.558C30.1521 17.6447 30.6201 17.688 31.2441 17.688C31.2961 17.688 31.3221 17.74 31.3221 17.844C31.3221 17.948 31.2961 18 31.2441 18C30.7587 18 30.2127 17.9913 29.6061 17.974C28.9994 17.9567 28.3321 17.948 27.6041 17.948C26.9107 17.948 26.2607 17.9567 25.6541 17.974C25.0474 17.9913 24.4927 18 23.9901 18C23.9381 18 23.9121 17.948 23.9121 17.844C23.9121 17.74 23.9381 17.688 23.9901 17.688C24.5967 17.688 25.0561 17.6447 25.3681 17.558C25.6801 17.4713 25.8881 17.298 25.9921 17.038C26.1134 16.778 26.1741 16.3967 26.1741 15.894V3.856C26.1741 3.47467 26.1394 3.18 26.0701 2.972C26.0181 2.74667 25.9054 2.59067 25.7321 2.504C25.5587 2.4 25.3074 2.348 24.9781 2.348Z" fill="#56A77B"/>
</svg>
