<svg width="389" height="402" viewBox="0 0 389 402" fill="none" xmlns="http://www.w3.org/2000/svg">
<g opacity="0.15">
<path d="M84.0216 100.813C75.4906 110.215 60.9522 110.92 51.551 102.388C42.1498 93.8558 41.4447 79.3175 49.9767 69.9162C58.5077 60.515 73.0461 59.8099 82.4473 68.3419C91.8485 76.8739 92.5536 91.4113 84.0216 100.813Z" fill="#1F2D20"/>
<path d="M80.49 97.6087C73.728 105.06 62.2057 105.619 54.7547 98.8567C47.3038 92.0947 46.7446 80.5733 53.5067 73.1224C60.2687 65.6714 71.791 65.1123 79.242 71.8744C86.6929 78.6364 87.2521 90.1578 80.49 97.6087Z" fill="#1F2D20"/>
<path d="M51.459 98.8415L42.0098 109.254L46.8086 113.609L56.2578 103.196L51.459 98.8415Z" fill="#1F2D20"/>
<path d="M41.2618 122.276C39.8096 123.876 37.3355 123.996 35.7345 122.544L34.1954 121.147C32.5953 119.695 32.4751 117.22 33.9273 115.62L43.2951 105.298C44.7474 103.698 47.2215 103.578 48.8216 105.03L50.3606 106.427C51.9607 107.879 52.0809 110.353 50.6287 111.954L41.2618 122.276Z" fill="#1F2D20"/>
</g>
<path d="M80.2052 96.9971C71.6742 106.398 57.1358 107.103 47.7346 98.5714C38.3334 90.0394 37.6282 75.5011 46.1602 66.0998C54.6913 56.6986 69.2297 55.9935 78.6309 64.5255C88.0321 73.0575 88.7372 87.5949 80.2052 96.9971Z" fill="#207733"/>
<path d="M76.6736 93.7923C69.9116 101.243 58.3893 101.802 50.9383 95.0403C43.4874 88.2783 42.9282 76.7569 49.6903 69.306C56.4523 61.855 67.9746 61.2959 75.4256 68.058C82.8765 74.8191 83.4357 86.3414 76.6736 93.7923Z" fill="#56A77B"/>
<path d="M47.6425 95.0251L38.1934 105.438L42.9922 109.792L52.4414 99.3801L47.6425 95.0251Z" fill="#207733"/>
<path d="M37.4454 118.46C35.9932 120.06 33.5191 120.18 31.9181 118.728L30.379 117.331C28.7789 115.879 28.6587 113.404 30.1109 111.804L39.4787 101.482C40.9309 99.8814 43.4051 99.7612 45.0052 101.213L46.5442 102.61C48.1443 104.063 48.2645 106.537 46.8123 108.138L37.4454 118.46Z" fill="#207733"/>
<g opacity="0.15">
<path d="M181.78 47.4419C181.78 49.6031 180.028 51.3549 177.867 51.3549H116.321C114.16 51.3549 112.408 49.6031 112.408 47.4419V11.7997C112.408 9.63854 114.16 7.88672 116.321 7.88672H177.867C180.028 7.88672 181.78 9.63854 181.78 11.7997V47.4419Z" fill="#1F2D20"/>
<path d="M154.871 27.4323L181.525 10.4437C181.009 9.0554 179.736 8.05355 178.202 7.92188L146.696 28.0038L115.416 8.00393C114.014 8.33788 112.914 9.42466 112.55 10.8158L138.445 27.3712L112.439 47.7385C112.549 49.1726 113.419 50.3853 114.659 50.9721L141.939 29.6059L146.694 32.6458L151.374 29.6631L178.881 51.2068C180.24 50.8414 181.301 49.7709 181.649 48.4045L154.871 27.4323Z" fill="#1F2D20"/>
</g>
<path d="M177.963 43.6255C177.963 45.7867 176.211 47.5385 174.05 47.5385H112.505C110.344 47.5385 108.592 45.7867 108.592 43.6255V7.98328C108.592 5.82213 110.344 4.07031 112.505 4.07031H174.05C176.211 4.07031 177.963 5.82213 177.963 7.98328V43.6255Z" fill="#207733"/>
<path d="M151.055 23.6159L177.708 6.62729C177.193 5.239 175.919 4.23714 174.386 4.10547L142.88 24.1874L111.6 4.18753C110.197 4.52148 109.097 5.60825 108.734 6.9994L134.628 23.5548L108.623 43.9221C108.733 45.3562 109.603 46.5689 110.842 47.1557L138.122 25.7895L142.878 28.8294L147.558 25.8467L175.064 47.3904C176.424 47.025 177.485 45.9544 177.832 44.5881L151.055 23.6159Z" fill="#56A77B"/>
<g opacity="0.15">
<path d="M303.768 46.8109C305.574 44.0725 306.631 40.7988 306.631 37.2732C306.631 27.684 298.857 19.9106 289.268 19.9106C287.518 19.9106 285.831 20.1749 284.239 20.6567C283.655 11.5961 276.141 4.42285 266.932 4.42285C257.343 4.42285 249.57 12.1963 249.57 21.7855C249.57 23.8799 249.96 25.8788 250.639 27.7375C248.12 28.3109 246.025 29.9845 244.881 32.2296C243.377 31.7039 241.767 31.4043 240.084 31.4043C232.039 31.4043 225.518 37.9249 225.518 45.9703C225.518 46.2547 225.543 46.5314 225.56 46.8109H303.768Z" fill="#1F2D20"/>
</g>
<path d="M299.952 42.9945C301.757 40.2561 302.814 36.9824 302.814 33.4568C302.814 23.8676 295.041 16.0942 285.452 16.0942C283.702 16.0942 282.015 16.3585 280.422 16.8403C279.838 7.77974 272.324 0.606445 263.116 0.606445C253.527 0.606445 245.753 8.3799 245.753 17.9691C245.753 20.0635 246.144 22.0624 246.823 23.9211C244.304 24.4945 242.209 26.1681 241.065 28.4132C239.561 27.8875 237.95 27.5879 236.267 27.5879C228.223 27.5879 221.701 34.1085 221.701 42.1539C221.701 42.4382 221.727 42.715 221.743 42.9945H299.952Z" fill="#56A77B"/>
<g opacity="0.15">
<path d="M350.171 171.556L338.035 185.053H350.171V171.556Z" fill="#1F2D20"/>
<path d="M352.127 171.521V185.053V186.979V187.009H337.484V242.277H389.002V171.521H352.127Z" fill="#1F2D20"/>
<path d="M381.177 191.712H346.043V194.894H381.177V191.712Z" fill="#1F2D20"/>
<path d="M381.177 199.537H346.043V202.72H381.177V199.537Z" fill="#1F2D20"/>
<path d="M381.177 207.363H346.043V210.546H381.177V207.363Z" fill="#1F2D20"/>
<path d="M381.177 215.188H346.043V218.37H381.177V215.188Z" fill="#1F2D20"/>
<path d="M381.177 223.013H346.043V226.196H381.177V223.013Z" fill="#1F2D20"/>
</g>
<path d="M346.355 167.739L334.219 181.236H346.355V167.739Z" fill="#56A77B"/>
<path d="M348.31 167.705V181.236V183.162V183.192H333.668V238.46H385.185V167.705H348.31Z" fill="#56A77B"/>
<path d="M377.36 187.896H342.227V191.078H377.36V187.896Z" fill="#207733"/>
<path d="M377.36 195.721H342.227V198.904H377.36V195.721Z" fill="#207733"/>
<path d="M377.36 203.547H342.227V206.73H377.36V203.547Z" fill="#207733"/>
<path d="M377.36 211.372H342.227V214.554H377.36V211.372Z" fill="#207733"/>
<path d="M377.36 219.197H342.227V222.38H377.36V219.197Z" fill="#207733"/>
<g opacity="0.15">
<path d="M341.023 68.3032C321.779 68.3032 306.178 83.9045 306.178 103.149C306.178 122.392 321.779 137.993 341.023 137.993C360.267 137.993 375.868 122.392 375.868 103.149C375.868 83.9045 360.267 68.3032 341.023 68.3032ZM341.023 130.718C325.797 130.718 313.454 118.374 313.454 103.15C313.454 87.9234 325.797 75.5796 341.023 75.5796C356.25 75.5796 368.592 87.9234 368.592 103.15C368.592 118.374 356.249 130.718 341.023 130.718Z" fill="#1F2D20"/>
<path d="M341.022 75.0669L344.562 89.0967L348.102 103.126H341.022H333.943L337.482 89.0967L341.022 75.0669Z" fill="#1F2D20"/>
<path d="M341.022 131.229L337.482 117.199L333.943 103.17H341.022H348.102L344.562 117.199L341.022 131.229Z" fill="#1F2D20"/>
</g>
<path d="M337.207 64.4863C317.963 64.4863 302.361 80.0876 302.361 99.3318C302.361 118.575 317.963 134.176 337.207 134.176C356.451 134.176 372.051 118.575 372.051 99.3318C372.051 80.0876 356.451 64.4863 337.207 64.4863ZM337.207 126.901C321.981 126.901 309.638 114.557 309.638 99.3318C309.638 84.1065 321.981 71.7617 337.207 71.7617C352.433 71.7617 364.776 84.1055 364.776 99.3318C364.776 114.557 352.432 126.901 337.207 126.901Z" fill="#207733"/>
<path d="M337.206 71.25L340.746 85.2798L344.286 99.3087H337.206H330.127L333.666 85.2798L337.206 71.25Z" fill="#56A77B"/>
<path d="M337.206 127.412L333.666 113.382L330.127 99.3535H337.206H344.286L340.746 113.382L337.206 127.412Z" fill="#207733"/>
<g opacity="0.15">
<path d="M316.829 319.111L339.533 296.407C333.58 291.331 325.866 288.261 317.43 288.261C299.696 288.261 285.13 301.804 283.496 319.111H316.829Z" fill="#1F2D20"/>
<path d="M315.451 324.002H283.379C284.215 341.554 298.324 355.625 315.89 356.406L315.451 324.002Z" fill="#1F2D20"/>
<path d="M343.019 299.84L320.322 322.535L320.78 356.281C338.036 354.597 351.521 340.051 351.521 322.354C351.522 313.723 348.307 305.845 343.019 299.84Z" fill="#1F2D20"/>
</g>
<path d="M313.015 315.294L335.719 292.59C329.766 287.514 322.052 284.444 313.616 284.444C295.881 284.444 281.315 297.987 279.682 315.294H313.015Z" fill="#56A77B"/>
<path d="M311.636 320.185H279.564C280.4 337.737 294.509 351.808 312.075 352.589L311.636 320.185Z" fill="#207733"/>
<path d="M339.204 296.023L316.508 318.718L316.966 352.464C334.222 350.78 347.707 336.234 347.707 318.537C347.708 309.906 344.493 302.028 339.204 296.023Z" fill="#207733"/>
<g opacity="0.15">
<path d="M46.8379 250.605C29.1594 250.605 14.8281 264.937 14.8281 282.615C14.8281 300.294 29.1594 314.625 46.8379 314.625C64.5164 314.625 78.8477 300.294 78.8477 282.615C78.8467 264.937 64.5154 250.605 46.8379 250.605ZM49.1565 309.534C49.126 309.537 49.0945 309.538 49.063 309.541V299.693H57.677C55.5655 303.094 52.7174 306.378 49.1565 309.534ZM19.951 285.346H27.8427C27.9486 288.806 28.6003 292.178 29.7882 295.453H23.0538C21.3974 292.392 20.3154 288.976 19.951 285.346ZM49.0639 266.108V256.265C50.3702 257.57 53.7002 261.113 56.6905 266.108H49.0639ZM58.9365 270.347C60.4374 273.584 61.6205 277.219 62.0614 281.108H49.0639V270.347H58.9365ZM44.8247 266.108H38.2849C40.6417 262.175 43.2045 259.137 44.8247 257.387V266.108ZM44.8247 270.347V281.108H32.9016C33.3453 277.222 34.5323 273.587 36.0369 270.347H44.8247ZM27.9773 281.108H19.8584C20.0712 277.248 21.0978 273.608 22.7628 270.347H30.6746C29.3484 273.63 28.3475 277.247 27.9773 281.108ZM32.7365 285.346H44.8247V295.453H35.0609C33.6392 292.176 32.8615 288.802 32.7365 285.346ZM44.8247 299.693V308.659C41.7132 305.772 39.2 302.78 37.2821 299.693H44.8247ZM49.0639 295.453V285.346H62.2245C62.0986 288.802 61.3209 292.176 59.9002 295.453H49.0639ZM67.1184 285.346H73.7249C73.3604 288.975 72.2784 292.392 70.622 295.453H65.1728C66.3608 292.179 67.0124 288.806 67.1184 285.346ZM66.9838 281.108C66.6126 277.247 65.6127 273.63 64.2874 270.347H70.914C72.5789 273.608 73.6056 277.248 73.8184 281.108H66.9838ZM68.2271 266.108H62.3199C60.509 262.656 58.4556 259.717 56.6399 257.431C61.2522 259.229 65.2482 262.254 68.2271 266.108ZM38.8317 256.797C36.8985 259.16 34.6239 262.327 32.6402 266.108H25.4478C28.8083 261.761 33.4588 258.461 38.8317 256.797ZM25.8953 299.693H31.6469C33.1115 302.51 35.0017 305.25 37.3012 307.903C32.8053 306.208 28.8818 303.349 25.8953 299.693ZM58.4032 307.042C60.3735 304.659 62.007 302.206 63.3132 299.693H67.7786C65.252 302.787 62.0528 305.312 58.4032 307.042Z" fill="#1F2D20"/>
</g>
<path d="M43.0215 246.789C25.343 246.789 11.0117 261.12 11.0117 278.798C11.0117 296.477 25.343 310.808 43.0215 310.808C60.7 310.808 75.0313 296.477 75.0313 278.798C75.0303 261.12 60.699 246.789 43.0215 246.789ZM45.3401 305.717C45.3096 305.72 45.2781 305.722 45.2466 305.724V295.876H53.8606C51.7491 299.277 48.901 302.561 45.3401 305.717ZM16.1345 281.529H24.0263C24.1322 284.989 24.7839 288.361 25.9718 291.636H19.2374C17.581 288.576 16.499 285.159 16.1345 281.529ZM45.2475 262.292V252.449C46.5538 253.753 49.8838 257.297 52.8741 262.292H45.2475ZM55.1201 266.53C56.621 269.767 57.8041 273.402 58.245 277.291H45.2475V266.53H55.1201ZM41.0083 262.292H34.4685C36.8253 258.358 39.3881 255.32 41.0083 253.57V262.292ZM41.0083 266.53V277.291H29.0852C29.5289 273.406 30.7158 269.77 32.2205 266.53H41.0083ZM24.1608 277.291H16.042C16.2548 273.431 17.2814 269.791 18.9464 266.53H26.8582C25.532 269.813 24.5311 273.43 24.1608 277.291ZM28.9201 281.529H41.0083V291.636H31.2444C29.8228 288.359 29.0451 284.985 28.9201 281.529ZM41.0083 295.876V304.842C37.8968 301.956 35.3835 298.963 33.4657 295.876H41.0083ZM45.2475 291.636V281.529H58.4081C58.2822 284.985 57.5045 288.359 56.0838 291.636H45.2475ZM63.3019 281.529H69.9085C69.544 285.158 68.462 288.576 66.8056 291.636H61.3564C62.5444 288.362 63.196 284.989 63.3019 281.529ZM63.1674 277.291C62.7962 273.43 61.7963 269.813 60.471 266.53H67.0975C68.7625 269.791 69.7892 273.431 70.002 277.291H63.1674ZM64.4107 262.292H58.5035C56.6926 258.839 54.6392 255.9 52.8235 253.615C57.4358 255.412 61.4318 258.437 64.4107 262.292ZM35.0152 252.98C33.0821 255.343 30.8074 258.51 28.8238 262.291H21.6314C24.9919 257.944 29.6424 254.644 35.0152 252.98ZM22.0789 295.876H27.8305C29.2951 298.693 31.1853 301.433 33.4848 304.086C28.9888 302.391 25.0654 299.532 22.0789 295.876ZM54.5868 303.226C56.5571 300.842 58.1906 298.389 59.4968 295.876H63.9622C61.4356 298.97 58.2364 301.495 54.5868 303.226Z" fill="#207733"/>
<path d="M252.063 388.1C252.063 388.1 251.877 396.995 252.063 400.347C252.138 401.69 242.132 402.538 241.909 397.386C241.822 395.382 241.139 388.1 241.139 388.1H252.063Z" fill="#1F2D20"/>
<path d="M253.982 388.1C253.982 388.1 258.163 394.258 261.348 395.088C262.592 395.413 262.515 396.965 262.665 397.387C262.814 397.808 261.614 400.046 256.991 399.6C252.366 399.153 248.777 397.387 248.777 397.387L253.982 388.1Z" fill="#1F2D20"/>
<path d="M219.586 113.54C219.261 110.625 222.985 106.577 226.063 97.1854C229.14 87.7937 221.687 75.3259 221.687 75.3259C221.687 75.3259 212.461 72.8976 211.813 72.7353C211.165 72.5741 196.755 73.5454 196.755 73.5454C196.755 73.5454 190.764 89.2517 190.925 93.6226C191.087 97.9945 193.516 108.681 193.516 108.681L199.992 116.416L219.586 113.54Z" fill="#DBA590"/>
<path d="M197.483 86.5791C197.119 86.7012 196.876 98.4802 196.876 98.4802L194.933 99.3303L193.598 84.272L197.483 86.5791Z" fill="#1F2D20"/>
<path d="M221.686 73.464C215.092 70.9136 198.333 68.4853 194.447 71.2781C190.56 74.0709 189.225 82.8147 189.225 82.8147L192.701 85.3413C192.701 85.3413 194.088 87.1647 196.066 89.801L199.669 85.244L202.34 89.905L201.807 97.542C205.217 102.203 208.487 106.818 209.384 108.56C213.27 108.924 220.582 109.775 220.582 109.775C220.582 109.775 228.957 99.9369 228.886 95.3226C228.813 90.7084 228.28 76.0135 221.686 73.464Z" fill="#1F2D20"/>
<path d="M200.382 89.1519L198.344 91.8006L199.363 93.9608L198.344 95.9158L199.363 96.4062C199.363 96.4062 199.24 94.9388 199.363 94.9388C199.486 94.9388 200.382 93.0639 200.382 93.0639L201.604 91.3521L199.807 91.7996L200.382 89.1519Z" fill="#B88C7B"/>
<path d="M192.215 117.742L196.956 111.852C196.956 111.852 211.538 106.418 219.508 110.703C226.983 114.721 225.833 117.742 225.833 117.742" fill="#FBFFFF"/>
<path d="M193.745 114.721C186.66 116.482 164.789 127.538 164.789 127.538L182.056 227.65L233.319 226.501L250.238 128.306C250.238 128.306 229.612 114.816 222.633 112.67C214.447 110.151 202.057 112.654 193.745 114.721Z" fill="#1B3067"/>
<path d="M219.905 217.017L213.704 242.878C213.704 242.878 201.841 288.854 193.105 311.266C195.65 333.679 195.834 388.066 195.834 388.066C195.834 388.066 183.636 388.057 175.704 386.907C153.98 305.877 182.732 209.547 182.732 209.547L219.905 217.017Z" fill="url(#paint0_linear_98_1135)"/>
<path d="M235.906 206.099C235.906 206.099 250.401 286.553 250.239 306.923C252.95 314.075 259.668 372.252 259.452 391.65C259.386 397.604 235.906 388.066 235.906 388.066C235.906 388.066 227.414 326.207 227.439 311.266C222.291 300.921 203.752 219.317 203.752 219.317L235.906 206.099Z" fill="url(#paint1_linear_98_1135)"/>
<path d="M101.471 148.608L93.5118 154.467C93.5118 154.467 82.9599 140.178 78.5613 138.528C74.1627 136.878 69.0312 130.831 69.0312 130.831C69.0312 130.831 69.764 129.181 70.8642 129.732C71.9643 130.282 76.9125 134.131 80.5784 135.596C77.8285 133.763 72.1475 126.249 72.1475 126.249C72.1475 126.249 74.1636 125.15 75.6301 126.249C78.379 129.915 88.0923 134.131 91.9413 134.656C90.2916 128.035 92.8583 126.249 92.8583 126.249C92.8583 126.249 93.7742 130.465 95.6072 134.131C97.4401 137.795 98.2502 143.064 98.2502 143.064L101.471 148.608Z" fill="#DBA590"/>
<path d="M92.4915 148.057C92.4915 148.057 89.1233 148.404 85.2524 148.057C81.3814 147.712 71.2321 137.825 71.2321 137.825L69.9707 131.873L92.4915 148.057Z" fill="#DBA590"/>
<path d="M143.941 169.517L97.3744 142.256L88.3281 158.114C88.3281 158.114 128.574 186.181 139.491 191.641C150.406 197.101 164.789 155.671 164.789 155.671L143.941 169.517Z" fill="url(#paint2_linear_98_1135)"/>
<path d="M164.789 127.538L131.873 174.205C131.873 174.205 135.751 193.454 143.221 191.157C150.692 188.86 187.3 150.356 187.3 150.356L164.789 127.538Z" fill="url(#paint3_linear_98_1135)"/>
<path d="M277.855 164.326L289.036 165.608C289.036 165.608 296.367 155.896 300.766 154.246C305.164 152.597 310.296 146.549 310.296 146.549C310.296 146.549 309.563 144.9 308.463 145.45C307.363 146 302.414 149.849 298.748 151.314C301.498 149.481 307.179 141.968 307.179 141.968C307.179 141.968 305.163 140.868 303.697 141.968C300.948 145.634 291.235 149.849 287.386 150.375C289.035 143.755 286.469 141.968 286.469 141.968C286.469 141.968 285.553 146.184 283.72 149.849C281.887 153.514 281.077 158.782 281.077 158.782L277.855 164.326Z" fill="#DBA590"/>
<path d="M286.836 163.775C286.836 163.775 290.204 164.121 294.075 163.775C297.946 163.43 308.095 153.543 308.095 153.543L309.357 147.591L286.836 163.775Z" fill="#DBA590"/>
<path d="M266.164 199.249L294.076 171.618L282.725 156.102L252.986 179.808L266.164 199.249Z" fill="url(#paint4_linear_98_1135)"/>
<path d="M219.508 137.888L252.069 200.105C252.069 200.105 265.714 204.912 266.959 197.196C268.204 189.48 249.931 127.793 249.931 127.793L219.508 137.888Z" fill="url(#paint5_linear_98_1135)"/>
<path d="M173.807 162.636C173.807 162.636 172.319 239.142 172.281 256.096C180.288 258.107 224.252 254.659 224.252 254.659L236.033 252.36L245.515 249.485C245.515 249.485 242.354 217.591 239.194 204.66C236.034 191.731 238.331 183.397 238.331 183.397L238.002 173.225L173.807 162.636Z" fill="url(#paint6_linear_98_1135)"/>
<path d="M177.49 385.049C177.49 385.049 172.945 394.811 162.51 393.969C161.837 394.475 162.51 397.504 162.51 397.504C162.51 397.504 171.431 399.186 174.461 397.504C177.49 395.819 179.499 394.735 179.499 394.735C179.499 394.735 179.336 397.482 180.038 398.113C182.013 399.888 192.599 397.122 192.599 397.122L193.609 386.179L177.49 385.049Z" fill="#1F2D20"/>
<path d="M215.38 123.108L213.098 159.442L215.38 192.538L217.663 159.442L215.38 123.108Z" fill="#1F2D20"/>
<path d="M243.265 129.747L241.732 177.675L247.661 129.747H243.265Z" fill="#1F2D20"/>
<path d="M262.658 173.276L266.408 187.895L265.593 176.211L273.53 180.612L264.778 173.276H262.658Z" fill="#1F2D20"/>
<path d="M167.586 129.747L174.705 141.478L173.523 177.675L172.282 164.689V142.256L167.586 129.747Z" fill="#1F2D20"/>
<path d="M137.266 165.608L131.874 175.477L133.132 167.197L123.84 168.761L137.266 165.608Z" fill="#1F2D20"/>
<path d="M212.234 255.498L231.605 253.226L243.265 250.169L244.383 256.848L228.465 263.106L212.234 255.498Z" fill="#1F2D20"/>
<path d="M210.306 255.621L203.751 278.798L197.447 263.106L181.063 258.134L172.84 255.621L195.002 256.638L210.306 255.621Z" fill="#1F2D20"/>
<path d="M248.557 306.064C248.557 306.064 231.278 322.449 231.603 321.715C231.927 320.982 240.077 309.841 240.077 309.841H229.482L240.976 306.063H248.557V306.064Z" fill="#1F2D20"/>
<path d="M193.744 306.064L185.382 310.874C185.382 310.874 176.415 308.838 175.763 308.47C175.112 308.102 183.799 311.852 184.753 312.179C185.708 312.504 179.024 318.211 179.024 318.211L187.175 315.113L190.11 312.138L191.573 309.841L189.295 319.188L193.103 311.265L193.744 306.064Z" fill="#1F2D20"/>
<path d="M202.167 98.0376L201.278 100.158H198.997L197.447 98.6902L198.915 99.3314H200.709L201.92 95.9175L202.167 98.0376Z" fill="#B88C7B"/>
<g opacity="0.15">
<path d="M65.5572 202.826C65.5572 204.987 63.8054 206.739 61.6443 206.739H8.63367C6.47252 206.739 4.7207 204.987 4.7207 202.826V168.589C4.7207 166.428 6.47252 164.676 8.63367 164.676H61.6433C63.8045 164.676 65.5563 166.428 65.5563 168.589L65.5572 202.826Z" fill="#1F2D20"/>
<path d="M45.4796 197.935C45.4796 197.935 39.936 212.281 45.4796 225.651C29.5034 219.782 30.1541 201.196 30.1541 201.196L45.4796 197.935Z" fill="#1F2D20"/>
<path d="M52.5134 174.499H19.5332V178.119H52.5134V174.499Z" fill="#1F2D20"/>
<path d="M52.5134 183.523H19.5332V187.143H52.5134V183.523Z" fill="#1F2D20"/>
<path d="M52.5134 192.196H19.5332V195.816H52.5134V192.196Z" fill="#1F2D20"/>
</g>
<path d="M61.7428 199.01C61.7428 201.171 59.991 202.923 57.8298 202.923H4.81922C2.65807 202.923 0.90625 201.171 0.90625 199.01V164.773C0.90625 162.612 2.65807 160.86 4.81922 160.86H57.8289C59.99 160.86 61.7418 162.612 61.7418 164.773L61.7428 199.01Z" fill="#207733"/>
<path d="M41.6652 194.119C41.6652 194.119 36.1216 208.465 41.6652 221.835C25.6889 215.966 26.3396 197.38 26.3396 197.38L41.6652 194.119Z" fill="#207733"/>
<path d="M48.6969 170.683H15.7168V174.303H48.6969V170.683Z" fill="#56A77B"/>
<path d="M48.6969 179.707H15.7168V183.327H48.6969V179.707Z" fill="#56A77B"/>
<path d="M48.6969 188.379H15.7168V191.999H48.6969V188.379Z" fill="#56A77B"/>
<g opacity="0.15">
<path d="M131.515 305.903H123.199V374.505H131.515V305.903Z" fill="#1F2D20"/>
<path d="M136.573 351.954C136.573 350.325 135.783 348.917 134.205 347.729C132.627 346.542 129.701 345.488 125.424 344.572C118.908 343.248 113.996 341.289 110.687 338.693C107.378 336.098 105.724 332.56 105.724 328.079C105.724 323.328 107.717 319.298 111.705 315.989C115.693 312.68 121.028 311.025 127.714 311.025C134.74 311.025 140.33 312.672 144.487 315.964C148.643 319.256 150.638 323.413 150.469 328.436L150.367 328.74H136.011C136.011 326.534 135.307 324.737 133.899 323.343C132.491 321.952 130.429 321.258 127.714 321.258C125.304 321.258 123.413 321.843 122.039 323.013C120.664 324.184 119.977 325.652 119.977 327.417C119.977 329.113 120.697 330.504 122.141 331.591C123.583 332.676 126.51 333.643 130.922 334.492C137.709 335.849 142.749 337.844 146.041 340.472C149.332 343.103 150.978 346.726 150.978 351.341C150.978 356.296 148.857 360.342 144.615 363.482C140.373 366.622 134.773 368.19 127.816 368.19C120.487 368.19 114.691 366.333 110.433 362.616C106.173 358.9 104.146 354.667 104.35 349.916L104.452 349.611H118.043C118.145 352.563 119.113 354.701 120.945 356.025C122.777 357.349 125.169 358.01 128.123 358.01C130.871 358.01 132.966 357.467 134.409 356.381C135.85 355.296 136.573 353.82 136.573 351.954Z" fill="#1F2D20"/>
</g>
<path d="M127.698 302.087H119.383V370.688H127.698V302.087Z" fill="#207733"/>
<path d="M132.756 348.137C132.756 346.508 131.967 345.1 130.389 343.912C128.811 342.725 125.884 341.672 121.608 340.756C115.092 339.432 110.18 337.473 106.871 334.876C103.562 332.281 101.908 328.743 101.908 324.262C101.908 319.512 103.901 315.481 107.889 312.172C111.876 308.863 117.212 307.209 123.898 307.209C130.923 307.209 136.514 308.856 140.671 312.148C144.827 315.439 146.821 319.597 146.652 324.619L146.55 324.924H132.195C132.195 322.718 131.491 320.92 130.083 319.527C128.674 318.136 126.612 317.441 123.898 317.441C121.488 317.441 119.596 318.026 118.222 319.197C116.848 320.368 116.161 321.836 116.161 323.6C116.161 325.297 116.881 326.688 118.325 327.775C119.766 328.86 122.694 329.827 127.106 330.675C133.892 332.033 138.932 334.027 142.224 336.656C145.516 339.287 147.162 342.909 147.162 347.525C147.162 352.48 145.041 356.526 140.799 359.665C136.556 362.805 130.957 364.374 124 364.374C116.67 364.374 110.875 362.516 106.616 358.8C102.357 355.083 100.329 350.851 100.534 346.1L100.636 345.795H114.227C114.329 348.747 115.296 350.884 117.128 352.209C118.961 353.533 121.353 354.193 124.306 354.193C127.055 354.193 129.149 353.65 130.593 352.564C132.034 351.48 132.756 350.004 132.756 348.137Z" fill="#207733"/>
<defs>
<linearGradient id="paint0_linear_98_1135" x1="192.397" y1="239.149" x2="197.804" y2="368.913" gradientUnits="userSpaceOnUse">
<stop stop-color="#161D43"/>
<stop offset="0.2905" stop-color="#182553"/>
<stop offset="0.6773" stop-color="#1A2D62"/>
<stop offset="0.996" stop-color="#1B3067"/>
</linearGradient>
<linearGradient id="paint1_linear_98_1135" x1="228.852" y1="237.63" x2="234.259" y2="367.394" gradientUnits="userSpaceOnUse">
<stop stop-color="#1F2D20"/>
<stop offset="0.2905" stop-color="#182553"/>
<stop offset="0.6773" stop-color="#1A2D62"/>
<stop offset="0.996" stop-color="#1B3067"/>
</linearGradient>
<linearGradient id="paint2_linear_98_1135" x1="155.783" y1="176.498" x2="98.7724" y2="138.809" gradientUnits="userSpaceOnUse">
<stop stop-color="#161D43"/>
<stop offset="0.2905" stop-color="#182553"/>
<stop offset="0.6773" stop-color="#1A2D62"/>
<stop offset="0.996" stop-color="#1B3067"/>
</linearGradient>
<linearGradient id="paint3_linear_98_1135" x1="131.227" y1="179.831" x2="167.204" y2="148.568" gradientUnits="userSpaceOnUse">
<stop stop-color="#161D43"/>
<stop offset="0.2905" stop-color="#182553"/>
<stop offset="0.6773" stop-color="#1A2D62"/>
<stop offset="0.996" stop-color="#1B3067"/>
</linearGradient>
<linearGradient id="paint4_linear_98_1135" x1="251.101" y1="197.053" x2="287.995" y2="164.294" gradientUnits="userSpaceOnUse">
<stop stop-color="#161D43"/>
<stop offset="0.2905" stop-color="#182553"/>
<stop offset="0.6773" stop-color="#1A2D62"/>
<stop offset="0.996" stop-color="#1B3067"/>
</linearGradient>
<linearGradient id="paint5_linear_98_1135" x1="258.462" y1="200.532" x2="243.514" y2="157.913" gradientUnits="userSpaceOnUse">
<stop stop-color="#161D43"/>
<stop offset="0.2905" stop-color="#182553"/>
<stop offset="0.6773" stop-color="#1A2D62"/>
<stop offset="0.996" stop-color="#1B3067"/>
</linearGradient>
<linearGradient id="paint6_linear_98_1135" x1="209.03" y1="256.903" x2="206.804" y2="187.569" gradientUnits="userSpaceOnUse">
<stop stop-color="#161D43"/>
<stop offset="0.2905" stop-color="#182553"/>
<stop offset="0.6773" stop-color="#1A2D62"/>
<stop offset="0.996" stop-color="#1B3067"/>
</linearGradient>
</defs>
</svg>
