<svg width="560" height="372" viewBox="0 0 560 372" fill="none" xmlns="http://www.w3.org/2000/svg">
<path d="M185.703 154.387C184.673 155.95 183.978 157.668 183.605 159.446L180.768 159.714V165.183L183.605 165.451C183.971 167.221 184.665 168.94 185.703 170.51L183.896 172.69L187.779 176.558L189.967 174.758C191.535 175.785 193.259 176.477 195.044 176.849L195.313 179.676H200.801L201.069 176.849C202.847 176.477 204.571 175.792 206.147 174.758L208.334 176.558L212.217 172.69L210.41 170.51C211.441 168.947 212.135 167.229 212.508 165.451L215.346 165.183V159.714L212.508 159.446C212.142 157.676 211.448 155.957 210.41 154.387L212.217 152.207L208.334 148.339L206.147 150.139C204.579 149.112 202.847 148.42 201.069 148.048L200.801 145.221H195.313L195.044 148.048C193.267 148.413 191.542 149.105 189.967 150.139L187.779 148.339L183.896 152.207L185.703 154.387ZM203.302 157.207C206.207 160.101 206.207 164.788 203.302 167.675C200.397 170.569 195.693 170.569 192.789 167.675C189.884 164.781 189.884 160.094 192.789 157.2C195.693 154.305 200.397 154.305 203.294 157.2L203.302 157.207Z" fill="#F5F5F5"/>
<path d="M323.336 165.748C322.664 166.767 322.208 167.891 321.969 169.044L320.125 169.215V172.779L321.969 172.95C322.208 174.103 322.664 175.227 323.336 176.246L322.156 177.667L324.687 180.189L326.113 179.014C327.136 179.683 328.264 180.137 329.421 180.375L329.593 182.213H333.169L333.341 180.375C334.498 180.137 335.626 179.683 336.649 179.014L338.075 180.189L340.606 177.667L339.426 176.246C340.098 175.227 340.554 174.103 340.793 172.95L342.637 172.779V169.215L340.793 169.044C340.554 167.891 340.098 166.767 339.426 165.748L340.606 164.327L338.075 161.805L336.649 162.98C335.626 162.311 334.498 161.857 333.341 161.619L333.169 159.781H329.593L329.421 161.619C328.264 161.857 327.136 162.311 326.113 162.98L324.687 161.805L322.156 164.327L323.336 165.748ZM334.804 167.586C336.694 169.468 336.694 172.526 334.804 174.408C332.915 176.291 329.847 176.291 327.958 174.408C326.068 172.526 326.068 169.468 327.958 167.586C329.847 165.703 332.915 165.703 334.804 167.586Z" fill="#F5F5F5"/>
<path d="M345.542 192.48C344.848 193.529 344.385 194.682 344.138 195.873L342.234 196.051V199.719L344.138 199.898C344.385 201.088 344.855 202.241 345.542 203.29L344.325 204.756L346.931 207.352L348.402 206.14C349.455 206.832 350.612 207.293 351.807 207.538L351.986 209.436H355.667L355.846 207.538C357.041 207.293 358.198 206.824 359.251 206.14L360.722 207.352L363.328 204.756L362.111 203.29C362.805 202.241 363.268 201.088 363.514 199.898L365.418 199.719V196.051L363.514 195.873C363.268 194.682 362.798 193.529 362.111 192.48L363.328 191.014L360.722 188.418L359.251 189.63C358.198 188.938 357.041 188.477 355.846 188.232L355.667 186.334H351.986L351.807 188.232C350.612 188.477 349.455 188.946 348.402 189.63L346.931 188.418L344.325 191.014L345.542 192.48ZM357.354 194.377C359.303 196.319 359.303 199.466 357.354 201.408C355.406 203.35 352.247 203.35 350.298 201.408C348.35 199.466 348.35 196.319 350.298 194.377C352.247 192.435 355.406 192.435 357.354 194.377Z" fill="#E0E0E0"/>
<path d="M74.9498 208.111C73.3221 210.582 72.2245 213.305 71.6421 216.102L67.1621 216.519V225.164L71.6421 225.588C72.2245 228.393 73.3221 231.108 74.9498 233.579L72.0901 237.023L78.2202 243.132L81.6773 240.282C84.1562 241.904 86.889 242.998 89.6965 243.578L90.1146 248.042H98.7909L99.2165 243.578C102.031 242.998 104.757 241.904 107.236 240.282L110.693 243.132L116.823 237.023L113.963 233.579C115.591 231.108 116.689 228.385 117.271 225.588L121.751 225.164V216.519L117.271 216.095C116.689 213.29 115.591 210.574 113.963 208.104L116.823 204.659L110.693 198.551L107.236 201.401C104.749 199.779 102.024 198.685 99.2165 198.105L98.7909 193.641H90.1146L89.6965 198.105C86.8816 198.685 84.1562 199.779 81.6773 201.401L78.2202 198.551L72.0901 204.659L74.9498 208.104V208.111ZM102.763 212.575C107.348 217.144 107.348 224.554 102.763 229.122C98.1786 233.69 90.7418 233.69 86.1573 229.122C81.5728 224.554 81.5728 217.144 86.1573 212.575C90.7418 208.007 98.1786 208.007 102.763 212.575Z" fill="#F5F5F5"/>
<path d="M436.711 212.746C435.666 214.339 434.957 216.087 434.583 217.887L431.701 218.155V223.713L434.583 223.981C434.957 225.781 435.666 227.53 436.711 229.122L434.875 231.339L438.817 235.267L441.042 233.437C442.64 234.479 444.395 235.185 446.201 235.557L446.47 238.429H452.048L452.317 235.557C454.124 235.185 455.878 234.479 457.476 233.437L459.701 235.267L463.644 231.339L461.807 229.122C462.852 227.53 463.561 225.781 463.935 223.981L466.817 223.713V218.155L463.935 217.887C463.561 216.087 462.852 214.339 461.807 212.746L463.644 210.529L459.701 206.601L457.476 208.431C455.878 207.39 454.124 206.683 452.317 206.311L452.048 203.439H446.47L446.201 206.311C444.395 206.683 442.64 207.39 441.042 208.431L438.817 206.601L434.875 210.529L436.711 212.746ZM454.601 215.618C457.551 218.557 457.551 223.326 454.601 226.265C451.652 229.204 446.866 229.204 443.917 226.265C440.967 223.326 440.967 218.557 443.917 215.618C446.866 212.679 451.645 212.679 454.601 215.618Z" fill="#F5F5F5"/>
<path d="M67.2523 257.573C66.4235 258.83 65.8709 260.207 65.5723 261.628L63.2949 261.843V266.233L65.5723 266.449C65.8709 267.87 66.4235 269.254 67.2523 270.503L65.7963 272.252L68.9099 275.354L70.6645 273.904C71.9264 274.729 73.3077 275.28 74.7339 275.578L74.9504 277.847H79.3557L79.5723 275.578C80.9984 275.28 82.3872 274.729 83.6416 273.904L85.3963 275.354L88.5099 272.252L87.0539 270.503C87.8827 269.246 88.4352 267.87 88.7339 266.449L91.0112 266.233V261.843L88.7339 261.628C88.4352 260.207 87.8827 258.823 87.0539 257.573L88.5099 255.824L85.3963 252.722L83.6416 254.173C82.3797 253.347 80.9984 252.796 79.5723 252.499L79.3557 250.229H74.9504L74.7339 252.499C73.3077 252.796 71.9189 253.347 70.6645 254.173L68.9099 252.722L65.7963 255.824L67.2523 257.573ZM81.3717 259.835C83.7013 262.156 83.7013 265.913 81.3717 268.234C79.0421 270.556 75.264 270.556 72.9419 268.234C70.6197 265.913 70.6123 262.156 72.9419 259.835C75.2715 257.513 79.0421 257.513 81.3717 259.835Z" fill="#E0E0E0"/>
<path d="M351.397 157.817C350.396 159.342 349.717 161.016 349.358 162.742L346.596 163.003V168.33L349.358 168.59C349.717 170.316 350.396 171.99 351.397 173.515L349.635 175.636L353.413 179.4L355.541 177.645C357.071 178.641 358.751 179.319 360.484 179.676L360.745 182.428H366.091L366.352 179.676C368.085 179.319 369.765 178.641 371.295 177.645L373.423 179.4L377.202 175.636L375.439 173.515C376.44 171.99 377.119 170.316 377.478 168.59L380.241 168.33V163.003L377.485 162.742C377.127 161.016 376.447 159.342 375.447 157.817L377.209 155.697L373.431 151.932L371.303 153.688C369.772 152.691 368.092 152.014 366.36 151.657L366.099 148.904H360.752L360.491 151.657C358.759 152.014 357.079 152.691 355.548 153.688L353.42 151.932L349.642 155.697L351.404 157.817H351.397ZM368.533 160.562C371.355 163.375 371.355 167.943 368.533 170.755C365.71 173.567 361.126 173.567 358.303 170.755C355.481 167.943 355.481 163.375 358.303 160.562C361.126 157.75 365.71 157.75 368.533 160.562Z" fill="#E0E0E0"/>
<path d="M123.652 97.8612L53.2969 114.523L65.2673 164.707L135.622 148.045L123.652 97.8612Z" fill="#E0E0E0"/>
<path d="M121.365 100.475L56.5098 115.835L67.5461 162.103L132.402 146.743L121.365 100.475Z" fill="#FAFAFA"/>
<path d="M67.5498 162.095L65.8848 155.117C68.2442 147.253 75.9498 135.334 79.28 134.389C84.8053 132.819 95.9082 140.795 95.9082 140.795C95.9082 140.795 106.877 121.718 110.408 120.044C116.046 117.381 128.493 130.334 128.493 130.334L132.405 146.732L67.5498 162.095Z" fill="#EBEBEB"/>
<path d="M96.7894 121.927C97.2747 125.119 95.072 128.102 91.8688 128.586C88.6656 129.069 85.6715 126.874 85.1862 123.683C84.7008 120.491 86.9035 117.507 90.1067 117.024C93.3099 116.54 96.304 118.735 96.7894 121.927Z" fill="#EBEBEB"/>
<path d="M460.394 66.1344L371.742 62.5093L369.138 125.748L457.789 129.373L460.394 66.1344Z" fill="#E0E0E0"/>
<path d="M456.83 68.4607L375.102 65.1187L372.7 123.421L454.429 126.764L456.83 68.4607Z" fill="#FAFAFA"/>
<path d="M372.699 123.437L373.065 114.643C378.478 106.139 391.552 94.6141 395.801 94.5993C402.857 94.5769 413.303 107.671 413.303 107.671C413.303 107.671 432.619 88.7737 437.353 87.9702C444.902 86.6905 455.273 106.116 455.273 106.116L454.422 126.777L372.691 123.429L372.699 123.437Z" fill="#EBEBEB"/>
<path d="M420.634 85.679C420.142 89.6074 416.55 92.4048 412.6 91.9138C408.658 91.4227 405.85 87.8441 406.343 83.9083C406.836 79.98 410.427 77.1826 414.377 77.6736C418.32 78.1646 421.127 81.7433 420.634 85.679Z" fill="#EBEBEB"/>
<path d="M508.858 170.972L460.551 162.007L454.11 196.465L502.418 205.429L508.858 170.972Z" fill="#E0E0E0"/>
<path d="M506.722 171.968L462.188 163.703L456.25 195.469L500.785 203.733L506.722 171.968Z" fill="#FAFAFA"/>
<path d="M456.236 195.501L457.132 190.709C460.769 186.468 468.855 181.186 471.185 181.513C475.052 182.056 479.741 190.054 479.741 190.054C479.741 190.054 491.83 181.216 494.488 181.149C498.729 181.037 502.873 192.51 502.873 192.51L500.767 203.766L456.236 195.501Z" fill="#EBEBEB"/>
<path d="M485.505 178.575C484.923 180.695 482.735 181.937 480.607 181.357C478.486 180.777 477.232 178.597 477.815 176.476C478.397 174.356 480.585 173.114 482.713 173.694C484.841 174.274 486.088 176.454 485.505 178.575Z" fill="#EBEBEB"/>
<path d="M262.17 52.8237C262.282 52.8237 262.371 52.913 262.364 53.0246C262.364 53.0916 262.327 53.1585 262.267 53.1957L244.989 62.2651L244.168 62.7041L235.32 67.3392L204.878 68.3584C204.766 68.3584 204.677 68.2692 204.684 68.1576C204.684 68.0906 204.721 68.0237 204.781 67.9865L231.355 54.0439C231.601 53.91 231.87 53.843 232.154 53.8356L241.711 53.5082L242.645 53.4784L262.17 52.8312V52.8237Z" fill="#E6E6E6"/>
<path d="M249.588 56.35C248.983 55.368 241.695 56.3873 233.012 58.6788C224.328 60.9703 217.496 63.6859 217.451 64.8391L221.02 78.2534C221.087 78.5064 221.341 78.6477 221.595 78.5882L252.836 70.3373C253.09 70.2777 253.239 70.0248 253.179 69.7718L249.61 56.35H249.58H249.588Z" fill="#EBEBEB"/>
<path d="M246.96 66.9298L247.714 69.7644L247.49 69.8239L246.863 68.1202L247.154 69.9058L246.781 70.0025L246.146 68.3062L246.437 70.0918L246.064 70.1885L245.429 68.4922L245.728 70.2778L245.504 70.3373L244.75 67.5027C244.638 67.0563 244.802 66.595 245.168 66.3197L241.756 53.4931L242.689 53.4634L246.049 66.0891C246.49 66.1635 246.848 66.4908 246.96 66.9223V66.9298Z" fill="#E0E0E0"/>
<path d="M503.052 241.071H368.092C365.681 241.071 363.717 239.114 363.717 236.711V40.8305C363.717 38.4274 365.681 36.4707 368.092 36.4707H503.052C505.464 36.4707 507.428 38.4274 507.428 40.8305V236.703C507.428 239.107 505.464 241.063 503.052 241.063V241.071ZM368.1 36.6567C365.793 36.6567 363.911 38.5316 363.911 40.8305V236.703C363.911 239.002 365.793 240.877 368.1 240.877H503.06C505.367 240.877 507.249 239.002 507.249 236.703V40.8305C507.249 38.5316 505.367 36.6567 503.06 36.6567H368.1Z" fill="#E0E0E0"/>
<path d="M347.431 241.071H212.471C210.059 241.071 208.096 239.114 208.096 236.711V40.8305C208.096 38.4274 210.059 36.4707 212.471 36.4707H347.431C349.843 36.4707 351.807 38.4274 351.807 40.8305V236.703C351.807 239.107 349.843 241.063 347.431 241.063V241.071ZM212.471 36.6567C210.164 36.6567 208.282 38.5316 208.282 40.8305V236.703C208.282 239.002 210.164 240.877 212.471 240.877H347.431C349.738 240.877 351.62 239.002 351.62 236.703V40.8305C351.62 38.5316 349.738 36.6567 347.431 36.6567H212.471Z" fill="#E0E0E0"/>
<path d="M191.9 241.071H56.9477C54.536 241.071 52.5723 239.114 52.5723 236.711V40.8305C52.5723 38.4274 54.536 36.4707 56.9477 36.4707H191.908C194.319 36.4707 196.283 38.4274 196.283 40.8305V236.703C196.283 239.107 194.319 241.063 191.908 241.063L191.9 241.071ZM56.9477 36.6567C54.6405 36.6567 52.7589 38.5316 52.7589 40.8305V236.703C52.7589 239.002 54.6405 240.877 56.9477 240.877H191.908C194.215 240.877 196.097 239.002 196.097 236.703V40.8305C196.097 38.5316 194.215 36.6567 191.908 36.6567H56.9477Z" fill="#E0E0E0"/>
<path d="M560 286.507H0V286.596H560V286.507Z" fill="#E0E0E0"/>
<path d="M529.655 308.358H488.043V308.67H529.655V308.358Z" fill="#EBEBEB"/>
<path d="M380.553 311.758H369.629V312.071H380.553V311.758Z" fill="#EBEBEB"/>
<path d="M84.604 298.835H30.3438V299.147H84.604V298.835Z" fill="#EBEBEB"/>
<path d="M103.756 298.835H95.7969V299.147H103.756V298.835Z" fill="#EBEBEB"/>
<path d="M247.295 304.125H129.613V304.437H247.295V304.125Z" fill="#EBEBEB"/>
<path d="M537.578 333.014C537.578 335.76 420.919 337.984 277.013 337.984C133.108 337.984 16.4492 335.76 16.4492 333.014C16.4492 330.269 133.108 328.044 277.013 328.044C420.919 328.044 537.578 330.269 537.578 333.014Z" fill="#F5F5F5"/>
<path d="M78.6229 296.908L75.3301 296.447C75.9125 292.355 79.3471 284.61 88.1354 284.61C98.5365 284.61 103.718 290.592 104.234 296.536L100.941 296.819C100.56 292.377 96.4383 287.891 88.1279 287.891C79.8175 287.891 78.705 296.544 78.6303 296.908H78.6229Z" fill="#263238"/>
<path d="M117.159 294.021H63.6529C60.725 294.021 58.3516 296.387 58.3516 299.304V326.877C58.3516 329.794 60.725 332.159 63.6529 332.159H117.159C120.087 332.159 122.46 329.794 122.46 326.877V299.304C122.46 296.387 120.087 294.021 117.159 294.021Z" fill="#263238"/>
<path opacity="0.2" d="M117.159 294.021H63.6529C60.725 294.021 58.3516 296.387 58.3516 299.304V326.877C58.3516 329.794 60.725 332.159 63.6529 332.159H117.159C120.087 332.159 122.46 329.794 122.46 326.877V299.304C122.46 296.387 120.087 294.021 117.159 294.021Z" fill="white"/>
<path d="M104.256 332.747C58.9335 332.747 56.7383 301.774 56.7383 301.446L58.5825 297.86C58.6572 299.006 62.2263 329.443 104.293 329.443C121.609 329.443 136.549 329.443 138.065 326.162C139.394 323.261 132.906 315.813 122.497 303.879V299.259C135.758 314.474 143.269 322.658 141.067 327.486C138.737 332.553 128.724 332.747 104.264 332.747H104.256Z" fill="#263238"/>
<path d="M488.754 308.098H484.572V321.795H488.754V308.098Z" fill="#263238"/>
<path d="M486.609 310.3C480.106 310.3 473.707 308.701 467.973 305.636L469.951 301.968C487.214 311.156 508.681 304.668 517.902 287.467C522.39 279.097 523.308 269.276 520.448 260.222C519.328 256.636 517.626 253.251 515.423 250.208C512.265 245.833 508.143 242.239 503.372 239.687L505.343 236.02C507.539 237.195 509.629 238.571 511.571 240.134C514.318 242.344 516.752 244.91 518.813 247.767C521.285 251.175 523.181 254.954 524.436 258.964C531.014 279.759 519.433 301.93 498.564 308.485C494.696 309.698 490.664 310.315 486.609 310.315V310.3Z" fill="#263238"/>
<g opacity="0.3">
<path d="M486.609 310.3C480.106 310.3 473.707 308.701 467.973 305.636L469.951 301.968C487.214 311.156 508.681 304.668 517.902 287.467C522.39 279.097 523.308 269.276 520.448 260.222C519.328 256.636 517.626 253.251 515.423 250.208C512.265 245.833 508.143 242.239 503.372 239.687L505.343 236.02C507.539 237.195 509.629 238.571 511.571 240.134C514.318 242.344 516.752 244.91 518.813 247.767C521.285 251.175 523.181 254.954 524.436 258.964C531.014 279.759 519.433 301.93 498.564 308.485C494.696 309.698 490.664 310.315 486.609 310.315V310.3Z" fill="white"/>
</g>
<path d="M466.629 309.11C466.457 309.11 466.285 309.073 466.136 308.983C465.643 308.708 465.449 308.098 465.71 307.592L505.784 233.103C506.053 232.597 506.687 232.404 507.195 232.671C507.703 232.939 507.897 233.572 507.628 234.077L467.547 308.537C467.368 308.879 467.017 309.095 466.629 309.102V309.11Z" fill="#263238"/>
<g opacity="0.4">
<path d="M466.629 309.11C466.457 309.11 466.285 309.073 466.136 308.983C465.643 308.708 465.449 308.098 465.71 307.592L505.784 233.103C506.053 232.597 506.687 232.404 507.195 232.671C507.703 232.939 507.897 233.572 507.628 234.077L467.547 308.537C467.368 308.879 467.017 309.095 466.629 309.102V309.11Z" fill="white"/>
</g>
<path d="M479.024 320.783H494.3C495.323 320.783 496.152 321.609 496.152 322.628V326.028H477.172V322.628C477.172 321.609 478.001 320.783 479.016 320.783H479.024Z" fill="#263238"/>
<path d="M488.23 240.416C505.082 241.279 518.044 255.594 517.186 272.386C516.32 289.178 501.954 302.094 485.102 301.238C468.249 300.375 455.287 286.061 456.146 269.268C457.012 252.469 471.378 239.561 488.23 240.416Z" fill="#207733"/>
<path opacity="0.2" d="M496.213 241.927C496.653 251.085 493.704 260.973 487.245 269.47C480.092 278.874 470.124 284.603 460.186 286.046C451.779 271.456 456.833 252.834 471.468 244.456C478.987 240.156 487.977 239.233 496.213 241.927Z" fill="white"/>
<g opacity="0.3">
<path d="M479.024 320.783H494.3C495.323 320.783 496.152 321.609 496.152 322.628V326.028H477.172V322.628C477.172 321.609 478.001 320.783 479.016 320.783H479.024Z" fill="white"/>
</g>
<path d="M470.781 325.031H502.552C503.746 325.031 504.709 325.991 504.709 327.181V330.715H468.623V327.181C468.623 325.991 469.586 325.031 470.781 325.031Z" fill="#263238"/>
<g opacity="0.4">
<path d="M470.781 325.031H502.552C503.746 325.031 504.709 325.991 504.709 327.181V330.715H468.623V327.181C468.623 325.991 469.586 325.031 470.781 325.031Z" fill="white"/>
</g>
<path d="M471.184 126.19C477.269 134.426 475.507 146.017 467.249 152.081C460.873 156.768 452.495 156.768 446.201 152.743L440.825 154.239L441.467 148.398C441.407 148.316 441.332 148.242 441.273 148.16C435.187 139.924 436.949 128.332 445.208 122.269C453.473 116.205 465.106 117.961 471.191 126.19H471.184Z" fill="#207733"/>
<path opacity="0.7" d="M471.184 126.19C477.269 134.426 475.507 146.017 467.249 152.081C460.873 156.768 452.495 156.768 446.201 152.743L440.825 154.239L441.467 148.398C441.407 148.316 441.332 148.242 441.273 148.16C435.187 139.924 436.949 128.332 445.208 122.269C453.473 116.205 465.106 117.961 471.191 126.19H471.184Z" fill="white"/>
<path d="M472.386 124.389C472.327 124.389 472.267 124.359 472.23 124.307C468.967 119.531 463.187 116.503 457.393 116.503C457.236 116.503 457.08 116.503 456.915 116.503C456.826 116.51 456.729 116.421 456.721 116.324C456.721 116.22 456.796 116.138 456.9 116.131C462.971 115.952 469.116 119.077 472.536 124.092C472.595 124.173 472.573 124.292 472.483 124.352C472.453 124.374 472.416 124.382 472.379 124.382L472.386 124.389ZM451.502 117.113C452.338 116.793 453.249 116.652 454.138 116.689C454.242 116.696 454.332 116.614 454.332 116.51C454.332 116.406 454.257 116.324 454.153 116.317C453.204 116.272 452.249 116.428 451.368 116.771C451.271 116.808 451.226 116.912 451.263 117.009C451.293 117.083 451.36 117.128 451.435 117.128C451.457 117.128 451.48 117.128 451.502 117.113Z" fill="#207733"/>
<path opacity="0.7" d="M472.386 124.389C472.327 124.389 472.267 124.359 472.23 124.307C468.967 119.531 463.187 116.503 457.393 116.503C457.236 116.503 457.08 116.503 456.915 116.503C456.826 116.51 456.729 116.421 456.721 116.324C456.721 116.22 456.796 116.138 456.9 116.131C462.971 115.952 469.116 119.077 472.536 124.092C472.595 124.173 472.573 124.292 472.483 124.352C472.453 124.374 472.416 124.382 472.379 124.382L472.386 124.389ZM451.502 117.113C452.338 116.793 453.249 116.652 454.138 116.689C454.242 116.696 454.332 116.614 454.332 116.51C454.332 116.406 454.257 116.324 454.153 116.317C453.204 116.272 452.249 116.428 451.368 116.771C451.271 116.808 451.226 116.912 451.263 117.009C451.293 117.083 451.36 117.128 451.435 117.128C451.457 117.128 451.48 117.128 451.502 117.113Z" fill="white"/>
<path d="M452.025 136.598C452.025 137.975 450.905 139.083 449.531 139.083C448.157 139.083 447.037 137.967 447.037 136.598C447.037 135.229 448.157 134.113 449.531 134.113C450.905 134.113 452.025 135.229 452.025 136.598Z" fill="#207733"/>
<path d="M457.17 139.083C458.547 139.083 459.664 137.971 459.664 136.598C459.664 135.226 458.547 134.113 457.17 134.113C455.792 134.113 454.676 135.226 454.676 136.598C454.676 137.971 455.792 139.083 457.17 139.083Z" fill="#207733"/>
<path d="M464.808 139.083C466.186 139.083 467.302 137.971 467.302 136.598C467.302 135.226 466.186 134.113 464.808 134.113C463.431 134.113 462.314 135.226 462.314 136.598C462.314 137.971 463.431 139.083 464.808 139.083Z" fill="#207733"/>
<path d="M190.005 110.64C184.256 103.364 173.466 101.965 165.918 107.508C160.086 111.786 157.913 118.951 159.862 125.342L157.137 129.568L162.505 130.49C162.565 130.565 162.61 130.647 162.67 130.713C168.419 137.99 179.201 139.389 186.757 133.846C194.306 128.303 195.762 117.917 190.012 110.64H190.005Z" fill="#207733"/>
<path opacity="0.7" d="M190.005 110.64C184.256 103.364 173.466 101.965 165.918 107.508C160.086 111.786 157.913 118.951 159.862 125.342L157.137 129.568L162.505 130.49C162.565 130.565 162.61 130.647 162.67 130.713C168.419 137.99 179.201 139.389 186.757 133.846C194.306 128.303 195.762 117.917 190.012 110.64H190.005Z" fill="white"/>
<path d="M195.089 125.506C195.089 125.506 195.052 125.506 195.029 125.498C194.932 125.468 194.88 125.357 194.91 125.26C196.605 120.223 195.44 114.323 191.946 110.231C191.879 110.157 191.886 110.038 191.968 109.971C192.043 109.904 192.162 109.911 192.229 109.993C195.806 114.182 197.001 120.223 195.261 125.379C195.239 125.454 195.164 125.506 195.082 125.506H195.089ZM193.267 129.962C193.797 129.293 194.186 128.504 194.395 127.686C194.417 127.589 194.357 127.485 194.26 127.462C194.156 127.433 194.059 127.5 194.036 127.596C193.842 128.363 193.476 129.107 192.976 129.732C192.909 129.813 192.924 129.933 193.006 129.992C193.043 130.022 193.081 130.029 193.118 130.029C193.17 130.029 193.23 130.007 193.267 129.955V129.962Z" fill="#207733"/>
<path opacity="0.7" d="M195.089 125.506C195.089 125.506 195.052 125.506 195.029 125.498C194.932 125.468 194.88 125.357 194.91 125.26C196.605 120.223 195.44 114.323 191.946 110.231C191.879 110.157 191.886 110.038 191.968 109.971C192.043 109.904 192.162 109.911 192.229 109.993C195.806 114.182 197.001 120.223 195.261 125.379C195.239 125.454 195.164 125.506 195.082 125.506H195.089ZM193.267 129.962C193.797 129.293 194.186 128.504 194.395 127.686C194.417 127.589 194.357 127.485 194.26 127.462C194.156 127.433 194.059 127.5 194.036 127.596C193.842 128.363 193.476 129.107 192.976 129.732C192.909 129.813 192.924 129.933 193.006 129.992C193.043 130.022 193.081 130.029 193.118 130.029C193.17 130.029 193.23 130.007 193.267 129.955V129.962Z" fill="white"/>
<path d="M180.434 120.305C180.434 121.533 181.464 122.53 182.741 122.53C184.018 122.53 185.048 121.533 185.048 120.305C185.048 119.078 184.018 118.081 182.741 118.081C181.464 118.081 180.434 119.078 180.434 120.305Z" fill="#207733"/>
<path d="M173.369 120.305C173.369 121.533 174.4 122.53 175.676 122.53C176.953 122.53 177.984 121.533 177.984 120.305C177.984 119.078 176.953 118.081 175.676 118.081C174.4 118.081 173.369 119.078 173.369 120.305Z" fill="#207733"/>
<path d="M166.307 120.305C166.307 121.533 167.337 122.53 168.614 122.53C169.891 122.53 170.921 121.533 170.921 120.305C170.921 119.078 169.891 118.081 168.614 118.081C167.337 118.081 166.307 119.078 166.307 120.305Z" fill="#207733"/>
<path d="M318.028 40.6598C305.103 40.511 294.501 50.8303 294.351 63.7089C294.269 70.6951 297.338 77.3539 302.714 81.8476C303.699 82.6586 305.215 83.6407 305.178 85.6792C305.178 85.7388 305.282 90.7756 305.282 90.7756H329.9C329.9 90.7756 330.005 85.5453 330.005 85.4858C330.005 83.6928 331.401 82.919 332.424 82.108C337.867 77.7556 341.078 71.2084 341.16 64.252C341.309 51.3734 330.953 40.8086 318.028 40.6598Z" fill="#207733"/>
<path opacity="0.4" d="M318.028 40.6598C305.103 40.511 294.501 50.8303 294.351 63.7089C294.269 70.6951 297.338 77.3539 302.714 81.8476C303.699 82.6586 305.215 83.6407 305.178 85.6792C305.178 85.7388 305.282 90.7756 305.282 90.7756H329.9C329.9 90.7756 330.005 85.5453 330.005 85.4858C330.005 83.6928 331.401 82.919 332.424 82.108C337.867 77.7556 341.078 71.2084 341.16 64.252C341.309 51.3734 330.953 40.8086 318.028 40.6598Z" fill="white"/>
<path opacity="0.2" d="M329.661 50.7039C329.661 55.2423 324.33 58.9325 317.714 58.9325C311.099 58.9325 305.768 55.2423 305.768 50.7039C305.768 46.1655 311.099 42.4678 317.714 42.4678C324.33 42.4678 329.661 46.158 329.661 50.7039Z" fill="white"/>
<path d="M299.757 72.9346C297.689 69.4006 296.875 65.2193 297.48 61.1719C298.077 57.1246 300.064 53.3525 303.073 50.5625L303.327 50.8378C300.385 53.5683 298.436 57.2585 297.846 61.224C297.256 65.1895 298.048 69.2815 300.079 72.7486L299.757 72.9346Z" fill="white"/>
<path d="M324.554 85.7907C323.36 82.651 322.366 79.4295 321.575 76.1336C320.365 77.19 319.044 77.7332 317.767 77.6662C316.737 77.6141 315.699 77.1826 314.638 76.3568C314.482 79.5485 313.944 82.718 313.048 85.7832L312.331 85.5749C313.272 82.3832 313.802 79.0724 313.922 75.7467C313.75 75.583 313.578 75.4193 313.406 75.2333C310.786 72.5177 309.561 69.1474 310.129 66.2309C310.345 65.1224 311.017 64.0436 312.033 64.0436C312.958 64.0659 313.645 64.9736 313.959 66.6029C314.519 69.512 314.758 72.4731 314.676 75.4268C315.766 76.3865 316.796 76.8776 317.804 76.9296C319.32 77.004 320.604 76.0592 321.381 75.3077C320.806 72.8004 320.358 70.256 320.029 67.6817C319.91 66.7517 319.82 65.844 320.029 64.9587C320.276 63.8799 320.978 63.0615 321.814 62.8829C323.255 62.5704 324.427 64.1105 324.83 65.7845C325.629 69.1176 324.621 72.9195 322.277 75.464C322.254 75.4863 322.24 75.5086 322.217 75.5309C323.016 78.9384 324.032 82.2864 325.271 85.5303L324.569 85.7907H324.554ZM311.995 64.7801C311.45 64.7801 311.01 65.5762 310.853 66.3648C310.33 69.0507 311.48 72.168 313.929 74.7125C313.959 72.049 313.72 69.3706 313.212 66.7368C313.123 66.283 312.779 64.8024 312.003 64.7801H311.988H311.995ZM322.157 63.5823C322.09 63.5823 322.023 63.5823 321.956 63.6046C321.329 63.7385 320.896 64.4602 320.746 65.1149C320.567 65.8812 320.657 66.7145 320.761 67.5701C321.067 69.9435 321.478 72.302 321.993 74.6232C323.942 72.2871 324.786 68.8572 324.091 65.9408C323.8 64.728 323.016 63.5748 322.157 63.5748V63.5823Z" fill="#263238"/>
<path d="M331.521 89.2949H303.783C303.123 89.2949 302.588 89.8279 302.588 90.4853V91.0656C302.588 91.7231 303.123 92.256 303.783 92.256H331.521C332.181 92.256 332.716 91.7231 332.716 91.0656V90.4853C332.716 89.8279 332.181 89.2949 331.521 89.2949Z" fill="#263238"/>
<path opacity="0.3" d="M331.521 89.2949H303.783C303.123 89.2949 302.588 89.8279 302.588 90.4853V91.0656C302.588 91.7231 303.123 92.256 303.783 92.256H331.521C332.181 92.256 332.716 91.7231 332.716 91.0656V90.4853C332.716 89.8279 332.181 89.2949 331.521 89.2949Z" fill="white"/>
<path d="M331.027 91.9883H304.267C303.607 91.9883 303.072 92.5212 303.072 93.1787V93.6623C303.072 94.3197 303.607 94.8527 304.267 94.8527H331.027C331.687 94.8527 332.222 94.3197 332.222 93.6623V93.1787C332.222 92.5212 331.687 91.9883 331.027 91.9883Z" fill="#263238"/>
<path opacity="0.3" d="M331.027 91.9883H304.267C303.607 91.9883 303.072 92.5212 303.072 93.1787V93.6623C303.072 94.3197 303.607 94.8527 304.267 94.8527H331.027C331.687 94.8527 332.222 94.3197 332.222 93.6623V93.1787C332.222 92.5212 331.687 91.9883 331.027 91.9883Z" fill="white"/>
<path d="M308.404 98.9371C310.249 102.3 314.139 105.849 317.977 105.626C321.822 105.402 325.428 102.144 326.862 98.5874L308.404 98.9371Z" fill="#263238"/>
<path d="M329.243 97.1519H306.044C305.384 97.1519 304.85 97.6848 304.85 98.3422V98.8259C304.85 99.4833 305.384 100.016 306.044 100.016H329.243C329.903 100.016 330.438 99.4833 330.438 98.8259V98.3422C330.438 97.6848 329.903 97.1519 329.243 97.1519Z" fill="#263238"/>
<path opacity="0.3" d="M329.243 97.1519H306.044C305.384 97.1519 304.85 97.6848 304.85 98.3422V98.8259C304.85 99.4833 305.384 100.016 306.044 100.016H329.243C329.903 100.016 330.438 99.4833 330.438 98.8259V98.3422C330.438 97.6848 329.903 97.1519 329.243 97.1519Z" fill="white"/>
<path d="M330.64 94.5254H304.663C304.004 94.5254 303.469 95.0583 303.469 95.7158V96.1994C303.469 96.8568 304.004 97.3898 304.663 97.3898H330.64C331.3 97.3898 331.835 96.8568 331.835 96.1994V95.7158C331.835 95.0583 331.3 94.5254 330.64 94.5254Z" fill="#263238"/>
<path opacity="0.3" d="M330.64 94.5254H304.663C304.004 94.5254 303.469 95.0583 303.469 95.7158V96.1994C303.469 96.8568 304.004 97.3898 304.663 97.3898H330.64C331.3 97.3898 331.835 96.8568 331.835 96.1994V95.7158C331.835 95.0583 331.3 94.5254 330.64 94.5254Z" fill="white"/>
<path d="M304.759 32.2004C306.537 33.9711 308.321 35.7492 310.098 37.52C310.352 37.7729 310.748 37.3786 310.494 37.1256C308.717 35.3549 306.932 33.5768 305.155 31.806C304.901 31.5531 304.506 31.9474 304.759 32.2004Z" fill="#263238"/>
<path d="M318.677 35.4293V25.3704C318.677 25.0133 318.117 25.0133 318.117 25.3704V35.4293C318.117 35.7864 318.677 35.7864 318.677 35.4293Z" fill="#263238"/>
<path d="M326.077 37.9515C328.003 36.032 329.922 34.1199 331.849 32.2004C332.103 31.9474 331.707 31.5531 331.453 31.806C329.527 33.7256 327.608 35.6376 325.681 37.5572C325.427 37.8101 325.823 38.2044 326.077 37.9515Z" fill="#263238"/>
<path d="M442.341 296.35H117.549V330.998H442.341V296.35Z" fill="#207733"/>
<path d="M229.138 299.973H117.549V327.375H229.138V299.973Z" fill="white"/>
<path d="M117.549 306.729C151.492 306.364 189.565 306.364 223.508 306.729C189.565 307.094 151.492 307.094 117.549 306.729Z" fill="#263238"/>
<path d="M117.549 309.98C151.492 309.615 189.565 309.615 223.508 309.98C189.565 310.345 151.492 310.345 117.549 309.98Z" fill="#263238"/>
<path d="M117.549 313.224C151.492 312.86 189.565 312.86 223.508 313.224C189.565 313.589 151.492 313.589 117.549 313.224Z" fill="#263238"/>
<path d="M117.549 316.475C151.492 316.111 189.565 316.111 223.508 316.475C189.565 316.84 151.492 316.84 117.549 316.475Z" fill="#263238"/>
<path d="M117.549 319.727C151.492 319.362 189.565 319.362 223.508 319.727C189.565 320.091 151.492 320.091 117.549 319.727Z" fill="#263238"/>
<path d="M117.549 322.978C151.492 322.613 189.565 322.613 223.508 322.978C189.565 323.342 151.492 323.342 117.549 322.978Z" fill="#263238"/>
<path d="M117.549 303.478C151.492 303.113 189.565 303.113 223.508 303.478C189.565 303.842 151.492 303.842 117.549 303.478Z" fill="#263238"/>
<path opacity="0.3" d="M267.615 296.35H257.654V330.998H267.615V296.35Z" fill="white"/>
<path opacity="0.3" d="M419.539 296.35H409.578V330.998H419.539V296.35Z" fill="white"/>
<path opacity="0.2" d="M235.462 296.35H117.549V330.998H235.462V296.35Z" fill="#1F2D20"/>
<path d="M355.302 223.23H166.574V247.908H355.302V223.23Z" fill="#207733"/>
<path d="M246.072 225.812H166.574V245.334H246.072V225.812Z" fill="white"/>
<path d="M166.574 230.618C190.751 230.254 217.885 230.254 242.062 230.618C217.885 230.983 190.751 230.983 166.574 230.618Z" fill="#263238"/>
<path d="M166.574 232.932C190.751 232.567 217.885 232.567 242.062 232.932C217.885 233.296 190.751 233.296 166.574 232.932Z" fill="#263238"/>
<path d="M166.574 235.253C190.751 234.889 217.885 234.889 242.062 235.253C217.885 235.618 190.751 235.618 166.574 235.253Z" fill="#263238"/>
<path d="M166.574 237.567C190.751 237.202 217.885 237.202 242.062 237.567C217.885 237.931 190.751 237.931 166.574 237.567Z" fill="#263238"/>
<path d="M166.574 239.881C190.751 239.516 217.885 239.516 242.062 239.881C217.885 240.245 190.751 240.245 166.574 239.881Z" fill="#263238"/>
<path d="M166.574 242.195C190.751 241.83 217.885 241.83 242.062 242.195C217.885 242.559 190.751 242.559 166.574 242.195Z" fill="#263238"/>
<path d="M166.574 228.304C190.751 227.94 217.885 227.94 242.062 228.304C217.885 228.669 190.751 228.669 166.574 228.304Z" fill="#263238"/>
<path opacity="0.3" d="M347.634 223.23H340.533V247.908H347.634V223.23Z" fill="#1F2D20"/>
<path opacity="0.3" d="M272.154 223.23H265.053V247.908H272.154V223.23Z" fill="#1F2D20"/>
<path opacity="0.2" d="M250.582 223.23H166.574V247.908H250.582V223.23Z" fill="#1F2D20"/>
<path opacity="0.3" d="M333.365 231.942H278.463V239.167H333.365V231.942Z" fill="#1F2D20"/>
<path d="M362.627 281.835H97.7246V296.358H362.627V281.835Z" fill="#263238"/>
<path d="M209.03 283.71H97.7246V294.483H209.03V283.71Z" fill="white"/>
<path d="M98.4863 285.845C132.43 285.481 170.502 285.481 204.446 285.845C170.502 286.21 132.43 286.21 98.4863 285.845Z" fill="#263238"/>
<path d="M98.4863 289.097C132.43 288.732 170.502 288.732 204.446 289.097C170.502 289.461 132.43 289.461 98.4863 289.097Z" fill="#263238"/>
<path d="M98.4863 292.34C132.43 291.976 170.502 291.976 204.446 292.34C170.502 292.705 132.43 292.705 98.4863 292.34Z" fill="#263238"/>
<path opacity="0.3" d="M240.657 281.835H237.857V296.358H240.657V281.835Z" fill="white"/>
<path opacity="0.3" d="M245.87 281.835H243.07V296.358H245.87V281.835Z" fill="white"/>
<path opacity="0.3" d="M344.796 281.835H341.996V296.358H344.796V281.835Z" fill="white"/>
<path opacity="0.3" d="M350.007 281.835H347.207V296.358H350.007V281.835Z" fill="white"/>
<path opacity="0.2" d="M211.732 281.828H97.709V296.351H211.732V281.828Z" fill="#1F2D20"/>
<path d="M414.051 247.782H149.148V262.305H414.051V247.782Z" fill="#263238"/>
<path d="M260.454 249.657H149.148V260.43H260.454V249.657Z" fill="white"/>
<path d="M149.91 251.792C183.854 251.427 221.926 251.427 255.87 251.792C221.926 252.157 183.854 252.157 149.91 251.792Z" fill="#263238"/>
<path d="M149.91 255.043C183.854 254.679 221.926 254.679 255.87 255.043C221.926 255.408 183.854 255.408 149.91 255.043Z" fill="#263238"/>
<path d="M149.91 258.294C183.854 257.93 221.926 257.93 255.87 258.294C221.926 258.659 183.854 258.659 149.91 258.294Z" fill="#263238"/>
<path opacity="0.3" d="M292.081 247.782H289.281V262.305H292.081V247.782Z" fill="white"/>
<path opacity="0.3" d="M297.294 247.782H294.494V262.305H297.294V247.782Z" fill="white"/>
<path opacity="0.3" d="M396.228 247.782H393.428V262.305H396.228V247.782Z" fill="white"/>
<path opacity="0.3" d="M401.439 247.782H398.639V262.305H401.439V247.782Z" fill="white"/>
<path opacity="0.2" d="M263.156 247.774H149.133V262.297H263.156V247.774Z" fill="#1F2D20"/>
<path d="M108.662 281.976L373.564 281.976V262.163L108.662 262.163V281.976Z" fill="#207733"/>
<path opacity="0.4" d="M108.662 281.976L373.564 281.976V262.163L108.662 262.163V281.976Z" fill="white"/>
<path d="M262.267 280.101H373.572V264.44H262.267V280.101Z" fill="white"/>
<path d="M372.811 271.463C338.868 271.828 300.795 271.828 266.852 271.463C300.795 271.099 338.868 271.099 372.811 271.463Z" fill="#263238"/>
<path d="M372.811 274.715C338.868 275.079 300.795 275.079 266.852 274.715C300.795 274.35 338.868 274.35 372.811 274.715Z" fill="#263238"/>
<path d="M372.811 277.966C338.868 278.33 300.795 278.33 266.852 277.966C300.795 277.601 338.868 277.601 372.811 277.966Z" fill="#263238"/>
<path d="M372.811 268.093C338.868 268.457 300.795 268.457 266.852 268.093C300.795 267.728 338.868 267.728 372.811 268.093Z" fill="#263238"/>
<path opacity="0.2" d="M259.564 281.961H373.588V262.148H259.564V281.961Z" fill="#1F2D20"/>
<path opacity="0.4" d="M236.857 268.093H132.346V274.714H236.857V268.093Z" fill="white"/>
<path d="M416.513 262.811C416.513 262.811 338.77 247.053 335.574 263.19C331.012 286.217 387.169 299.966 416.812 298.158C446.454 296.343 416.513 262.818 416.513 262.818V262.811Z" fill="#263238"/>
<path opacity="0.2" d="M416.513 262.811C416.513 262.811 338.77 247.053 335.574 263.19C331.012 286.217 387.169 299.966 416.812 298.158C446.454 296.343 416.513 262.818 416.513 262.818V262.811Z" fill="#1F2D20"/>
<path opacity="0.2" d="M361.051 267.386L397.988 289.282L393.352 296.276C393.352 296.276 396.01 299.966 400.52 288.263L377.649 274.149C377.649 274.149 384.653 273.242 384.444 272.155C384.093 270.37 368.57 267.401 361.484 266.069C361.118 265.95 360.722 266.151 360.603 266.516C360.483 266.88 360.685 267.275 361.051 267.394V267.386Z" fill="#1F2D20"/>
<path opacity="0.2" d="M399.229 286.656L393.24 296.998C401.035 298.121 408.935 298.508 416.813 298.151C419.403 298.061 421.957 297.518 424.346 296.559L426.437 292.467L421.397 283.07L399.229 286.656Z" fill="#1F2D20"/>
<path d="M387.103 282.973L403.537 292.69L400.879 300.576L381.689 292.653L387.103 282.973Z" fill="#EBB373"/>
<path d="M412.489 295.041L411.07 300.695C411.07 300.695 409.89 300.978 409.554 302.168C409.368 302.838 409.913 304.653 409.913 304.653L406.135 320.233C406.135 320.233 405.059 319.98 404.641 319.69C404.126 319.34 403.708 318.983 403.372 318.618C402.185 317.331 402.006 315.426 401.923 314.013C401.782 311.64 400.206 304.758 400.206 304.758C400.206 304.758 399.631 302.964 397.668 301.432C396.577 300.576 396.047 299.468 396.129 298.776C396.286 297.355 397.294 296.797 398.623 296.916L400.169 297.057C401.244 296.209 401.543 294.818 400.803 293.501C400.803 293.501 399.795 290.16 401.229 290.688C402.05 290.986 405.657 292.467 408.539 293.545C409.211 293.798 409.846 294.036 410.406 294.245C411.645 294.714 412.496 295.033 412.496 295.033L412.489 295.041Z" fill="#263238"/>
<path d="M400.9 308.44C400.855 308.359 400.87 308.247 400.945 308.18C401.266 307.867 401.677 307.637 402.132 307.525C402.379 307.466 402.498 307.853 402.252 307.912C401.841 308.009 401.483 308.21 401.199 308.485C401.102 308.574 400.96 308.559 400.893 308.448L400.9 308.44Z" fill="#207733"/>
<path d="M400.543 307.079C400.498 306.997 400.52 306.886 400.588 306.819C400.909 306.506 401.319 306.276 401.775 306.164C402.021 306.104 402.141 306.491 401.894 306.551C401.484 306.648 401.125 306.848 400.842 307.124C400.744 307.213 400.603 307.198 400.535 307.086L400.543 307.079Z" fill="#207733"/>
<path d="M400.236 305.695C400.191 305.613 400.206 305.501 400.281 305.434C400.602 305.122 401.013 304.891 401.468 304.78C401.715 304.72 401.834 305.107 401.588 305.167C401.177 305.263 400.819 305.464 400.535 305.739C400.438 305.829 400.296 305.814 400.229 305.702L400.236 305.695Z" fill="#207733"/>
<path opacity="0.2" d="M410.399 294.252C411.638 294.721 412.49 295.041 412.49 295.041L411.071 300.695C411.071 300.695 409.891 300.978 409.555 302.169C409.369 302.838 409.914 304.653 409.914 304.653L406.135 320.233C406.135 320.233 405.06 319.98 404.642 319.69C404.403 319.533 404.194 319.37 404 319.206L410.1 294.133C410.205 294.171 410.317 294.215 410.414 294.252H410.399Z" fill="white"/>
<path d="M398.049 306.87C397.654 306.87 397.273 306.766 396.974 306.565C396.735 306.409 396.496 306.119 396.556 305.799C396.616 305.487 396.907 305.308 397.154 305.211C397.639 305.018 398.214 304.966 398.856 305.063C399.416 305.144 399.961 305.33 400.491 305.502L400.655 305.561L400.521 305.665C400.207 305.903 399.14 306.692 398.572 306.811C398.4 306.848 398.229 306.87 398.057 306.87H398.049ZM398.236 305.196C397.863 305.196 397.519 305.256 397.213 305.375C397.056 305.435 396.78 305.583 396.735 305.821C396.691 306.052 396.885 306.275 397.071 306.402C397.46 306.662 397.99 306.744 398.52 306.625C398.99 306.521 399.879 305.896 400.252 305.613C399.782 305.457 399.304 305.308 398.819 305.234C398.617 305.204 398.423 305.189 398.229 305.189L398.236 305.196Z" fill="#207733"/>
<path d="M400.557 305.71L400.415 305.606C399.967 305.271 399.512 304.929 399.124 304.52C398.676 304.051 398.392 303.552 398.272 303.039C398.213 302.786 398.19 302.444 398.422 302.221C398.653 301.99 399.027 302.02 399.295 302.124C399.773 302.31 400.184 302.734 400.408 303.285C400.632 303.828 400.587 305.145 400.572 305.539V305.717L400.557 305.71ZM398.877 302.228C398.75 302.228 398.631 302.258 398.541 302.347C398.37 302.518 398.407 302.823 398.444 302.994C398.556 303.471 398.825 303.939 399.243 304.386C399.579 304.743 399.982 305.048 400.371 305.345C400.393 304.594 400.371 303.716 400.214 303.351C400.005 302.853 399.639 302.466 399.206 302.295C399.101 302.258 398.982 302.228 398.87 302.228H398.877Z" fill="#207733"/>
<path d="M383.167 214.8C383.167 214.8 381.084 239.896 380.375 241.257C377.963 245.87 361.312 254.143 361.312 254.143L352.651 252.603L346.633 257.915L350.792 260.973L355.511 259.039C358.131 259.426 360.775 259.574 363.418 259.493C367.861 259.359 390.022 253.838 393.419 247.782C396.816 241.726 396.771 213.565 396.771 213.565L383.16 214.8H383.167Z" fill="#EBB373"/>
<path d="M397.457 224.219C397.457 224.219 403.423 202.056 395 196.2C386.578 190.345 380.918 220.737 380.918 220.737L397.457 224.219Z" fill="#207733"/>
<path opacity="0.5" d="M397.457 224.219C397.457 224.219 403.423 202.056 395 196.2C386.578 190.345 380.918 220.737 380.918 220.737L397.457 224.219Z" fill="white"/>
<path d="M393.424 264.552L392.625 235.432L392.072 195.546L409.223 191.305L421.237 191.193L441.554 197.495L442.241 207.264C442.241 207.264 441.614 252.239 441.763 253.593C441.95 255.252 447.102 265.526 447.102 265.526C425.65 271.062 393.118 266.04 393.409 264.544L393.424 264.552Z" fill="#207733"/>
<path opacity="0.2" d="M392.507 223.178L392.216 205.813L389.154 222.471L392.507 223.178Z" fill="#1F2D20"/>
<path opacity="0.2" d="M429.137 224.845C428.599 224.755 426.419 224.115 426.419 224.115L431.377 207.189L423.701 225.782L428.696 227.597L429.129 224.845H429.137Z" fill="#1F2D20"/>
<path d="M431.044 211.014C431.044 211.014 427.676 238.906 425.332 241.57C421.374 246.079 401.468 258.31 401.468 258.31L391.254 255.073C390.537 254.865 389.76 255.014 389.193 255.468L382.436 260.929L383.115 261.464C383.406 261.695 383.824 261.732 384.153 261.554L385.213 260.988L384.048 262.194L384.437 262.499C384.825 262.804 385.355 262.908 385.833 262.759L388.902 261.844L386.109 263.815C386.759 264.329 387.655 264.493 388.461 264.24L392.941 262.826C396.047 263.436 399.198 263.793 402.364 263.89C407.695 264.061 432.574 254.568 437.069 248.028C441.564 241.481 445.611 214.734 445.611 214.734L431.044 211.006V211.014Z" fill="#EBB373"/>
<path d="M444.969 229.093C444.969 229.093 450.487 203.745 442.065 197.882C433.642 192.027 426.422 224.108 426.422 224.108L444.969 229.093Z" fill="#207733"/>
<path opacity="0.5" d="M444.969 229.093C444.969 229.093 450.487 203.745 442.065 197.882C433.642 192.027 426.422 224.108 426.422 224.108L444.969 229.093Z" fill="white"/>
<path d="M378.454 263.071L394 262.617L410.494 262.133C410.524 263.361 409.187 264.388 407.507 264.432L391.028 264.916L381.598 265.191H381.553L355.315 265.965C353.65 266.002 352.284 265.057 352.254 263.845L378.454 263.078V263.071Z" fill="#263238"/>
<path d="M354.837 265.846L384.107 264.983C384.614 264.968 385.01 264.626 384.995 264.217C384.995 264.142 384.973 264.068 384.943 263.993L371.04 234.628C370.689 233.787 369.688 233.237 368.576 233.266L339.284 234.129C338.791 234.144 338.396 234.479 338.411 234.873C338.411 234.955 338.433 235.037 338.47 235.119L352.373 264.485C352.732 265.318 353.725 265.868 354.837 265.846Z" fill="#263238"/>
<path opacity="0.7" d="M339.284 234.129L368.576 233.266C369.688 233.237 370.689 233.787 371.04 234.628L384.42 262.885L394.007 262.602L410.501 262.119C410.531 263.346 409.195 264.373 407.515 264.418L391.036 264.901L381.605 265.176H381.56L355.323 265.95C354.792 265.965 354.307 265.868 353.867 265.705C353.18 265.496 352.62 265.057 352.373 264.477L338.47 235.111C338.433 235.037 338.411 234.955 338.411 234.866C338.396 234.472 338.791 234.137 339.284 234.122V234.129Z" fill="white"/>
<path d="M357.346 249.456C358.018 250.862 359.332 251.807 360.28 251.576C361.228 251.346 361.445 250.044 360.788 248.63C360.131 247.216 358.809 246.294 357.854 246.525C356.905 246.755 356.651 248.013 357.338 249.456H357.346Z" fill="white"/>
<g opacity="0.3">
<path d="M371.04 234.635L384.42 262.892L383.062 262.93L368.576 233.266C369.689 233.237 370.689 233.787 371.04 234.628V234.635Z" fill="#1F2D20"/>
</g>
<path d="M421.755 193.314C421.755 193.314 418.649 187.183 420.657 177.035C419.425 176.462 421.053 173.925 421.001 172.906L408.15 182.459C408.748 185.598 408.143 191.811 407.688 194.452L412.645 198.938L421.747 193.314H421.755Z" fill="#EBB373"/>
<path opacity="0.2" d="M408.494 184.341L415.946 183.746C414.692 185.948 413.803 187.882 408.352 188.105C408.352 188.105 408.308 185.39 408.494 184.333V184.341Z" fill="#1F2D20"/>
<path d="M403.355 154.112C401.063 156.806 400.07 164.573 405.289 164.32C410.516 164.074 407.29 149.485 403.355 154.112Z" fill="#263238"/>
<path d="M424.852 168.561C421.963 176.73 420.499 181.402 415.064 184.431C392.32 193.626 394.792 154.812 412.383 152.587C421.358 151.695 427.742 160.384 424.852 168.561Z" fill="#EBB373"/>
<path d="M431.587 158.197C430.407 150.229 417.415 150.631 413.525 152.059C412.943 152.275 418.797 157.632 418.423 157.356L421.32 159.38C425.405 161.441 418.035 168.003 421.552 175.116C429.325 174.111 432.184 164.008 431.587 158.197Z" fill="#263238"/>
<path d="M426.166 176.432C423.919 180.606 415.765 181.707 417.886 175.264C419.551 168.925 429.429 168.963 426.166 176.432Z" fill="#EBB373"/>
<path d="M412.405 167.601C411.845 169.617 409.792 168.992 410.389 167.006C410.949 164.99 413.002 165.615 412.405 167.601Z" fill="#263238"/>
<path d="M403.745 165.354C403.185 167.371 401.132 166.746 401.729 164.759C402.289 162.743 404.342 163.368 403.745 165.354Z" fill="#263238"/>
<path d="M406.656 165.659C406.656 165.659 402.744 169.119 401.385 170.599C402.266 172.005 404.454 172.095 404.454 172.095L406.656 165.659Z" fill="#E4873E"/>
<path d="M415.452 164.157C415.31 164.171 415.161 164.112 415.064 163.985C413.966 162.49 412.436 162.542 412.421 162.542C410.763 161.448 414.213 161.21 415.736 163.502C415.93 163.747 415.758 164.127 415.452 164.157Z" fill="#263238"/>
<path opacity="0.2" d="M420.395 175.183C420.395 175.183 420.357 175.183 420.335 175.175C420.238 175.146 420.186 175.041 420.215 174.945C420.611 173.71 422.075 172.504 423.292 172.415C423.859 172.378 424.606 172.534 425.084 173.509C425.128 173.598 425.084 173.71 425.002 173.754C424.912 173.799 424.8 173.762 424.755 173.672C424.442 173.04 423.964 172.742 423.322 172.787C422.261 172.861 420.925 173.97 420.574 175.056C420.551 175.138 420.477 175.183 420.395 175.183Z" fill="#1F2D20"/>
<path d="M401.124 160.719C400.84 160.578 400.833 160.132 401.124 159.983C403.132 158.889 404.812 159.797 404.895 159.826C405.365 160.072 404.977 160.816 404.506 160.563C404.282 160.206 402.662 160.243 401.131 160.719H401.124Z" fill="#263238"/>
<path d="M428.235 170.949C428.235 170.949 422.471 162.743 415.429 158.919C407.634 154.685 401.93 155.943 401.93 155.943C401.93 155.943 400.593 154.641 401.452 153.904C402.31 153.167 403.109 153.815 403.109 153.815C403.109 153.815 411.472 144.939 421.448 147.773C431.431 150.608 434.753 156.754 434.35 157.2C432.297 159.469 431.117 155.95 431.117 155.95C431.117 155.95 433.544 159.172 430.744 165.763L429.915 168.345C429.915 168.345 430.602 171.358 428.227 170.956L428.235 170.949Z" fill="#263238"/>
<path opacity="0.7" d="M428.235 170.949C428.235 170.949 422.471 162.743 415.429 158.919C407.634 154.685 401.93 155.943 401.93 155.943C401.93 155.943 400.593 154.641 401.452 153.904C402.31 153.167 403.109 153.815 403.109 153.815C403.109 153.815 411.472 144.939 421.448 147.773C431.431 150.608 434.753 156.754 434.35 157.2C432.297 159.469 431.117 155.95 431.117 155.95C431.117 155.95 433.544 159.172 430.744 165.763L429.915 168.345C429.915 168.345 430.602 171.358 428.227 170.956L428.235 170.949Z" fill="white"/>
<path d="M415.265 158.554C414.198 158.197 413.406 157.133 413.376 156.009C413.354 155.273 413.623 154.566 413.817 153.852C414.004 153.137 414.108 152.349 413.772 151.687C413.481 151.129 412.876 150.742 412.241 150.719C411.607 150.697 410.98 151.039 410.651 151.575C410.89 151.129 410.726 150.563 410.397 150.184C410.069 149.804 409.598 149.574 409.143 149.358C408.329 148.964 407.411 148.554 406.537 148.815C405.663 149.075 405.118 149.931 404.812 150.786C404.424 151.888 404.319 153.123 404.715 154.216C405.245 155.689 406.612 156.731 408.083 157.267C409.553 157.802 411.144 157.892 412.712 157.981" fill="#263238"/>
<path opacity="0.2" d="M431.438 156.523C431.438 156.523 430.303 152.751 425.621 150.861L431.438 156.523Z" fill="#1F2D20"/>
<path opacity="0.3" d="M429.37 168.181C426.555 162.676 420.672 157.118 414.721 154.35L414.803 154.179C420.784 156.962 426.705 162.549 429.542 168.092L429.378 168.174L429.37 168.181Z" fill="#1F2D20"/>
<path d="M405.119 175.198C405.731 176.269 406.261 177.392 406.717 178.538C406.926 178.493 407.15 178.456 407.359 178.397C410.256 177.749 411.391 176.5 411.749 175.302C411.913 174.714 411.943 174.096 411.824 173.494C411.764 173.152 411.66 172.824 411.51 172.512C410.181 173.769 407.531 174.58 406.097 174.952C405.47 175.086 405.111 175.19 405.111 175.19L405.119 175.198Z" fill="#263238"/>
<path d="M406.066 174.93L406.567 175.904C409.285 175.287 411.121 174.506 411.793 173.471C411.734 173.129 411.629 172.802 411.48 172.489C410.143 173.761 407.5 174.558 406.066 174.93Z" fill="white"/>
<path d="M407.322 178.374C410.219 177.727 411.354 176.477 411.713 175.279C410.615 175.547 409.577 176.001 408.644 176.626C408.032 177.057 407.569 177.668 407.322 178.367V178.374Z" fill="#C15854"/>
<path d="M371.347 296.298L352.584 299.877L349.328 292.214L368.965 285.473L371.347 296.298Z" fill="#EBB373"/>
<path d="M344.317 304.029L341.614 298.858C341.614 298.858 342.309 297.861 341.771 296.752C341.465 296.127 339.852 295.13 339.852 295.13L332.318 280.965C332.318 280.965 333.289 280.444 333.797 280.384C334.409 280.302 334.962 280.295 335.462 280.347C337.202 280.526 338.605 281.835 339.613 282.839C341.293 284.521 347.058 288.635 347.058 288.635C347.058 288.635 348.678 289.595 351.164 289.446C352.553 289.364 353.68 289.848 354.084 290.421C354.912 291.589 354.532 292.675 353.456 293.464L352.202 294.379C351.963 295.725 352.665 296.968 354.091 297.459C354.091 297.459 357.07 299.289 355.652 299.847C354.838 300.16 351.157 301.439 348.275 302.533C347.603 302.786 346.968 303.032 346.408 303.24C345.168 303.709 344.325 304.029 344.325 304.029H344.317Z" fill="#263238"/>
<path d="M344.079 286.344C344.168 286.381 344.228 286.47 344.22 286.567C344.191 287.013 344.041 287.46 343.765 287.847C343.623 288.048 343.272 287.847 343.414 287.638C343.653 287.296 343.787 286.909 343.817 286.515C343.825 286.381 343.952 286.299 344.071 286.344H344.079Z" fill="#207733"/>
<path d="M345.25 287.125C345.34 287.162 345.4 287.252 345.392 287.348C345.362 287.795 345.213 288.241 344.937 288.628C344.795 288.829 344.444 288.628 344.586 288.42C344.825 288.077 344.959 287.69 344.989 287.296C344.997 287.162 345.123 287.08 345.243 287.125H345.25Z" fill="#207733"/>
<path d="M346.401 287.965C346.49 287.995 346.55 288.092 346.543 288.189C346.513 288.635 346.363 289.081 346.087 289.468C345.945 289.669 345.594 289.468 345.736 289.26C345.975 288.918 346.11 288.531 346.139 288.137C346.147 288.003 346.274 287.921 346.393 287.965H346.401Z" fill="#207733"/>
<path opacity="0.2" d="M341.771 296.752C341.465 296.127 339.852 295.13 339.852 295.13L332.318 280.965C332.318 280.965 333.289 280.444 333.797 280.384C334.08 280.347 334.349 280.332 334.603 280.325L346.722 303.121C346.617 303.158 346.505 303.203 346.408 303.24C345.168 303.709 344.317 304.029 344.317 304.029L341.614 298.858C341.614 298.858 342.309 297.861 341.771 296.752Z" fill="white"/>
<path d="M346.183 288.337L346.213 288.166C346.288 287.779 346.564 286.492 346.908 286.016C347.258 285.533 347.751 285.22 348.266 285.153C348.55 285.116 348.924 285.175 349.088 285.451C349.215 285.659 349.2 285.957 349.036 286.284C348.797 286.753 348.401 287.169 347.856 287.519C347.378 287.831 346.848 288.047 346.34 288.263L346.176 288.33L346.183 288.337ZM348.431 285.332C348.386 285.332 348.341 285.332 348.296 285.339C347.833 285.399 347.385 285.689 347.064 286.128C346.825 286.455 346.594 287.296 346.437 288.032C346.893 287.839 347.348 287.638 347.766 287.37C348.281 287.035 348.655 286.649 348.879 286.21C348.953 286.053 349.065 285.763 348.938 285.555C348.841 285.391 348.632 285.332 348.438 285.332H348.431Z" fill="#207733"/>
<path d="M348.872 290.116C348.543 290.116 348.207 290.034 347.879 289.877C347.356 289.624 346.505 288.605 346.258 288.3L346.146 288.166L346.318 288.151C346.878 288.107 347.446 288.055 348.013 288.107C348.663 288.166 349.2 288.352 349.633 288.657C349.932 288.866 350.089 289.119 350.066 289.372C350.044 289.699 349.745 289.922 349.477 290.019C349.282 290.086 349.073 290.123 348.864 290.123L348.872 290.116ZM346.52 288.315C347.005 288.895 347.602 289.528 347.961 289.706C348.446 289.944 348.984 289.989 349.417 289.833C349.633 289.751 349.872 289.587 349.887 289.349C349.902 289.104 349.671 288.903 349.529 288.799C349.126 288.516 348.618 288.337 347.998 288.285C347.505 288.241 347.005 288.27 346.512 288.315H346.52Z" fill="#207733"/>
<path d="M441.944 285.652C445.819 279.082 454.495 261.323 435.739 258.466C416.99 255.609 355.547 286.946 355.547 286.946L359.848 298.679L417.58 287.861C417.58 287.861 409.956 298.649 419.566 297.89C433.529 296.097 436.792 292.66 441.944 285.652Z" fill="#263238"/>
<path opacity="0.2" d="M416.214 288.219L431.976 282.765C431.976 282.765 418.864 291.291 413.996 292.407L416.206 288.219H416.214Z" fill="#1F2D20"/>
<path d="M301.271 130.959L306.916 124.449L312.666 126.472L308.746 134.091L301.271 130.959Z" fill="#EEC1BB"/>
<path d="M306.066 123.906C306.066 123.906 305.573 120.959 307.044 118.965C308.507 116.972 309.149 114.992 310.337 113.586C311.531 112.18 311.554 114.665 311.3 115.989C311.046 117.314 310.77 118.817 311.8 118.846C312.83 118.876 320.633 114.702 322.059 114.911C323.485 115.112 322.433 116.183 322.433 116.183C322.433 116.183 324.359 115.223 324.949 115.878C325.106 116.049 325.18 116.689 324.374 117.269C322.56 118.564 318.602 121.086 318.602 121.086C318.826 120.937 323.926 118.169 324.747 117.857C325.815 117.448 326.532 117.797 326.748 118.422C327.062 119.315 320.85 122.953 320.7 123.288C320.7 123.288 324.202 121.071 325.27 121.659C326.338 122.247 324.21 123.764 322.082 124.739C320.125 125.639 316.526 127.908 314.451 128.63C311.89 129.515 309.978 129.545 308.224 127.715C306.469 125.885 306.066 123.913 306.066 123.913V123.906Z" fill="#EEC1BB"/>
<path opacity="0.3" d="M317.75 119.025C317.75 119.025 317.691 119.01 317.676 118.981C317.646 118.936 317.661 118.876 317.706 118.854C319.147 117.909 320.647 117.024 322.163 116.22C322.208 116.198 322.268 116.22 322.29 116.258C322.313 116.302 322.29 116.362 322.253 116.384C320.744 117.188 319.244 118.073 317.81 119.01C317.795 119.018 317.78 119.025 317.758 119.025H317.75Z" fill="#1F2D20"/>
<path opacity="0.3" d="M319.409 124.322C319.364 124.322 319.327 124.293 319.32 124.248C318.827 122.113 317.677 120.104 316.087 118.593C316.049 118.556 316.049 118.497 316.087 118.46C316.124 118.422 316.184 118.422 316.221 118.46C317.841 119.992 319.014 122.038 319.514 124.211C319.529 124.263 319.491 124.307 319.447 124.322C319.447 124.322 319.432 124.322 319.424 124.322H319.409Z" fill="#1F2D20"/>
<path opacity="0.3" d="M309.964 124.784C309.964 124.784 309.904 124.769 309.881 124.739C309.859 124.694 309.874 124.635 309.919 124.612C310.68 124.174 311.285 123.444 311.591 122.619C311.897 121.793 311.897 120.848 311.606 120.022C311.591 119.97 311.614 119.918 311.666 119.903C311.718 119.888 311.77 119.91 311.785 119.962C312.092 120.833 312.092 121.822 311.77 122.686C311.457 123.549 310.815 124.315 310.016 124.776C310.001 124.784 309.986 124.791 309.971 124.791L309.964 124.784Z" fill="#1F2D20"/>
<path d="M325.882 236.748L328.801 228.036L307.678 216.295L303.094 229.509L325.882 236.748Z" fill="#EEC1BB"/>
<path d="M326.197 225L324.644 227.872C324.293 228.519 324.3 229.301 324.621 229.97C325.995 232.842 324.472 233.631 321.358 234.285C320.604 235.357 321.762 236.376 322.06 236.659L328.743 243.005C329.295 243.541 330.184 243.533 330.722 242.975C330.819 242.879 330.901 242.767 330.961 242.64C332.842 239.151 333.731 237.499 336.075 233.154L343.243 219.874C345.199 216.251 341.937 213.543 340.794 214.852C335.687 220.759 331.147 224.45 328.071 225.476C327.518 225.677 327.474 225.142 326.189 224.993L326.197 225Z" fill="#263238"/>
<path d="M331.788 219.956C331.736 219.539 331.482 219.167 331.109 218.966C330.922 218.832 330.676 218.817 330.474 218.929C329.347 219.487 329.093 223.981 329.078 224.494C329.071 224.546 329.086 224.598 329.123 224.643C329.19 224.717 329.302 224.725 329.377 224.658C330.064 223.884 330.668 223.051 331.176 222.151C331.609 221.503 331.826 220.737 331.788 219.963V219.956ZM330.624 219.294C330.706 219.241 330.818 219.256 330.892 219.316C331.154 219.472 331.333 219.74 331.385 220.038C331.557 221.183 330.228 223.014 329.459 223.966C329.601 222.121 330.004 219.606 330.624 219.294Z" fill="#207733"/>
<path d="M329.482 224.547C329.609 223.222 329.049 220.016 328.048 219.629C327.839 219.539 327.526 219.554 327.197 220.008C325.905 221.861 329.004 224.599 329.153 224.68C329.206 224.733 329.28 224.747 329.347 224.725C329.377 224.695 329.4 224.658 329.407 224.613L329.482 224.547ZM327.451 220.231C327.682 219.889 327.817 219.956 327.862 219.978C328.489 220.179 329.086 222.62 329.071 224.122C328.377 223.438 326.689 221.6 327.369 220.358L327.451 220.231Z" fill="#207733"/>
<path d="M329.766 227.664C329.699 227.664 329.639 227.626 329.602 227.567C329.012 226.533 328.907 225.246 329.326 224.122C329.363 224.025 329.467 223.973 329.565 224.011C329.662 224.048 329.706 224.152 329.677 224.249C329.296 225.268 329.393 226.436 329.923 227.381C329.975 227.47 329.945 227.582 329.856 227.634C329.826 227.649 329.796 227.656 329.766 227.656V227.664Z" fill="#207733"/>
<path d="M332.073 226.6C332.006 226.6 331.946 226.562 331.908 226.503C331.319 225.469 331.214 224.182 331.632 223.058C331.67 222.961 331.774 222.917 331.871 222.947C331.968 222.984 332.013 223.088 331.983 223.185C331.602 224.204 331.692 225.372 332.23 226.317C332.282 226.406 332.252 226.518 332.162 226.57C332.132 226.585 332.103 226.592 332.073 226.592V226.6Z" fill="#207733"/>
<path d="M334.411 224.985C334.343 224.985 334.284 224.948 334.246 224.889C333.657 223.855 333.552 222.567 333.97 221.444C334.007 221.347 334.112 221.295 334.209 221.332C334.306 221.37 334.351 221.474 334.321 221.57C333.94 222.59 334.037 223.758 334.567 224.703C334.62 224.792 334.59 224.904 334.5 224.956C334.47 224.971 334.441 224.978 334.411 224.978V224.985Z" fill="#207733"/>
<path opacity="0.3" d="M318.842 222.5L321.433 223.944L317.416 234.055L314.385 233.095L318.842 222.5Z" fill="#1F2D20"/>
<path d="M260.139 178.322L270.674 184.743C284.204 185.412 329.93 185.784 330.064 201.996C334.552 221.102 293.149 219.279 265.619 219.547C265.433 219.547 265.276 219.658 265.164 219.837C264.917 220.216 262.252 221.578 258.84 222.121C254.636 222.783 245.026 223.371 238.851 222.396C228.196 220.715 225.128 210.634 227.166 196.453C228.002 190.628 231.235 185.896 232.213 178.634L260.139 178.329V178.322Z" fill="#263238"/>
<path opacity="0.2" d="M231.266 199.883L231.333 200.545C231.333 200.545 266.157 194.802 287.37 208.692C287.37 208.692 310.36 203.075 315.034 198.797C289.573 212.144 266.77 196.691 266.77 196.691L255.54 191.692C246.363 187.607 237.119 190.724 231.273 199.883H231.266Z" fill="#1F2D20"/>
<path d="M270.689 222.359L274.714 230.617L298.055 224.301L292.067 211.653L270.689 222.359Z" fill="#EEC1BB"/>
<path d="M279.866 230.439L277.94 227.798C277.507 227.202 276.797 226.868 276.058 226.868C272.862 226.86 272.818 225.142 273.564 222.069C272.922 220.931 271.503 221.526 271.115 221.675L262.476 224.926C261.752 225.194 261.379 225.99 261.64 226.719C261.685 226.845 261.752 226.972 261.834 227.076C264.171 230.283 265.284 231.793 268.196 235.781L277.103 247.975C279.53 251.301 283.398 249.552 282.703 247.953C279.575 240.803 278.209 235.126 278.612 231.919C278.671 231.339 279.172 231.533 279.866 230.439Z" fill="#263238"/>
<path d="M281.994 237.648C282.397 237.782 282.837 237.715 283.188 237.47C283.39 237.358 283.509 237.143 283.494 236.919C283.479 235.669 279.522 233.49 279.074 233.251C279.029 233.222 278.969 233.214 278.917 233.229C278.82 233.259 278.768 233.356 278.79 233.452C279.186 234.405 279.686 235.305 280.276 236.153C280.672 236.823 281.277 237.343 281.994 237.648ZM283.091 236.89C283.091 236.986 283.046 237.076 282.957 237.12C282.695 237.284 282.382 237.336 282.091 237.254C280.978 236.912 279.903 234.925 279.373 233.824C280.978 234.754 283.084 236.205 283.099 236.897L283.091 236.89Z" fill="#207733"/>
<path d="M278.842 233.586C279.977 234.278 283.128 235.163 283.912 234.427C284.084 234.278 284.204 233.995 283.935 233.504C282.822 231.548 278.999 233.132 278.857 233.236C278.79 233.259 278.738 233.318 278.73 233.393C278.745 233.437 278.768 233.467 278.805 233.497L278.835 233.594L278.842 233.586ZM283.621 233.638C283.83 233.995 283.711 234.085 283.666 234.114C283.21 234.591 280.754 234.07 279.395 233.408C280.321 233.08 282.703 232.366 283.539 233.512L283.621 233.638Z" fill="#207733"/>
<path d="M279.157 233.943C279.105 233.943 279.06 233.921 279.023 233.884C278.269 233.102 277.171 232.678 276.088 232.753C275.984 232.768 275.894 232.678 275.887 232.582C275.887 232.477 275.954 232.388 276.058 232.381C277.253 232.291 278.463 232.768 279.292 233.631C279.366 233.705 279.359 233.824 279.292 233.891C279.254 233.928 279.209 233.943 279.165 233.943H279.157Z" fill="#207733"/>
<path d="M279.119 236.48C279.066 236.48 279.021 236.458 278.984 236.421C278.23 235.64 277.132 235.215 276.05 235.29C275.96 235.305 275.856 235.223 275.848 235.119C275.841 235.015 275.923 234.925 276.02 234.918C277.215 234.836 278.424 235.305 279.253 236.168C279.328 236.242 279.32 236.361 279.253 236.428C279.216 236.465 279.171 236.48 279.126 236.48H279.119Z" fill="#207733"/>
<path d="M279.567 239.27C279.515 239.27 279.47 239.248 279.433 239.211C278.679 238.43 277.581 238.006 276.498 238.08C276.409 238.095 276.304 238.013 276.297 237.909C276.297 237.805 276.364 237.715 276.469 237.708C277.663 237.619 278.873 238.095 279.702 238.958C279.776 239.032 279.769 239.151 279.702 239.218C279.664 239.255 279.62 239.27 279.575 239.27H279.567Z" fill="#207733"/>
<path d="M319.58 221.757C319.58 221.757 265.977 191.855 247.564 191.29C229.152 190.724 227.068 204.563 233.841 215.224C240.613 225.878 257.607 220.715 257.607 220.715C257.607 220.715 244.167 217.322 245.832 213.692C247.497 210.061 252.462 215.693 252.462 215.693C252.462 215.693 285.032 229.018 314.092 233.742L319.588 221.757H319.58Z" fill="#263238"/>
<path opacity="0.2" d="M291.961 206.951L309.216 216.876L311.038 216.682L294.701 206.43L291.961 206.951Z" fill="#1F2D20"/>
<path opacity="0.2" d="M264.582 220.261C264.582 220.261 247.192 213.387 247.386 213.387C247.581 213.387 258.347 221.429 261.872 221.392L264.582 220.261Z" fill="#1F2D20"/>
<path d="M268.269 126.666C268.269 126.666 270.367 126.182 278.058 135.118C283.277 141.181 291.207 145.645 291.207 145.645C291.886 144.187 303.87 126.666 303.87 126.666L311.494 130.981C311.494 130.981 300.301 159.818 293.021 160.957C285.741 162.088 268.777 147.513 268.777 147.513L268.262 126.673L268.269 126.666Z" fill="#207733"/>
<path d="M226.426 137.268C229.741 147.193 229.898 169.617 228.726 182.005H269.74C276.206 157.289 270.606 139.716 270.054 133.927C269.367 126.882 268.277 126.614 268.277 126.614C268.277 126.614 260.608 125.87 253.933 125.922C248.766 126.115 243.614 126.673 238.529 127.589C234.744 128.221 230.996 129.062 227.3 130.103C225.717 130.55 224.798 132.194 225.246 133.779C225.261 133.831 225.276 133.875 225.291 133.927C225.687 135.036 226.068 136.174 226.426 137.275V137.268Z" fill="#207733"/>
<path opacity="0.2" d="M228.719 182.004C229.697 170.465 237.208 157.155 236.029 145.638C239.516 150.578 240.673 160.272 242.092 171.097C242.554 174.624 255.397 178.188 256.002 181.833L228.719 182.004Z" fill="#1F2D20"/>
<path d="M235.206 128.905C233.295 131.628 256.807 136.01 256.807 136.01C256.807 136.01 270.568 127.112 254.5 125.728C251.222 125.438 238.23 124.627 235.206 128.905Z" fill="#CD877B"/>
<path d="M257.578 141.055C257.578 141.055 270.249 130.639 263.693 124.396C257.137 118.162 226.27 115.372 228.883 129.575C228.883 129.575 232.855 128.407 236.865 132.216C245.317 140.273 257.585 141.055 257.585 141.055H257.578Z" fill="#207733"/>
<path opacity="0.2" d="M256.517 138.057C256.517 138.057 263.692 132.506 261.161 127.499C258.637 122.499 243.711 117.016 233.012 123.913C235.573 125.223 237.962 126.859 240.098 128.779C244.339 132.395 256.509 138.049 256.509 138.049L256.517 138.057Z" fill="#1F2D20"/>
<path opacity="0.2" d="M253.791 138.763C253.791 139.158 253.477 139.485 253.082 139.485C252.686 139.485 252.357 139.173 252.357 138.778C252.357 138.384 252.671 138.057 253.067 138.057C253.067 138.057 253.082 138.057 253.089 138.057C253.477 138.057 253.791 138.377 253.798 138.763H253.791Z" fill="#1F2D20"/>
<path opacity="0.2" d="M260.945 136.71C260.945 137.097 260.639 137.417 260.251 137.424H260.243C259.847 137.469 259.489 137.193 259.444 136.799C259.399 136.405 259.676 136.048 260.071 136.003C260.131 136.003 260.183 136.003 260.243 136.003C260.631 136.003 260.952 136.315 260.952 136.71H260.945Z" fill="#1F2D20"/>
<path d="M267.605 143.86C267.605 144.254 267.292 144.581 266.896 144.581C266.5 144.581 266.172 144.269 266.172 143.875C266.172 143.48 266.485 143.153 266.881 143.153H266.889C267.284 143.153 267.598 143.465 267.605 143.86Z" fill="#263238"/>
<path d="M252.171 147.505C252.171 147.892 251.857 148.212 251.461 148.212C251.073 148.212 250.752 147.899 250.752 147.505C250.752 147.111 251.066 146.798 251.461 146.798C251.85 146.798 252.171 147.111 252.171 147.505Z" fill="#263238"/>
<path d="M266.724 144.157C266.724 144.157 263.946 143.785 263.469 140.251C263.409 138.54 262.005 137.186 260.288 137.194C260.146 137.194 260.019 137.089 260.019 136.948C260.004 136.814 260.109 136.688 260.25 136.68H260.273C262.244 136.68 263.879 138.213 263.991 140.177C264.409 143.287 266.769 143.637 266.784 143.644C266.926 143.659 267.023 143.785 267.015 143.927C266.993 144.068 266.866 144.165 266.724 144.157Z" fill="#263238"/>
<path d="M251.462 147.505C251.32 147.505 251.208 147.393 251.201 147.26C251.141 145.444 251.813 143.673 253.06 142.349C253.553 141.918 253.837 141.308 253.859 140.66C253.807 140.013 253.523 139.395 253.068 138.934C252.948 138.852 252.926 138.689 253.008 138.57C253.09 138.451 253.254 138.428 253.374 138.51C253.396 138.525 253.411 138.54 253.426 138.562C253.986 139.113 254.329 139.849 254.382 140.631C254.367 141.419 254.023 142.171 253.433 142.699C252.299 143.919 251.679 145.541 251.716 147.207C251.716 147.349 251.619 147.468 251.477 147.49L251.455 147.513L251.462 147.505Z" fill="#263238"/>
<path d="M279.029 201.051L281.09 201.423C281.09 201.423 280.515 199.578 287.825 197.16C295.135 194.742 302.407 193.432 302.407 193.432C302.407 193.432 289.199 192.77 288.855 192.77C288.512 192.77 276.289 197.093 276.289 197.093L279.029 201.043V201.051Z" fill="#207733"/>
<path d="M273.803 187.614C274.169 187.614 302.415 193.432 302.415 193.432C302.415 193.432 282.778 192.718 279.037 201.051L256.174 191.699C256.174 191.699 262.58 187.451 273.803 187.622V187.614Z" fill="#EBEBEB"/>
<path d="M321.433 187.614V188.842C321.433 188.842 308.747 187.376 302.408 193.44L302.064 190.531L310.472 186.684L321.433 187.614Z" fill="#207733"/>
<path d="M295.769 181.93C295.769 181.93 280.448 177.89 274.811 187.808L302.407 193.44C302.407 193.44 303.684 185.881 321.432 187.614L295.769 181.93Z" fill="#EBEBEB"/>
<path d="M226.083 130.735C225.433 130.966 221.229 134.47 221.431 142.684C221.73 154.722 224.701 179.661 226.083 182.004C227.464 184.348 264.028 194.556 264.573 195.151C265.118 195.746 267.015 188.79 267.015 188.79L238.858 170.993C238.858 170.993 237.193 145.92 236.528 142.163C235.864 138.406 233.945 127.923 226.083 130.735Z" fill="#207733"/>
<path d="M266.693 189.928L268.268 190.635C268.268 190.635 275.72 190.047 277.609 191.922C279.498 193.797 280.558 202.36 280.558 202.36L264.572 195.151L266.693 189.928Z" fill="#EEC1BB"/>
<path d="M240.905 129.709C240.905 129.709 244.302 131.948 249.096 134.85C250.096 135.453 255.189 137.692 256.301 138.057L258.362 136.293C258.466 135.981 258.526 135.646 258.556 135.304C258.765 132.997 258.011 129.932 255.98 128.809C253.688 127.544 252.486 126.331 252.493 124.099C252.478 122.834 252.717 121.495 253.031 120.171L250.462 119.159L240.748 112.173C242.555 117.143 244.78 125.944 240.905 129.701V129.709Z" fill="#EEC1BB"/>
<path opacity="0.2" d="M252.499 124.59C249.983 123.615 247.086 121.688 246.936 118.95C246.884 117.797 246.944 116.689 247.108 115.959L252.775 121.316C252.559 122.365 252.529 123.042 252.499 124.582V124.59Z" fill="#1F2D20"/>
<path d="M237.559 103.014C239.762 111.399 240.516 114.985 245.675 118.72C253.433 124.337 263.259 120.386 263.603 111.652C263.916 103.795 260.258 91.4001 251.268 89.2128C242.412 87.0552 235.349 94.6291 237.559 103.014Z" fill="#EEC1BB"/>
<path d="M249.544 103.9C249.738 104.792 250.35 105.454 250.91 105.373C251.477 105.291 251.776 104.502 251.582 103.609C251.388 102.717 250.776 102.054 250.216 102.136C249.648 102.218 249.349 103.007 249.544 103.9Z" fill="#263238"/>
<path d="M258.211 102.411C258.398 103.274 259.01 103.914 259.57 103.832C260.13 103.75 260.436 102.984 260.249 102.114C260.063 101.251 259.45 100.611 258.89 100.693C258.33 100.774 258.024 101.541 258.211 102.411Z" fill="#263238"/>
<path d="M246.781 101.109C246.893 101.109 246.998 101.057 247.072 100.961C248.185 99.5247 249.738 99.7107 249.76 99.7107C249.992 99.7405 250.193 99.5768 250.208 99.3462C250.223 99.1155 250.044 98.9072 249.805 98.87C249.723 98.8626 247.774 98.6319 246.393 100.41C246.258 100.589 246.296 100.856 246.482 101.005C246.572 101.08 246.684 101.109 246.789 101.102L246.781 101.109Z" fill="#263238"/>
<path d="M259.638 97.7836C259.72 97.7389 259.78 97.6646 259.803 97.5678C259.847 97.3595 259.713 97.1363 259.496 97.0545C257.361 96.2807 256.054 97.3595 255.995 97.4042C255.838 97.5381 255.838 97.7836 255.995 97.9622C256.151 98.1407 256.398 98.1779 256.555 98.044C256.607 97.9994 257.637 97.1884 259.332 97.7985C259.444 97.8357 259.549 97.8282 259.638 97.7836Z" fill="#263238"/>
<path d="M255.15 102.493C255.15 102.493 257.017 105.462 258.861 107.195C259.182 107.5 259.108 108.036 258.719 108.252C257.726 108.817 256.435 108.668 256.435 108.668L255.15 102.493Z" fill="#D4827D"/>
<path d="M249.902 102.226L251.784 101.437C251.784 101.437 250.955 103.074 249.902 102.226Z" fill="#263238"/>
<path d="M258.602 100.782L260.483 99.9937C260.483 99.9937 259.654 101.63 258.602 100.782Z" fill="#263238"/>
<path d="M241.226 114.167C212.576 96.4892 244.601 84.481 244.601 84.481C257.466 75.501 257.914 89.1534 257.914 89.1534C264.358 95.8568 255.233 101.72 255.233 101.72C259.079 96.2065 253.128 92.918 253.128 92.918C254.039 100.246 246.871 103.118 246.871 103.118C249.678 96.5115 247.886 93.0891 247.886 93.0891C245.833 104.867 239.919 107.233 239.919 107.233L241.226 114.167Z" fill="#263238"/>
<path d="M236.133 110.387C237.432 111.964 239.254 112.79 240.822 112.917C243.182 113.11 243.742 109.286 242.592 107.158C241.554 105.239 239.112 104.264 236.984 105.075C234.886 105.871 234.647 108.587 236.133 110.387Z" fill="#EEC1BB"/>
<path opacity="0.2" d="M241.785 109.219C241.703 109.219 241.628 109.16 241.606 109.078C241.434 108.408 241.083 107.783 240.583 107.285C240.262 106.957 239.739 106.556 239.097 106.489C238.515 106.429 237.932 106.697 237.708 107.136C237.664 107.225 237.552 107.262 237.455 107.218C237.365 107.173 237.328 107.061 237.373 106.965C237.671 106.392 238.395 106.035 239.135 106.117C239.889 106.198 240.486 106.652 240.852 107.024C241.397 107.575 241.778 108.252 241.964 108.988C241.987 109.085 241.927 109.189 241.83 109.212C241.815 109.212 241.8 109.212 241.785 109.212V109.219Z" fill="#1F2D20"/>
<path d="M256.285 111.756C255.643 112.582 255.053 113.46 254.538 114.375C254.366 114.315 254.187 114.249 254.015 114.182C251.663 113.289 250.857 112.098 250.7 111.049C250.633 110.536 250.685 110.008 250.857 109.517C250.947 109.241 251.074 108.974 251.238 108.728C252.201 109.948 254.329 110.945 255.486 111.436C255.994 111.622 256.285 111.756 256.285 111.756Z" fill="#263238"/>
<path d="M255.524 111.421L254.986 112.18C252.776 111.332 251.335 110.454 250.895 109.502C250.984 109.226 251.111 108.958 251.275 108.713C252.246 109.94 254.367 110.93 255.524 111.421Z" fill="white"/>
<path d="M254.046 114.166C251.694 113.274 250.887 112.083 250.73 111.034C251.619 111.391 252.44 111.897 253.15 112.537C253.613 112.976 253.926 113.541 254.046 114.159V114.166Z" fill="#C15854"/>
<path d="M193.559 289.743L203.153 307.227L211.531 304.743L203.922 284.454L193.559 289.743Z" fill="#895555"/>
<path d="M205.296 316.646L211.284 315.374C211.284 315.374 211.628 314.154 212.889 313.849C213.599 313.678 215.48 314.31 215.48 314.31L231.982 310.94C231.982 310.94 231.75 309.809 231.466 309.363C231.123 308.812 230.757 308.366 230.384 307.994C229.077 306.714 227.084 306.454 225.598 306.312C223.111 306.074 215.943 304.184 215.943 304.184C215.943 304.184 214.084 303.522 212.546 301.417C211.687 300.249 210.545 299.654 209.813 299.713C208.32 299.825 207.693 300.851 207.767 302.243L207.857 303.857C206.924 304.951 205.453 305.204 204.101 304.393C204.101 304.393 200.629 303.217 201.129 304.728C201.413 305.591 202.832 309.407 203.862 312.45C204.101 313.157 204.333 313.834 204.527 314.422C204.967 315.731 205.273 316.632 205.273 316.632L205.296 316.646Z" fill="#263238"/>
<path d="M219.789 305.063C219.699 305.01 219.587 305.025 219.513 305.1C219.169 305.427 218.915 305.836 218.781 306.32C218.714 306.573 219.117 306.714 219.184 306.461C219.304 306.037 219.528 305.673 219.826 305.39C219.923 305.293 219.916 305.144 219.796 305.07L219.789 305.063Z" fill="#207733"/>
<path d="M218.377 304.638C218.287 304.586 218.175 304.601 218.101 304.675C217.757 305.003 217.503 305.412 217.369 305.896C217.302 306.149 217.705 306.29 217.772 306.037C217.892 305.613 218.116 305.248 218.414 304.966C218.511 304.869 218.504 304.72 218.384 304.646L218.377 304.638Z" fill="#207733"/>
<path d="M216.93 304.274C216.84 304.222 216.728 304.237 216.653 304.311C216.31 304.639 216.056 305.048 215.922 305.531C215.854 305.784 216.258 305.926 216.325 305.673C216.444 305.249 216.668 304.884 216.967 304.601C217.064 304.505 217.057 304.356 216.937 304.281L216.93 304.274Z" fill="#207733"/>
<path opacity="0.2" d="M212.889 313.849C213.599 313.678 215.48 314.31 215.48 314.31L231.982 310.94C231.982 310.94 231.75 309.809 231.466 309.363C231.31 309.11 231.145 308.887 230.981 308.671L204.43 314.102C204.467 314.206 204.504 314.325 204.542 314.429C204.982 315.739 205.288 316.639 205.288 316.639L211.277 315.367C211.277 315.367 211.62 314.147 212.882 313.842L212.889 313.849Z" fill="white"/>
<path d="M216.78 304.691L216.728 304.519C216.564 303.961 216.392 303.389 216.325 302.801C216.25 302.131 216.325 301.536 216.542 301.03C216.698 300.68 216.922 300.472 217.176 300.435C217.512 300.39 217.803 300.643 217.96 300.896C218.244 301.357 218.319 301.96 218.162 302.563C218.012 303.15 217.146 304.237 216.885 304.549L216.773 304.683L216.78 304.691ZM217.258 300.621C217.258 300.621 217.221 300.621 217.206 300.621C216.945 300.658 216.788 300.941 216.713 301.104C216.504 301.573 216.437 302.139 216.512 302.778C216.571 303.292 216.713 303.805 216.863 304.296C217.355 303.679 217.886 302.927 217.99 302.518C218.132 301.967 218.065 301.409 217.811 301C217.691 300.807 217.49 300.621 217.266 300.621H217.258Z" fill="#207733"/>
<path d="M216.594 304.601C216.064 304.601 214.891 304.571 214.391 304.348C213.824 304.095 213.398 303.656 213.219 303.15C213.122 302.868 213.099 302.481 213.346 302.25C213.532 302.072 213.839 302.027 214.212 302.124C214.742 302.265 215.25 302.578 215.735 303.061C216.153 303.485 216.497 303.976 216.825 304.452L216.922 304.594H216.743C216.698 304.594 216.646 304.594 216.586 304.594L216.594 304.601ZM213.846 302.258C213.712 302.258 213.577 302.287 213.473 302.384C213.286 302.555 213.308 302.86 213.391 303.091C213.555 303.552 213.943 303.946 214.466 304.185C214.854 304.356 215.772 304.423 216.564 304.423C216.265 303.999 215.959 303.567 215.593 303.202C215.138 302.749 214.652 302.444 214.16 302.317C214.077 302.295 213.965 302.272 213.846 302.272V302.258Z" fill="#207733"/>
<path d="M153.897 302.562L149.514 322.011L157.451 325.656L165.179 305.412L153.897 302.562Z" fill="#895555"/>
<path d="M144.877 330.492L150.216 333.483C150.216 333.483 151.283 332.791 152.433 333.394C153.083 333.729 154.076 335.447 154.076 335.447L168.696 343.773C168.696 343.773 169.271 342.776 169.36 342.247C169.465 341.608 169.495 341.035 169.457 340.514C169.323 338.691 168.001 337.181 166.978 336.102C165.268 334.294 161.139 328.149 161.139 328.149C161.139 328.149 160.184 326.422 160.423 323.833C160.557 322.39 160.087 321.2 159.497 320.753C158.295 319.853 157.145 320.21 156.286 321.311L155.285 322.583C153.859 322.792 152.583 322.018 152.112 320.515C152.112 320.515 150.283 317.346 149.656 318.811C149.297 319.645 147.834 323.446 146.587 326.415C146.296 327.107 146.019 327.762 145.78 328.335C145.243 329.607 144.877 330.485 144.877 330.485V330.492Z" fill="#263238"/>
<path d="M163.439 331.325C163.41 331.228 163.313 331.169 163.208 331.169C162.738 331.191 162.267 331.333 161.849 331.6C161.633 331.742 161.842 332.114 162.058 331.972C162.431 331.734 162.842 331.608 163.253 331.586C163.395 331.586 163.484 331.459 163.439 331.325Z" fill="#207733"/>
<path d="M162.654 330.083C162.624 329.986 162.527 329.927 162.423 329.927C161.952 329.949 161.482 330.09 161.064 330.358C160.847 330.5 161.056 330.872 161.273 330.73C161.646 330.492 162.05 330.366 162.468 330.343C162.61 330.343 162.699 330.217 162.654 330.083Z" fill="#207733"/>
<path d="M161.818 328.855C161.789 328.759 161.691 328.699 161.587 328.699C161.117 328.722 160.646 328.863 160.228 329.131C160.011 329.272 160.221 329.644 160.437 329.503C160.81 329.265 161.214 329.138 161.632 329.116C161.774 329.116 161.863 328.989 161.818 328.855Z" fill="#207733"/>
<path opacity="0.2" d="M152.433 333.394C153.082 333.729 154.076 335.447 154.076 335.447L168.695 343.773C168.695 343.773 169.27 342.776 169.36 342.247C169.405 341.95 169.434 341.674 169.449 341.407L145.907 328.015C145.862 328.119 145.817 328.238 145.773 328.335C145.235 329.607 144.869 330.485 144.869 330.485L150.208 333.476C150.208 333.476 151.276 332.784 152.425 333.386L152.433 333.394Z" fill="white"/>
<path d="M161.422 329.064L161.497 328.908C161.743 328.379 161.989 327.836 162.333 327.353C162.721 326.795 163.169 326.4 163.669 326.17C164.013 326.013 164.326 325.998 164.543 326.14C164.827 326.326 164.879 326.713 164.827 327.003C164.737 327.531 164.394 328.037 163.878 328.387C163.371 328.729 162.004 328.974 161.601 329.041L161.429 329.071L161.422 329.064ZM164.177 326.222C164.013 326.222 163.849 326.281 163.744 326.333C163.274 326.549 162.855 326.928 162.482 327.457C162.183 327.881 161.952 328.357 161.735 328.826C162.519 328.684 163.415 328.469 163.766 328.23C164.237 327.911 164.558 327.449 164.64 326.973C164.677 326.735 164.647 326.43 164.438 326.296C164.364 326.244 164.274 326.229 164.185 326.229L164.177 326.222Z" fill="#207733"/>
<path d="M161.595 329.093L161.461 328.982C161.147 328.714 160.109 327.799 159.856 327.241C159.602 326.675 159.564 326.065 159.766 325.567C159.878 325.291 160.117 324.986 160.46 324.979H160.483C160.737 324.979 160.991 325.15 161.192 325.455C161.498 325.909 161.67 326.482 161.715 327.159C161.752 327.754 161.685 328.349 161.61 328.922L161.588 329.093H161.595ZM160.483 325.158H160.468C160.214 325.165 160.027 325.411 159.938 325.634C159.759 326.088 159.788 326.646 160.02 327.159C160.192 327.546 160.849 328.193 161.439 328.721C161.498 328.208 161.551 327.68 161.521 327.166C161.483 326.527 161.319 325.983 161.035 325.552C160.938 325.403 160.737 325.158 160.483 325.158Z" fill="#207733"/>
<path d="M161.557 175.517C161.557 175.517 164.327 200.084 165.067 201.401C167.568 205.857 184.151 213.498 184.151 213.498L192.604 211.735L198.659 216.772L194.665 219.889L189.975 218.126C187.422 218.58 184.823 218.81 182.225 218.803C177.857 218.803 156.801 213.483 153.292 207.636C149.775 201.788 148.162 174.699 148.162 174.699L161.557 175.517Z" fill="#895555"/>
<path d="M147.81 185.174C147.81 185.174 141.314 163.598 149.408 157.609C157.502 151.62 163.938 181.283 163.938 181.283L147.81 185.174Z" fill="#207733"/>
<path d="M152.933 224.636L152.873 196.044L152.253 156.895L136.11 154.596L122.357 154.469L103.75 160.235L103.361 169.84C103.361 169.84 105.28 213.952 105.176 215.284C105.041 216.913 104.631 229.018 104.631 229.018C125.843 233.832 153.269 226.102 152.933 224.643V224.636Z" fill="#207733"/>
<path opacity="0.2" d="M152.634 184.014L151.768 165.57L155.904 183.225L152.634 184.014Z" fill="#1F2D20"/>
<path opacity="0.2" d="M116.742 186.699C117.264 186.595 119.908 185.732 119.908 185.732L114.031 169.438L122.103 187.458L117.249 189.385L116.742 186.692V186.699Z" fill="#1F2D20"/>
<path d="M114.465 173.188C114.465 173.188 118.579 200.464 120.954 203.008C124.971 207.316 144.855 218.744 144.855 218.744L154.778 215.277C155.472 215.046 156.241 215.172 156.809 215.604L163.596 220.767L162.946 221.31C162.67 221.548 162.259 221.593 161.931 221.429L160.878 220.909L162.058 222.062L161.684 222.374C161.311 222.687 160.796 222.798 160.318 222.672L157.287 221.861L160.087 223.721C159.459 224.249 158.593 224.428 157.794 224.205L153.352 222.947C150.32 223.639 147.236 224.078 144.13 224.264C138.904 224.584 114.219 215.991 109.612 209.697C105.012 203.402 100.264 177.273 100.264 177.273L114.45 173.196L114.465 173.188Z" fill="#895555"/>
<path d="M101.331 191.327C101.331 191.327 95.178 166.611 103.272 160.622C111.366 154.633 119.385 185.903 119.385 185.903L101.331 191.327Z" fill="#207733"/>
<path d="M167.582 222.746H136.117C136.125 223.951 137.469 224.919 139.111 224.911H190.37C192.005 224.896 193.319 223.929 193.312 222.746H167.582Z" fill="#263238"/>
<path d="M190.84 224.792H162.094C161.601 224.792 161.198 224.465 161.205 224.07C161.205 223.996 161.22 223.921 161.25 223.854L174.04 194.638C174.361 193.804 175.325 193.231 176.415 193.231H205.176C205.662 193.231 206.057 193.544 206.057 193.938C206.057 194.02 206.043 194.102 206.005 194.176L193.215 223.393C192.886 224.226 191.931 224.792 190.84 224.799V224.792Z" fill="#263238"/>
<path opacity="0.7" d="M205.176 193.224H176.415C175.325 193.224 174.361 193.797 174.04 194.63L161.735 222.746H136.117C136.125 223.951 137.469 224.919 139.111 224.911H190.37C190.885 224.911 191.363 224.8 191.789 224.628C192.461 224.405 192.991 223.959 193.222 223.379L206.013 194.162C206.05 194.087 206.065 194.005 206.065 193.924C206.065 193.537 205.669 193.217 205.184 193.217L205.176 193.224Z" fill="white"/>
<path d="M187.898 208.781C187.279 210.18 186.017 211.147 185.076 210.946C184.135 210.745 183.889 209.473 184.486 208.067C185.091 206.661 186.36 205.723 187.301 205.917C188.242 206.11 188.518 207.338 187.891 208.781H187.898Z" fill="white"/>
<g opacity="0.3">
<path d="M174.034 194.638L161.729 222.753H163.058L176.408 193.231C175.318 193.231 174.355 193.804 174.034 194.638Z" fill="#1F2D20"/>
</g>
<path d="M144.519 120.543L145.43 121.071C146.49 121.094 147.491 121.89 147.737 122.924C147.984 123.95 147.461 125.119 146.528 125.624C146.386 125.699 146.221 125.781 146.177 125.93C146.095 126.175 146.356 126.376 146.543 126.547C147.498 127.373 147.379 129.002 146.52 129.925C145.661 130.847 144.295 131.145 143.041 131.041C142.712 127.499 144.825 124.077 144.519 120.543Z" fill="#263238"/>
<path d="M117.482 130.505C116.13 130.572 114.779 129.739 114.234 128.504C114.084 128.162 113.987 127.782 114.047 127.418C114.219 126.421 115.361 125.967 116.339 125.691C115.249 125.424 114.518 124.345 114.308 123.251C114.211 122.753 114.204 122.217 114.368 121.733C114.644 120.915 115.376 120.32 116.175 120C116.974 119.68 117.848 119.591 118.706 119.509L123.657 135.163C122.552 135.408 121.402 135.557 120.289 135.371C119.169 135.185 118.079 134.612 117.459 133.675C116.84 132.73 116.78 131.39 117.482 130.505Z" fill="#263238"/>
<path d="M120.252 155.124C124.822 151.24 124.605 140.467 123.784 134.612L136.813 145.861C136.499 146.523 136.231 147.208 136.014 147.907C135.574 149.157 135.462 150.496 135.693 151.798C135.924 152.877 137.134 155.875 137.134 155.875C137.134 155.875 137.784 159.231 128.928 159.067C125.031 159.417 120.267 155.124 120.267 155.124H120.252Z" fill="#895555"/>
<path opacity="0.2" d="M126.121 140.571C125.345 147.409 132.214 150.719 135.693 151.813C135.462 150.511 135.574 149.172 136.015 147.922L126.121 140.571Z" fill="#1F2D20"/>
<path d="M121.552 129.5C123.157 137.58 123.896 142.163 128.712 145.764C135.948 151.173 145.617 146.24 146.543 137.826C147.372 130.252 144.601 118.318 135.925 116.213C127.376 114.137 119.947 121.428 121.552 129.508V129.5Z" fill="#895555"/>
<path d="M119.177 119.844C119.73 115.208 131.34 113.676 134.894 115.551C135.425 115.833 128.996 120.059 129.392 119.858L126.3 121.361C125.785 121.317 124.882 122.009 124.576 123.571C124.576 123.571 126.621 136.011 123.448 140.095C120.327 139.083 119.491 134.158 118.169 131.331C116.198 127.12 113.674 120.9 119.185 119.851L119.177 119.844Z" fill="#263238"/>
<path d="M119.139 136.717C120.095 138.726 121.917 140.11 123.694 140.705C126.367 141.591 126.949 138.816 126.367 136.279C125.844 133.994 124.769 131.271 122.014 131.487C119.296 131.695 118.049 134.426 119.139 136.725V136.717Z" fill="#895555"/>
<path d="M132.872 129.91C132.984 130.743 133.529 131.353 134.096 131.279C134.656 131.204 135.022 130.46 134.91 129.627C134.798 128.794 134.253 128.184 133.686 128.258C133.126 128.332 132.76 129.076 132.872 129.91Z" fill="#263238"/>
<path d="M141.339 129.426C141.451 130.26 141.996 130.87 142.563 130.795C143.131 130.721 143.489 129.977 143.377 129.144C143.265 128.31 142.72 127.7 142.152 127.775C141.592 127.849 141.227 128.593 141.339 129.426Z" fill="#263238"/>
<path d="M139.568 129.285C139.568 129.285 142.846 133.08 143.951 134.649C142.891 135.847 140.763 135.631 140.763 135.631L139.568 129.285Z" fill="#6D3939"/>
<path d="M131.281 126.651C131.415 126.688 131.572 126.651 131.677 126.547C132.953 125.289 134.424 125.55 134.439 125.55C134.656 125.595 134.872 125.453 134.917 125.237C134.962 125.022 134.82 124.821 134.603 124.776C134.529 124.761 132.685 124.434 131.094 125.996C130.937 126.153 130.937 126.398 131.094 126.554C131.146 126.606 131.206 126.636 131.273 126.651H131.281Z" fill="#263238"/>
<path opacity="0.2" d="M124.926 136.353C124.844 136.353 124.769 136.293 124.747 136.212C124.575 135.549 124.231 134.947 123.746 134.456C123.432 134.136 122.917 133.742 122.29 133.675C121.723 133.615 121.148 133.883 120.931 134.307C120.886 134.396 120.774 134.433 120.677 134.389C120.588 134.344 120.55 134.233 120.595 134.136C120.886 133.57 121.603 133.228 122.327 133.303C123.074 133.384 123.656 133.831 124.015 134.195C124.545 134.731 124.926 135.401 125.112 136.122C125.135 136.219 125.075 136.323 124.978 136.346C124.963 136.346 124.948 136.346 124.933 136.346L124.926 136.353Z" fill="#1F2D20"/>
<path d="M145.632 125.401C145.707 125.379 145.774 125.327 145.819 125.267C145.953 125.096 145.924 124.843 145.744 124.717C143.96 123.407 142.205 124.032 142.123 124.047C141.914 124.122 141.802 124.352 141.877 124.553C141.951 124.754 142.183 124.858 142.392 124.791C142.467 124.761 143.825 124.3 145.259 125.349C145.371 125.431 145.513 125.446 145.64 125.401H145.632Z" fill="#263238"/>
<path d="M116.453 116.153C116.878 114.189 119.357 113.49 121.321 113.661C120.962 111.362 123.912 109.688 125.868 109.532C127.914 109.368 128.735 110.075 128.735 110.075C128.578 110.127 129.221 108.862 129.646 108.341C131.214 106.422 133.947 105.596 136.292 106.318C138.636 107.047 140.458 109.286 140.727 111.771C141.847 110.387 144.109 110.179 145.453 111.347C146.797 112.515 146.961 114.829 145.797 116.176C147.297 116.101 148.724 117.485 148.724 119.018C148.724 120.558 147.29 121.927 145.789 121.837C145.894 123.556 145.953 125.706 146.058 127.425L142.982 121.413C141.72 121.131 141.429 120.617 141.033 119.367C140.331 121.079 138.912 121.101 137.098 121.235C135.284 121.369 133.432 120.387 132.491 118.794C131.752 120.58 130.124 122.053 128.228 122.217C126.331 122.381 124.322 120.974 124.106 119.04C123.18 120.811 120.888 121.689 119.044 120.989C117.199 120.29 116.027 118.095 116.453 116.131V116.153Z" fill="#263238"/>
<path d="M140.451 138.399C139.749 139.299 139.121 140.244 138.561 141.234C138.375 141.167 138.181 141.1 137.994 141.025C135.448 140.058 134.582 138.771 134.403 137.64C134.328 137.082 134.388 136.517 134.567 135.981C134.664 135.676 134.806 135.393 134.977 135.125C136.023 136.442 138.323 137.529 139.577 138.057C140.129 138.258 140.436 138.407 140.436 138.407L140.451 138.399Z" fill="#263238"/>
<path d="M139.613 138.034L139.031 138.853C136.642 137.938 135.074 136.978 134.596 135.959C134.693 135.654 134.835 135.371 135.006 135.103C136.059 136.435 138.351 137.506 139.606 138.034H139.613Z" fill="white"/>
<path d="M138.023 141.003C135.477 140.036 134.611 138.749 134.432 137.618C135.395 138.005 136.276 138.555 137.045 139.247C137.545 139.716 137.881 140.333 138.016 141.003H138.023Z" fill="#C15854"/>
<path d="M184.845 252.454C184.531 255.572 183.852 259.835 183.038 262.855C180.821 271.396 178.289 279.61 175.101 288.099C168.941 304.862 163.968 320.419 163.968 320.419L148.326 315.746C148.326 315.746 158.667 267.245 165.641 262.282H122.872C122.073 262.282 121.274 262.23 120.482 262.119C127.852 261.166 139.328 256.643 149.983 252.119C159.391 248.109 168.194 244.107 172.966 242.596C178.805 245.081 185.301 247.566 184.853 252.454H184.845Z" fill="#263238"/>
<path opacity="0.6" d="M172.973 242.64C168.194 244.188 159.391 248.161 149.991 252.164C139.336 256.687 127.859 261.211 120.49 262.163C108.08 260.511 103.414 245.78 116.391 228.787C124.813 228.787 133.28 236.8 133.28 236.8C133.28 236.8 158.749 236.674 172.973 242.64Z" fill="#1F2D20"/>
<path d="M207.798 294.832L197.456 301.074C197.456 301.074 188.825 283.017 180.574 262.647C181.388 259.619 181.963 256.539 182.277 253.421C182.725 248.533 178.827 245.088 172.988 242.655C168.209 244.203 159.406 248.176 150.006 252.179C139.351 256.702 127.874 261.226 120.505 262.178C119.661 262.29 118.81 262.349 117.951 262.364C103.794 262.364 98.9112 249.999 104.623 229.018C113.046 229.018 127.471 228.11 127.471 228.11C127.471 228.11 155.307 221.444 175.333 223.713C185.084 224.859 192.976 232.143 194.865 241.748C200.025 267.215 207.79 294.832 207.79 294.832H207.798Z" fill="#263238"/>
<path d="M209.433 295.591L197.456 301.074C197.456 301.074 188.825 283.017 180.574 262.647C181.388 259.619 181.963 256.539 182.277 253.421C182.725 248.533 178.827 245.088 172.988 242.655C168.209 244.203 159.406 248.176 150.006 252.179C139.351 256.702 127.874 261.226 120.505 262.178C119.661 262.29 118.81 262.349 117.951 262.364C103.794 262.364 98.9112 249.999 104.623 229.018C113.046 229.018 127.471 228.11 127.471 228.11C127.471 228.11 155.307 221.444 175.333 223.713C185.084 224.859 192.976 232.143 194.865 241.748C200.025 267.215 209.425 295.591 209.425 295.591H209.433Z" fill="#263238"/>
<path opacity="0.2" d="M184.845 252.454C184.531 255.572 183.852 259.835 183.038 262.855C180.821 271.396 178.289 279.61 175.101 288.099C168.941 304.862 163.968 320.419 163.968 320.419L148.326 315.746C148.326 315.746 158.667 267.245 165.641 262.282H122.872C122.073 262.282 121.274 262.23 120.482 262.119C127.852 261.166 139.328 256.643 149.983 252.119C159.391 248.109 168.194 244.107 172.966 242.596C178.805 245.081 185.301 247.566 184.853 252.454H184.845Z" fill="#1F2D20"/>
<path d="M137.133 201.178C139.232 201.178 140.933 195.771 140.933 189.102C140.933 182.434 139.232 177.027 137.133 177.027C135.034 177.027 133.332 182.434 133.332 189.102C133.332 195.771 135.034 201.178 137.133 201.178Z" fill="white"/>
</svg>
