<svg width="231" height="23" viewBox="0 0 231 23" fill="none" xmlns="http://www.w3.org/2000/svg">
<path d="M20.7051 22H13.1172L5.29492 6.91211H5.16309C5.21191 7.37109 5.25586 7.92285 5.29492 8.56738C5.33398 9.21191 5.36816 9.87109 5.39746 10.5449C5.42676 11.209 5.44141 11.8096 5.44141 12.3467V22H0.314453V0.583984H7.87305L15.666 15.4668H15.7539C15.7246 14.998 15.6953 14.4561 15.666 13.8408C15.6367 13.2158 15.6074 12.5859 15.5781 11.9512C15.5586 11.3164 15.5488 10.7549 15.5488 10.2666V0.583984H20.7051V22ZM25.334 22V0.583984H31.1494V22H25.334ZM45.124 22L40.7441 6.5752H40.6123C40.6514 6.97559 40.6904 7.51758 40.7295 8.20117C40.7783 8.88477 40.8223 9.62207 40.8613 10.4131C40.9004 11.2041 40.9199 11.9658 40.9199 12.6982V22H35.793V0.583984H43.498L47.9658 15.7891H48.083L52.4629 0.583984H60.1826V22H54.8652V12.6104C54.8652 11.9365 54.875 11.2139 54.8945 10.4424C54.9238 9.66113 54.9531 8.92871 54.9824 8.24512C55.0215 7.55176 55.0557 7.00488 55.085 6.60449H54.9531L50.6318 22H45.124ZM64.7969 22V0.583984H70.6123V22H64.7969ZM89.2598 15.4961C89.2598 16.6582 88.9668 17.7617 88.3809 18.8066C87.7949 19.8418 86.8818 20.6816 85.6416 21.3262C84.4111 21.9707 82.8193 22.293 80.8662 22.293C79.8896 22.293 79.0303 22.249 78.2881 22.1611C77.5557 22.0732 76.8721 21.9316 76.2373 21.7363C75.6025 21.5312 74.9434 21.2676 74.2598 20.9453V15.7891C75.4219 16.375 76.5938 16.8242 77.7754 17.1367C78.957 17.4395 80.0264 17.5908 80.9834 17.5908C81.5596 17.5908 82.0283 17.5225 82.3896 17.3857C82.7607 17.249 83.0342 17.0635 83.21 16.8291C83.3857 16.585 83.4736 16.3066 83.4736 15.9941C83.4736 15.623 83.3418 15.3105 83.0781 15.0566C82.8242 14.793 82.4141 14.5195 81.8477 14.2363C81.2812 13.9531 80.5342 13.6016 79.6064 13.1816C78.8154 12.8105 78.0977 12.4297 77.4531 12.0391C76.8184 11.6484 76.2715 11.2041 75.8125 10.7061C75.3633 10.1982 75.0166 9.60742 74.7725 8.93359C74.5283 8.25977 74.4062 7.46387 74.4062 6.5459C74.4062 5.16895 74.7432 4.0166 75.417 3.08887C76.1006 2.15137 77.0479 1.44824 78.2588 0.979492C79.4795 0.510742 80.8857 0.276367 82.4775 0.276367C83.874 0.276367 85.1289 0.432617 86.2422 0.745117C87.3652 1.05762 88.3711 1.41406 89.2598 1.81445L87.4873 6.28223C86.5693 5.8623 85.666 5.53027 84.7773 5.28613C83.8887 5.03223 83.0635 4.90527 82.3018 4.90527C81.8037 4.90527 81.3936 4.96875 81.0713 5.0957C80.7588 5.21289 80.5244 5.37402 80.3682 5.5791C80.2217 5.78418 80.1484 6.01855 80.1484 6.28223C80.1484 6.61426 80.2754 6.91211 80.5293 7.17578C80.793 7.43945 81.2275 7.72754 81.833 8.04004C82.4482 8.34277 83.2832 8.73828 84.3379 9.22656C85.3828 9.69531 86.2715 10.2031 87.0039 10.75C87.7363 11.2871 88.293 11.9365 88.6738 12.6982C89.0645 13.4502 89.2598 14.3828 89.2598 15.4961ZM110.925 22H105.109V13.2695H98.3857V22H92.5703V0.583984H98.3857V8.52344H105.109V0.583984H110.925V22Z" fill="#1F2D20"/>
<path d="M132.81 22H127.023V5.31543H121.794V0.583984H138.024V5.31543H132.81V22ZM141.086 22V0.583984H146.901V22H141.086ZM179.948 0.583984L174.675 22H167.834L165.783 12.6689C165.744 12.4932 165.681 12.1953 165.593 11.7754C165.515 11.3555 165.422 10.877 165.314 10.3398C165.217 9.80273 165.124 9.27539 165.036 8.75781C164.958 8.23047 164.899 7.78613 164.86 7.4248C164.821 7.78613 164.758 8.23047 164.67 8.75781C164.582 9.27539 164.484 9.80273 164.377 10.3398C164.279 10.877 164.182 11.3555 164.084 11.7754C163.996 12.1953 163.933 12.4932 163.894 12.6689L161.828 22H154.987L149.685 0.583984H155.266L157.595 11.3213C157.653 11.585 157.731 11.9609 157.829 12.4492C157.937 12.9277 158.044 13.4551 158.151 14.0312C158.269 14.5977 158.376 15.1445 158.474 15.6719C158.571 16.1992 158.64 16.6387 158.679 16.9902C158.757 16.3848 158.859 15.6963 158.986 14.9248C159.123 14.1533 159.27 13.3721 159.426 12.5811C159.592 11.7803 159.748 11.0381 159.895 10.3545C160.041 9.6709 160.168 9.11426 160.275 8.68457L162.165 0.583984H167.526L169.357 8.68457C169.455 9.10449 169.577 9.66113 169.724 10.3545C169.88 11.0381 170.036 11.7803 170.192 12.5811C170.358 13.3818 170.51 14.1729 170.646 14.9541C170.783 15.7256 170.886 16.4043 170.954 16.9902C171.013 16.502 171.11 15.8867 171.247 15.1445C171.384 14.3926 171.521 13.665 171.657 12.9619C171.804 12.249 171.916 11.7119 171.994 11.3506L174.367 0.583984H179.948ZM195.856 22L194.802 17.9863H187.844L186.76 22H180.402L187.39 0.496094H195.109L202.185 22H195.856ZM193.601 13.2402L192.678 9.72461C192.58 9.34375 192.438 8.80176 192.253 8.09863C192.067 7.38574 191.882 6.65332 191.696 5.90137C191.521 5.13965 191.384 4.51465 191.286 4.02637C191.198 4.51465 191.071 5.12012 190.905 5.84277C190.749 6.55566 190.583 7.26367 190.407 7.9668C190.241 8.66992 190.095 9.25586 189.968 9.72461L189.045 13.2402H193.601ZM211.53 0.583984C213.474 0.583984 215.09 0.823242 216.379 1.30176C217.668 1.77051 218.635 2.47363 219.279 3.41113C219.934 4.34863 220.261 5.51563 220.261 6.91211C220.261 7.78125 220.114 8.57227 219.821 9.28516C219.528 9.99805 219.108 10.6377 218.562 11.2041C218.024 11.7607 217.38 12.249 216.628 12.6689L222.868 22H216.306L211.765 14.207H210.3V22H204.514V0.583984H211.53ZM211.442 4.96387H210.3V9.85645H211.384C212.272 9.85645 213 9.66113 213.566 9.27051C214.133 8.87988 214.416 8.18164 214.416 7.17578C214.416 6.48242 214.182 5.94043 213.713 5.5498C213.244 5.15918 212.487 4.96387 211.442 4.96387ZM224.816 22V0.583984H230.632V22H224.816Z" fill="#56A77B"/>
</svg>
