<svg width="700" height="597" viewBox="0 0 700 597" fill="none" xmlns="http://www.w3.org/2000/svg">
<path d="M289.02 386.692C417.566 386.692 521.774 312.409 521.774 220.777C521.774 129.144 417.566 54.8618 289.02 54.8618C160.473 54.8618 56.2656 129.144 56.2656 220.777C56.2656 312.409 160.473 386.692 289.02 386.692Z" fill="white" fill-opacity="0.7"/>
<path d="M540.284 454.45C598.965 454.45 646.535 447.85 646.535 439.709C646.535 431.568 598.965 424.968 540.284 424.968C481.603 424.968 434.033 431.568 434.033 439.709C434.033 447.85 481.603 454.45 540.284 454.45Z" fill="#F5F5F4"/>
<path d="M317.581 463.168C423.591 463.168 509.529 455.849 509.529 446.822C509.529 437.794 423.591 430.476 317.581 430.476C211.571 430.476 125.633 437.794 125.633 446.822C125.633 455.849 211.571 463.168 317.581 463.168Z" fill="#F5F5F4"/>
<path d="M354.28 157.1C354.28 157.1 350.728 177.717 324.845 204.255C324.845 204.255 321.986 200.715 326.935 186.048C331.883 171.381 352.804 152.106 354.28 157.1Z" fill="#207733"/>
<path d="M354.28 157.1C354.28 157.1 330.99 173.759 324.846 204.255C324.846 204.255 323.655 214.713 327.239 223.775" stroke="#1F2D20" stroke-miterlimit="10" stroke-linecap="round"/>
<path d="M291.679 173.754C291.679 173.754 298.213 168.803 286.972 156.438C276.294 144.691 264.989 134.159 242.893 130.299C242.893 130.299 249.562 160.228 263.96 167.362C278.358 174.496 291.679 173.754 291.679 173.754Z" fill="#207733"/>
<path d="M238.047 195.761C238.047 195.761 261.1 200.79 300.199 187.742C300.199 187.742 297.775 183.7 280.304 182.341C262.833 180.981 233.497 192.402 238.047 195.761Z" fill="#207733"/>
<path d="M238.047 195.761C238.047 195.761 265.706 181.119 300.199 187.742C300.199 187.742 303.747 188.63 307.36 193.456" stroke="#1F2D20" stroke-miterlimit="10" stroke-linecap="round"/>
<path d="M257.155 216.648C257.155 216.648 281.825 232.887 320.923 219.84C320.923 219.84 313.319 206.085 295.849 204.725C278.378 203.365 252.604 213.289 257.155 216.648Z" fill="#207733"/>
<path d="M257.156 216.648C257.156 216.648 283.746 204.241 320.924 219.84C320.924 219.84 325.296 221.786 328.909 226.612" stroke="#1F2D20" stroke-miterlimit="10" stroke-linecap="round"/>
<path d="M340.659 137.578C340.659 137.578 347.94 136.706 330.173 153.141C313.396 168.661 315.529 168.782 315.529 168.782C315.529 168.782 321.895 145.559 340.659 137.578Z" fill="#1F2D20"/>
<path d="M303.324 176.643C303.324 176.643 308.762 178.74 318.57 169.739C328.378 160.738 332.034 140.678 340.659 137.578C340.659 137.578 319.021 144.568 303.324 176.643Z" fill="#207733"/>
<path d="M338.986 245.566C327.923 223.282 312.564 197.966 291.679 173.755C291.679 173.755 286.548 167.036 268.723 149.617C250.898 132.198 242.893 130.3 242.893 130.3" stroke="#1F2D20" stroke-miterlimit="10" stroke-linecap="round"/>
<path d="M338.105 138.646C338.105 138.646 317.515 147.631 303.326 176.643C299.889 183.672 304.001 189.234 307.362 193.456" stroke="#1F2D20" stroke-miterlimit="10" stroke-linecap="round"/>
<path d="M525.86 379.153C525.86 379.153 508.651 391.852 468.998 382.532C468.998 382.532 469.103 376.172 483.334 370.055C497.566 363.937 528.11 373.263 525.86 379.153Z" fill="#207733"/>
<path d="M524.629 377.995C524.629 377.995 497.471 368.918 469.175 381.844C469.175 381.844 460.009 387.019 454.777 395.24" stroke="#1F2D20" stroke-miterlimit="10" stroke-linecap="round"/>
<path d="M468.48 351.215C468.48 351.215 476.324 353.598 479.736 337.24C482.978 321.7 484.87 306.365 475.024 286.21C475.024 286.21 454.708 309.177 457.384 325.021C460.06 340.866 468.48 351.215 468.48 351.215Z" fill="#207733"/>
<path d="M526.806 357.347C526.806 357.347 532.858 361.487 508.664 362.149C485.819 362.775 487.343 364.271 487.343 364.271C487.343 364.271 507.43 350.991 526.806 357.347Z" fill="#1F2D20"/>
<path d="M472.984 362.147C472.984 362.147 475.694 367.307 489.003 366.995C502.312 366.683 518.277 353.999 526.808 357.347C526.808 357.347 505.922 348.353 472.984 362.147Z" fill="#207733"/>
<path d="M438.111 431.667C449.659 409.63 461.138 382.335 468.48 351.215C468.48 351.215 470.908 343.117 474.547 318.461C478.186 293.805 475.024 286.21 475.024 286.21" stroke="#1F2D20" stroke-miterlimit="10" stroke-linecap="round"/>
<path d="M524.181 356.467C524.181 356.467 502.771 349.664 472.984 362.146C465.768 365.17 463.72 369.945 460.67 378.797" stroke="#1F2D20" stroke-miterlimit="10" stroke-linecap="round"/>
<path d="M251.613 232.331C246.043 232.331 240.651 230.377 236.374 226.808L224.509 216.907C220.239 213.344 215.167 211.435 209.971 211.435H151.084C145.74 211.435 141.408 215.767 141.408 221.111V232.331V434.3C141.408 443.521 148.883 450.996 158.104 450.996H451.655C458.827 450.996 464.641 445.182 464.641 438.009V245.318C464.641 238.146 458.827 232.332 451.655 232.332H251.613V232.331Z" fill="#263238"/>
<path d="M464.64 439.097C464.64 439.097 444.662 401.623 442.664 397.319L388.065 286.087C386.693 283.131 383.73 281.24 380.471 281.24H177.577C170.201 281.24 159.533 277.374 153.869 272.648L145.682 265.816C141.412 262.253 136.34 260.344 131.144 260.344H75.1025C69.1375 260.344 65.0855 266.404 67.3645 271.916L135.131 435.815C138.93 445.002 147.891 450.994 157.832 450.994H460.975C462.951 450.994 464.776 449.301 464.775 447.325L464.64 439.097Z" fill="#56A77B"/>
<path d="M382.113 291.817L462.231 447.558" stroke="#1F2D20" stroke-miterlimit="10" stroke-linejoin="round"/>
<path d="M349.099 318.655H280.086C278.204 318.655 276.453 317.708 275.442 316.145C273.11 312.537 275.742 307.814 280.086 307.814H349.099C350.981 307.814 352.732 308.761 353.743 310.324C356.075 313.933 353.443 318.655 349.099 318.655Z" stroke="#1F2D20" stroke-miterlimit="10" stroke-linejoin="round"/>
<path d="M220.002 372.184L273.735 404.197" stroke="#1F2D20" stroke-miterlimit="10" stroke-linecap="round" stroke-linejoin="round"/>
<path d="M263.936 370.641L230.172 404.39" stroke="#1F2D20" stroke-miterlimit="10" stroke-linecap="round" stroke-linejoin="round"/>
<path d="M285.134 398.686C289.628 382.438 275.838 364.443 254.332 358.494C232.825 352.546 211.748 360.895 207.253 377.143C202.759 393.391 216.549 411.386 238.056 417.334C259.562 423.283 280.64 414.934 285.134 398.686Z" stroke="#1F2D20" stroke-miterlimit="10" stroke-linecap="round" stroke-linejoin="round"/>
<path d="M524.378 232.436C525.667 226.866 519.74 219.922 514.129 221.017C509.561 221.908 507.287 223.003 506.554 223.245C505.119 223.718 494.411 223.021 493.185 224.805C492.297 226.097 497.883 227.589 501.456 227.944C502.192 228.017 502.409 228.979 501.78 229.368C498.269 231.545 491.279 235.97 490.685 237.063C489.888 238.528 486.257 244.225 487.28 244.857C488.303 245.49 491.397 242.644 493.407 240.624C495.418 238.604 501.293 236.886 501.293 236.886C501.293 236.886 491.078 247.139 489.731 249.982C487.726 254.215 493.544 252.359 493.544 252.359C492.633 254.751 497.405 254.227 498.533 253.324C500.761 251.541 507.648 243.231 507.668 244.077C507.688 244.924 500.553 253.979 501.276 256.094C501.999 258.209 504.885 255.555 506.554 253.324C508.224 251.093 513.127 244.857 513.127 244.857C513.127 244.857 518.697 240.791 523.347 233.768C523.384 233.712 524.363 232.502 524.378 232.436Z" fill="#DB9C7F"/>
<path d="M493.797 252.129L503.544 240.513" stroke="#1F2D20" stroke-miterlimit="10" stroke-linecap="round"/>
<path d="M451.104 199.487L486.166 177.612C486.383 177.47 486.59 177.313 486.786 177.142L498.348 165.245C500.865 163.039 504.747 163.553 506.603 166.338L512.27 174.838C513.47 176.638 513.512 178.972 512.377 180.814L504.239 194.017C503.64 194.989 502.763 195.748 501.714 196.198C495.167 199.002 470.153 209.567 455.233 213.782C451.528 214.829 447.927 211.813 448.251 207.976L448.617 203.655C448.76 201.956 449.677 200.419 451.104 199.487Z" fill="#207733"/>
<path d="M531.855 418.06L530.001 430.656C530.001 430.656 495.258 444.002 498.481 444.195C501.704 444.388 551.632 441.483 551.632 441.483L548.694 418.616L531.855 418.06Z" fill="#1F2D20"/>
<path d="M541.533 214.226C541.533 214.226 544.302 240.874 546.378 242.258C548.454 243.642 551.223 244.334 551.223 244.334L546.724 213.88L541.533 214.226Z" stroke="#424242" stroke-miterlimit="10"/>
<path d="M596.396 195.91C596.396 195.91 610.478 224.586 606.39 240.563L528.328 229.825L529.957 200.034L596.396 195.91Z" fill="#1F2D20"/>
<path d="M598.541 201.719C598.541 201.719 587.507 222.152 566.393 223.786" stroke="#424242" stroke-miterlimit="10" stroke-linecap="round"/>
<path d="M580.877 219.427C580.877 219.427 585.154 232.672 597.571 232.945" stroke="#424242" stroke-miterlimit="10" stroke-linecap="round"/>
<path d="M528.329 229.825C528.329 229.825 507.415 304.282 506.873 328.252L522.154 420.595C522.154 420.595 536.731 427.843 551.914 421.986C552.536 421.746 544.217 374.092 543.632 325.026L587.276 233.707L528.329 229.825Z" fill="#1F2D20"/>
<path d="M606.734 237.439L603.66 327.289L638.037 421.224C638.037 421.224 623.652 433.377 605.481 422.316L568.159 332.872L571.987 267.791L555.722 257.942L553.299 229.755L606.734 237.439Z" fill="#1F2D20"/>
<path d="M546.324 221.017L562.896 233.503L586.653 206.98L528.945 215.224L543.066 233.949L546.324 221.017Z" fill="white"/>
<path d="M613.746 416.541L610.747 427.408C610.747 427.408 588.829 451.181 592.059 451.181C595.289 451.181 631.281 436.465 631.281 436.465L626.667 413.824L613.746 416.541Z" fill="#1F2D20"/>
<path d="M593.592 208.62C593.592 208.62 603.072 231.923 596.242 329.674C596.242 329.674 620.185 382.369 632.6 424.048" stroke="#424242" stroke-miterlimit="10" stroke-linecap="round"/>
<path d="M558.75 260.272L534.855 326.831L545.102 424.048" stroke="#424242" stroke-miterlimit="10" stroke-linecap="round"/>
<path d="M454.535 212.628C454.535 212.628 454.999 214.959 449.838 216.739C444.677 218.519 441.64 217.954 441.64 217.954C441.64 217.954 430.062 204.298 429.548 203.816C429.034 203.333 429.909 198.082 433.334 195.979C435.414 194.702 443.48 196.784 449.496 198.616C453.69 199.893 456.278 204.094 455.573 208.421C455.297 210.122 454.951 211.699 454.535 212.628Z" fill="#DB9C7F"/>
<path d="M445.04 209.004C445.04 209.004 435.574 207.63 431.574 204.332C431.574 204.332 425.596 203.127 424.325 203.881C423.055 204.635 422.014 205.706 419.265 206.17C416.516 206.634 417.345 204.803 420.233 202.207C421.058 201.465 423.266 198.798 425.18 198.437C427.757 197.952 433.334 195.979 433.334 195.979L444.524 209.357" fill="#DB9C7F"/>
<path d="M441.641 217.954C441.641 217.954 437.803 220.362 436.453 220.296C435.103 220.231 433.828 219.426 433.498 217.208C433.498 217.208 426.35 218.52 428.615 213.111C428.615 213.111 424.297 212.411 424.182 209.593C424.182 209.593 420.347 207.682 421.186 204.619C422.024 201.555 434.057 201.833 434.057 201.833L446.825 208.315L441.641 217.954Z" fill="#DB9C7F"/>
<path d="M438.93 218.466C438.93 218.466 442.576 215.233 442.373 213.936C442.17 212.639 441.485 211.926 440.657 212.175C439.547 212.508 435.32 215.731 433.498 217.208" stroke="#1A1C30" stroke-width="0.7799" stroke-miterlimit="10" stroke-linecap="round" stroke-linejoin="round"/>
<path d="M428.616 213.111C428.616 213.111 438.328 211.595 438.418 210.156C438.508 208.717 437.829 206.819 435.801 207.223C433.39 207.703 426.477 209.359 424.184 209.314" stroke="#1A1C30" stroke-width="0.7799" stroke-miterlimit="10" stroke-linecap="round" stroke-linejoin="round"/>
<path d="M440.657 212.175C440.657 212.175 442.442 211.067 441.736 209.829C441.03 208.591 440.066 208.156 438 208.693" stroke="#1A1C30" stroke-width="0.7799" stroke-miterlimit="10" stroke-linecap="round" stroke-linejoin="round"/>
<path d="M423.986 205.258C423.986 205.258 424.517 204.567 425.268 203.861" stroke="#1A1C30" stroke-width="0.7799" stroke-miterlimit="10" stroke-linecap="round" stroke-linejoin="round"/>
<path d="M445.049 223.266L444.882 223.36C443.574 224.096 441.917 223.632 441.182 222.324L415.934 177.43L420.837 174.673L446.085 219.567C446.821 220.874 446.357 222.53 445.049 223.266Z" fill="#263238"/>
<path d="M428.415 184.645L430.534 188.413C431.109 189.435 430.849 190.672 429.953 191.175L425.375 193.75C424.479 194.254 423.288 193.833 422.713 192.812L420.502 188.881" fill="#263238"/>
<path d="M418.618 147.775C409.86 131.528 398.882 120.344 391.905 119.821L392.136 118.278L388.49 120.655C382.224 124.922 385.554 143.983 395.928 163.228C406.302 182.473 419.791 194.615 426.057 190.348L429.485 188.063L428.498 186.742C430.909 179.287 427.146 163.597 418.618 147.775Z" fill="#263238"/>
<path d="M429.216 188.261C435.898 184.779 433.118 166.228 423.008 146.825C412.897 127.423 399.284 114.516 392.603 117.998C385.921 121.48 388.7 140.032 398.81 159.434C408.921 178.837 422.534 191.743 429.216 188.261Z" fill="#56A77B"/>
<path d="M418.803 147.756C427.246 163.419 430.56 178.519 426.207 181.484C421.853 184.449 411.48 174.156 403.037 158.493C394.594 142.83 391.28 127.73 395.633 124.765C399.987 121.8 410.36 132.093 418.803 147.756Z" fill="#EBEBEB"/>
<path d="M445.04 209.004C445.04 209.004 435.574 207.63 431.574 204.332C431.574 204.332 425.596 203.127 424.325 203.881C423.055 204.635 422.014 205.706 419.265 206.17C416.516 206.634 417.345 204.803 420.233 202.207C421.058 201.465 423.266 198.798 425.18 198.437C427.757 197.952 433.334 195.979 433.334 195.979L444.524 209.357" fill="#DB9C7F"/>
<path d="M445.041 209.003C445.041 209.003 435.575 207.629 431.575 204.331C431.575 204.331 425.597 203.126 424.326 203.88C423.056 204.634 422.015 205.705 419.266 206.169" stroke="#1A1C30" stroke-width="0.7799" stroke-miterlimit="10" stroke-linecap="round" stroke-linejoin="round"/>
<path d="M418.802 147.756C410.359 132.093 399.986 121.8 395.632 124.765C395.288 124.999 394.998 125.317 394.748 125.697C399.781 126.003 408.584 135.56 415.928 149.184C423.704 163.61 427.124 177.55 424.215 181.98C424.968 182.026 425.638 181.869 426.204 181.484C430.559 178.519 427.244 163.418 418.802 147.756Z" fill="#263238"/>
<path d="M411.345 143.5C415.836 151.832 417.599 159.865 415.283 161.442C412.967 163.019 407.449 157.544 402.958 149.212C398.467 140.88 396.704 132.847 399.02 131.27C401.335 129.693 406.854 135.168 411.345 143.5Z" fill="white"/>
<path d="M580.86 168.434L573.895 143.582C571.338 134.459 566.857 126.017 560.935 118.621C550.446 105.519 522.894 106.711 522.894 106.711L501.696 121.964C501.631 121.999 501.566 122.035 501.501 122.071C489.02 128.958 486.727 139.582 487.055 155.957L487.828 178.068L502.178 164.364L505.8 169.33C505.784 169.187 505.77 169.054 505.758 168.925L507.473 171.625L505.8 169.33C506.308 173.892 508.687 185.511 519.747 190.939L526.048 200.854L524.377 214.557C583.512 236.061 598.239 193.836 598.239 193.836L580.86 168.434Z" fill="#207733"/>
<path d="M499.145 162.084L506.888 171.553C506.888 171.553 505.83 186.147 520.535 190.826" stroke="#1F2D20" stroke-miterlimit="10" stroke-linecap="round"/>
<path d="M557.91 181.357L512.902 220.572C512.902 220.572 521.814 233.049 525.825 233.495L579.745 199.182" fill="#207733"/>
<path d="M526.271 208.54C526.271 208.54 550.78 180.911 559.247 176.901" stroke="#1F2D20" stroke-miterlimit="10" stroke-linecap="round"/>
<path d="M546.268 151.556C546.268 151.556 547.438 157.739 555.292 179.463" stroke="#1F2D20" stroke-miterlimit="10" stroke-linecap="round"/>
<path d="M532.064 229.93C532.064 229.93 582.419 197.845 582.865 188.487C583.311 179.129 570.165 135.681 570.165 135.681" stroke="#1F2D20" stroke-miterlimit="10" stroke-linecap="round"/>
<path d="M537.578 184.476C537.578 184.476 549.698 185.617 553.453 174.617" stroke="#1F2D20" stroke-miterlimit="10" stroke-linecap="round"/>
<path d="M488.498 176.285C488.498 176.285 491.84 172.943 495.182 176.731" stroke="#1F2D20" stroke-miterlimit="10" stroke-linecap="round"/>
<path d="M448.844 198.346L455.974 195.004C455.974 195.004 464.664 204.473 461.544 212.606L452.854 215.168C452.854 215.168 456.865 206.256 448.844 198.346Z" fill="white"/>
<path d="M515.743 215.558C515.743 215.558 525.101 219.569 531.785 231.099L524.599 236.614C524.599 236.614 515.742 223.914 509.559 221.908L515.743 215.558Z" fill="white"/>
<path d="M507.889 105.267L537.411 107.439C537.411 107.439 538.531 123.678 520.703 137.999L512.696 130.22L508.335 139.691C508.335 139.691 501.559 135.88 500.646 124.941L502.085 111.66L507.889 105.267Z" fill="white"/>
<path d="M522.894 106.71C523.971 107.628 524.482 109.042 524.232 110.435C523.284 115.72 520.418 128.512 514.672 130.119C507.405 132.152 502.873 117.801 502.873 117.801L506.496 92.7339L522.894 106.71Z" fill="#DB9C7F"/>
<path d="M499.874 112.654L499.785 116.304C499.717 116.341 498.476 127.116 502.097 127.531C517.231 124.795 518.183 110.446 519.478 96.2056C519.478 96.2056 498.405 109.811 499.874 112.654Z" fill="#1F2D20"/>
<path d="M474.679 85.7766C474.679 85.7766 470.991 120.925 492.826 126.973C514.662 133.022 519.892 97.4116 519.139 85.0966C518.386 72.7816 512.897 68.2016 497.593 67.6496C474.951 66.8336 474.679 85.7766 474.679 85.7766Z" fill="#DB9C7F"/>
<path d="M494.294 102.76C494.356 104.025 493.755 105.084 492.951 105.125C492.147 105.166 491.445 104.173 491.383 102.908C491.321 101.643 491.922 100.584 492.726 100.543C493.53 100.503 494.232 101.495 494.294 102.76Z" fill="#1F2D20"/>
<path d="M496.693 96.2847C496.693 96.2847 489.479 99.4247 488.771 93.9707" stroke="#1F2D20" stroke-miterlimit="10" stroke-linecap="round"/>
<path d="M480.018 96.2988C480.018 96.2988 477.635 100.436 474.895 98.5978" stroke="#1F2D20" stroke-miterlimit="10" stroke-linecap="round"/>
<path d="M476.184 103.647C476.184 103.647 477.547 103.207 479.547 104.263" stroke="#1F2D20" stroke-miterlimit="10" stroke-linecap="round"/>
<path d="M497.564 116.758C497.564 116.758 499.531 114.877 501.155 114.449" stroke="#1F2D20" stroke-miterlimit="10" stroke-linecap="round"/>
<path d="M482.805 107.697C482.805 107.697 481.551 110.547 484.743 111.915" stroke="#1F2D20" stroke-miterlimit="10" stroke-linecap="round"/>
<path d="M474.422 93.334C474.422 93.334 474.792 83.042 479.352 77.227C479.352 77.227 485.622 91.478 512.641 94.385L520.507 92.732C520.507 92.732 523.728 76.23 512.441 69.732C501.155 63.234 483.882 66.825 478.325 72.668C468.905 82.572 474.422 93.334 474.422 93.334Z" fill="#1F2D20"/>
<path d="M507.396 92.5038L512.07 101.738L515.376 91.3638L507.396 92.5038Z" fill="#1F2D20"/>
<path d="M523.733 100.779C522.387 105.691 518.522 108.938 515.102 108.032C511.682 107.126 510 102.409 511.347 97.4969C512.693 92.5849 516.558 89.3379 519.978 90.2439C523.398 91.1499 525.079 95.8669 523.733 100.779Z" fill="#DB9C7F"/>
<path d="M520.301 96.502C520.301 96.502 516.454 93.192 514.352 99.244C514.352 99.244 516.599 101.629 515.181 103.501C515.181 103.501 517.396 104.004 518.489 102.05" stroke="#1F2D20" stroke-miterlimit="10" stroke-linecap="round" stroke-linejoin="round"/>
<path d="M518.636 98.817C518.636 98.817 518.422 97.472 516.928 95.938" stroke="#1F2D20" stroke-miterlimit="10" stroke-linecap="round" stroke-linejoin="round"/>
<path d="M520.506 107.866C520.506 109.708 519.013 111.201 517.171 111.201C515.329 111.201 513.836 109.708 513.836 107.866C513.836 106.024 515.329 104.531 517.171 104.531C519.013 104.531 520.506 106.024 520.506 107.866Z" fill="white"/>
<path d="M511.158 74.0348C511.158 74.0348 515.262 52.6018 524.839 56.7058C534.415 60.8098 538.748 81.3308 529.627 82.9268C520.507 84.5228 513.438 80.1908 513.438 80.1908L511.158 74.0348Z" fill="#1F2D20"/>
<path d="M511.273 80.1909C511.273 80.1909 527.12 93.4159 532.25 81.2169" stroke="#1F2D20" stroke-miterlimit="10" stroke-linecap="round"/>
<path d="M571.16 267.285L552.816 256.933" stroke="#424242" stroke-miterlimit="10" stroke-linecap="round"/>
<path d="M154.787 131.333C174.608 131.873 191.008 147.749 192.149 167.545C192.82 179.185 188.309 189.777 180.717 197.25C179.595 198.354 179.074 199.928 179.336 201.48L182.187 218.351L164.645 208.13C163.646 207.548 162.469 207.334 161.335 207.563C157.047 208.428 152.504 208.587 147.821 207.878C130.492 205.253 116.972 190.907 115.374 173.453C113.244 150.19 131.825 130.707 154.787 131.333Z" fill="#EBEBEB"/>
<path d="M151.955 183.149L151.847 173.944C153.19 173.617 154.415 173.191 155.523 172.664C156.63 172.138 157.602 171.53 158.437 170.839C159.272 170.15 159.971 169.378 160.535 168.524C161.098 167.671 161.523 166.754 161.815 165.774C162.105 164.794 162.251 163.759 162.251 162.669C162.251 161.108 161.869 159.637 161.106 158.257C160.344 156.878 159.254 155.761 157.838 154.907C156.422 154.054 154.734 153.627 152.773 153.627C150.667 153.627 148.715 154.209 146.918 155.37C145.12 156.533 143.749 158.511 142.806 161.307L141.826 160.653C142.661 158.003 144.059 155.969 146.02 154.553C147.981 153.136 150.213 152.428 152.719 152.428C154.862 152.428 156.74 152.883 158.357 153.79C159.972 154.698 161.234 155.924 162.142 157.467C163.049 159.01 163.504 160.744 163.504 162.669C163.504 164.122 163.259 165.483 162.769 166.754C162.279 168.025 161.588 169.187 160.699 170.24C159.809 171.294 158.729 172.21 157.458 172.991C156.187 173.773 154.753 174.362 153.155 174.761L153.047 183.149H151.955ZM151.302 190.012C151.302 189.54 151.429 189.15 151.683 188.841C151.937 188.533 152.283 188.378 152.718 188.378C153.226 188.378 153.589 188.524 153.808 188.814C154.026 189.105 154.134 189.504 154.134 190.012C154.134 190.448 154.016 190.829 153.78 191.156C153.543 191.483 153.189 191.646 152.717 191.646C152.244 191.646 151.891 191.5 151.654 191.21C151.419 190.92 151.302 190.521 151.302 190.012Z" fill="#1F2D20"/>
<path d="M123.555 557.848C123.555 559.064 123.859 560.136 124.467 561.064C125.107 561.96 125.923 562.776 126.915 563.512C127.939 564.248 129.011 564.984 130.131 565.72C131.347 566.488 132.499 567.304 133.587 568.168C134.707 569 135.619 569.976 136.323 571.096C137.059 572.184 137.427 573.496 137.427 575.032C137.427 576.728 136.963 578.216 136.035 579.496C135.139 580.776 133.907 581.784 132.339 582.52C130.803 583.224 129.043 583.576 127.059 583.576C126.099 583.576 125.091 583.48 124.035 583.288C123.011 583.096 122.067 582.856 121.203 582.568C120.371 582.28 119.763 581.976 119.379 581.656C119.251 581.56 119.139 581.464 119.043 581.368C118.947 581.24 118.899 581.032 118.899 580.744L118.755 573.112C118.723 572.952 118.787 572.872 118.947 572.872C119.139 572.84 119.251 572.888 119.283 573.016C119.763 574.008 120.291 575.064 120.867 576.184C121.443 577.272 122.083 578.28 122.787 579.208C123.523 580.136 124.339 580.904 125.235 581.512C126.131 582.088 127.155 582.376 128.307 582.376C129.043 582.376 129.747 582.248 130.419 581.992C131.091 581.736 131.635 581.272 132.051 580.6C132.499 579.928 132.723 579 132.723 577.816C132.723 576.312 132.387 575.032 131.715 573.976C131.043 572.888 130.179 571.944 129.123 571.144C128.067 570.312 126.963 569.528 125.811 568.792C124.691 568.056 123.619 567.304 122.595 566.536C121.571 565.736 120.739 564.84 120.099 563.848C119.459 562.824 119.139 561.608 119.139 560.2C119.139 558.408 119.635 556.952 120.627 555.832C121.651 554.68 122.931 553.832 124.467 553.288C126.035 552.744 127.619 552.472 129.219 552.472C130.371 552.472 131.523 552.584 132.675 552.808C133.827 553 134.739 553.24 135.411 553.528C135.731 553.656 135.923 553.8 135.987 553.96C136.083 554.12 136.131 554.296 136.131 554.488V561.544C136.131 561.64 136.051 561.72 135.891 561.784C135.763 561.816 135.667 561.784 135.603 561.688C135.411 561.304 135.139 560.68 134.787 559.816C134.435 558.92 133.971 557.992 133.395 557.032C132.819 556.072 132.083 555.256 131.187 554.584C130.291 553.88 129.203 553.528 127.923 553.528C127.123 553.528 126.387 553.688 125.715 554.008C125.075 554.328 124.547 554.808 124.131 555.448C123.747 556.056 123.555 556.856 123.555 557.848ZM151.282 583.624C149.266 583.624 147.522 583.16 146.05 582.232C144.578 581.304 143.442 580.072 142.642 578.536C141.842 576.968 141.442 575.288 141.442 573.496C141.442 571.832 141.762 570.392 142.402 569.176C143.042 567.96 143.89 566.968 144.946 566.2C146.002 565.4 147.154 564.808 148.402 564.424C149.65 564.04 150.882 563.848 152.098 563.848C154.146 563.848 155.89 564.328 157.33 565.288C158.802 566.248 159.922 567.48 160.69 568.984C161.458 570.488 161.842 572.088 161.842 573.784C161.842 575.736 161.346 577.464 160.354 578.968C159.394 580.44 158.114 581.592 156.514 582.424C154.914 583.224 153.17 583.624 151.282 583.624ZM152.722 582.616C154.002 582.616 154.962 581.992 155.602 580.744C156.242 579.496 156.562 577.736 156.562 575.464C156.562 573.128 156.258 571.176 155.65 569.608C155.074 568.04 154.322 566.856 153.394 566.056C152.466 565.256 151.49 564.856 150.466 564.856C149.218 564.856 148.258 565.416 147.586 566.536C146.946 567.656 146.626 569.384 146.626 571.72C146.626 573.896 146.898 575.816 147.442 577.48C147.986 579.112 148.722 580.376 149.65 581.272C150.578 582.168 151.602 582.616 152.722 582.616ZM171.119 569.992L170.735 569.368C171.983 567.928 173.039 566.824 173.903 566.056C174.767 565.288 175.503 564.76 176.111 564.472C176.719 564.152 177.263 563.992 177.743 563.992C178.415 563.992 179.103 564.248 179.807 564.76C180.543 565.24 180.911 565.88 180.911 566.68C180.911 567.352 180.703 567.912 180.287 568.36C179.903 568.776 179.359 568.984 178.655 568.984C177.983 568.984 177.471 568.808 177.119 568.456C176.799 568.104 176.495 567.768 176.207 567.448C175.951 567.096 175.567 566.92 175.055 566.92C174.831 566.92 174.575 567 174.287 567.16C174.031 567.288 173.647 567.576 173.135 568.024C172.655 568.44 171.983 569.096 171.119 569.992ZM165.263 583C165.167 583 165.119 582.904 165.119 582.712C165.119 582.52 165.167 582.424 165.263 582.424C166.255 582.424 166.927 582.2 167.279 581.752C167.631 581.272 167.807 580.392 167.807 579.112V570.088C167.807 569.096 167.695 568.376 167.471 567.928C167.247 567.448 166.863 567.208 166.319 567.208C166.031 567.208 165.695 567.272 165.311 567.4C164.927 567.496 164.495 567.656 164.015 567.88C163.887 567.944 163.791 567.88 163.727 567.688C163.663 567.496 163.663 567.384 163.727 567.352L170.399 564.088C170.591 564.024 170.703 563.992 170.735 563.992C171.087 563.992 171.439 564.376 171.791 565.144C172.143 565.912 172.319 567.016 172.319 568.456V579.112C172.319 579.944 172.447 580.616 172.703 581.128C172.959 581.608 173.391 581.944 173.999 582.136C174.639 582.328 175.503 582.424 176.591 582.424C176.719 582.424 176.783 582.52 176.783 582.712C176.783 582.904 176.719 583 176.591 583C175.727 583 174.735 582.984 173.615 582.952C172.527 582.92 171.343 582.904 170.063 582.904C169.167 582.904 168.303 582.92 167.471 582.952C166.639 582.984 165.903 583 165.263 583ZM189.306 569.992L188.922 569.368C190.17 567.928 191.226 566.824 192.09 566.056C192.954 565.288 193.69 564.76 194.298 564.472C194.906 564.152 195.45 563.992 195.93 563.992C196.602 563.992 197.29 564.248 197.994 564.76C198.73 565.24 199.098 565.88 199.098 566.68C199.098 567.352 198.89 567.912 198.474 568.36C198.09 568.776 197.546 568.984 196.842 568.984C196.17 568.984 195.658 568.808 195.306 568.456C194.986 568.104 194.682 567.768 194.394 567.448C194.138 567.096 193.754 566.92 193.242 566.92C193.018 566.92 192.762 567 192.474 567.16C192.218 567.288 191.834 567.576 191.322 568.024C190.842 568.44 190.17 569.096 189.306 569.992ZM183.45 583C183.354 583 183.306 582.904 183.306 582.712C183.306 582.52 183.354 582.424 183.45 582.424C184.442 582.424 185.114 582.2 185.466 581.752C185.818 581.272 185.994 580.392 185.994 579.112V570.088C185.994 569.096 185.882 568.376 185.658 567.928C185.434 567.448 185.05 567.208 184.506 567.208C184.218 567.208 183.882 567.272 183.498 567.4C183.114 567.496 182.682 567.656 182.202 567.88C182.074 567.944 181.978 567.88 181.914 567.688C181.85 567.496 181.85 567.384 181.914 567.352L188.586 564.088C188.778 564.024 188.89 563.992 188.922 563.992C189.274 563.992 189.626 564.376 189.978 565.144C190.33 565.912 190.506 567.016 190.506 568.456V579.112C190.506 579.944 190.634 580.616 190.89 581.128C191.146 581.608 191.578 581.944 192.186 582.136C192.826 582.328 193.69 582.424 194.778 582.424C194.906 582.424 194.97 582.52 194.97 582.712C194.97 582.904 194.906 583 194.778 583C193.914 583 192.922 582.984 191.802 582.952C190.714 582.92 189.53 582.904 188.25 582.904C187.354 582.904 186.49 582.92 185.658 582.952C184.826 582.984 184.09 583 183.45 583ZM220.934 564.472C220.998 564.472 221.03 564.568 221.03 564.76C221.03 564.952 220.998 565.048 220.934 565.048C219.846 565.048 218.934 565.512 218.198 566.44C217.462 567.368 216.806 568.616 216.23 570.184L210.902 584.344C209.75 587.416 208.63 589.832 207.542 591.592C206.486 593.384 205.414 594.648 204.326 595.384C203.238 596.12 202.086 596.488 200.87 596.488C199.942 596.488 199.222 596.28 198.71 595.864C198.166 595.48 197.894 594.904 197.894 594.136C197.894 593.368 198.134 592.792 198.614 592.408C199.062 592.056 199.59 591.88 200.198 591.88C200.742 591.88 201.174 591.976 201.494 592.168C201.814 592.392 202.134 592.6 202.454 592.792C202.774 593.016 203.19 593.128 203.702 593.128C204.47 593.128 205.174 592.792 205.814 592.12C206.454 591.48 207.142 590.36 207.878 588.76C208.614 587.192 209.478 585.032 210.47 582.28L210.326 584.92L202.166 568.456C201.462 567.048 200.902 566.136 200.486 565.72C200.102 565.272 199.622 565.048 199.046 565.048C198.95 565.048 198.902 564.952 198.902 564.76C198.902 564.568 198.95 564.472 199.046 564.472C199.686 564.472 200.358 564.488 201.062 564.52C201.798 564.552 202.486 564.568 203.126 564.568C204.278 564.568 205.286 564.552 206.15 564.52C207.014 564.488 207.798 564.472 208.502 564.472C208.598 564.472 208.646 564.568 208.646 564.76C208.646 564.952 208.598 565.048 208.502 565.048C207.382 565.048 206.662 565.176 206.342 565.432C206.022 565.688 206.038 566.184 206.39 566.92L212.486 579.4L210.758 582.232L214.934 570.136C215.478 568.568 215.51 567.336 215.03 566.44C214.582 565.512 213.702 565.048 212.39 565.048C212.326 565.048 212.294 564.952 212.294 564.76C212.294 564.568 212.326 564.472 212.39 564.472C213.158 564.472 213.878 564.488 214.55 564.52C215.254 564.552 216.15 564.568 217.238 564.568C218.006 564.568 218.63 564.552 219.11 564.52C219.622 564.488 220.23 564.472 220.934 564.472ZM222.848 577.912C223.968 577.912 224.832 578.296 225.44 579.064C226.08 579.8 226.4 580.968 226.4 582.568C226.4 584.328 225.968 585.976 225.104 587.512C224.272 589.08 223.104 590.6 221.6 592.072C221.472 592.168 221.36 592.168 221.264 592.072C221.168 591.976 221.152 591.864 221.216 591.736C222.144 590.616 222.752 589.528 223.04 588.472C223.36 587.416 223.52 586.296 223.52 585.112C223.52 584.152 223.424 583.464 223.232 583.048C223.072 582.632 222.832 582.296 222.512 582.04L224.288 581.704C224.32 582.248 224.16 582.664 223.808 582.952C223.456 583.24 222.976 583.384 222.368 583.384C221.536 583.384 220.88 583.144 220.4 582.664C219.952 582.152 219.728 581.496 219.728 580.696C219.728 579.8 220.016 579.112 220.592 578.632C221.168 578.152 221.92 577.912 222.848 577.912Z" fill="#207733"/>
<path d="M245.987 576.904V554.104L247.427 554.2V576.904C247.427 578.6 247.779 579.944 248.483 580.936C249.187 581.928 250.163 582.424 251.411 582.424C251.475 582.424 251.507 582.52 251.507 582.712C251.507 582.904 251.475 583 251.411 583C250.707 583 249.971 582.984 249.203 582.952C248.467 582.92 247.651 582.904 246.755 582.904C245.795 582.904 244.851 582.92 243.923 582.952C243.027 582.984 242.195 583 241.427 583C241.331 583 241.283 582.904 241.283 582.712C241.283 582.52 241.331 582.424 241.427 582.424C242.835 582.424 243.939 581.928 244.739 580.936C245.571 579.944 245.987 578.6 245.987 576.904ZM270.467 583.72C270.467 583.816 270.387 583.864 270.227 583.864C270.099 583.896 270.003 583.896 269.939 583.864L246.275 556.936C245.123 555.624 244.147 554.744 243.347 554.296C242.547 553.816 241.747 553.576 240.947 553.576C240.883 553.576 240.851 553.48 240.851 553.288C240.851 553.096 240.883 553 240.947 553C241.587 553 242.243 553.016 242.915 553.048C243.587 553.08 244.211 553.096 244.787 553.096C245.939 553.096 246.979 553.08 247.907 553.048C248.835 553.016 249.555 553 250.067 553C250.483 553 250.787 553.192 250.979 553.576C251.203 553.928 251.699 554.568 252.467 555.496L270.083 575.8L270.467 583.72ZM270.467 559.144V583.72L269.075 582.28V559.144C269.075 557.448 268.723 556.104 268.019 555.112C267.315 554.088 266.339 553.576 265.091 553.576C265.027 553.576 264.995 553.48 264.995 553.288C264.995 553.096 265.027 553 265.091 553C265.795 553 266.515 553.032 267.251 553.096C268.019 553.128 268.851 553.144 269.747 553.144C270.611 553.144 271.459 553.128 272.291 553.096C273.123 553.032 273.891 553 274.595 553C274.659 553 274.691 553.096 274.691 553.288C274.691 553.48 274.659 553.576 274.595 553.576C273.315 553.576 272.307 554.088 271.571 555.112C270.835 556.104 270.467 557.448 270.467 559.144ZM286.564 583.624C284.548 583.624 282.804 583.16 281.332 582.232C279.86 581.304 278.724 580.072 277.924 578.536C277.124 576.968 276.724 575.288 276.724 573.496C276.724 571.832 277.044 570.392 277.684 569.176C278.324 567.96 279.172 566.968 280.228 566.2C281.284 565.4 282.436 564.808 283.684 564.424C284.932 564.04 286.164 563.848 287.38 563.848C289.428 563.848 291.172 564.328 292.612 565.288C294.084 566.248 295.204 567.48 295.972 568.984C296.74 570.488 297.124 572.088 297.124 573.784C297.124 575.736 296.628 577.464 295.636 578.968C294.676 580.44 293.396 581.592 291.796 582.424C290.196 583.224 288.452 583.624 286.564 583.624ZM288.004 582.616C289.284 582.616 290.244 581.992 290.884 580.744C291.524 579.496 291.844 577.736 291.844 575.464C291.844 573.128 291.54 571.176 290.932 569.608C290.356 568.04 289.604 566.856 288.676 566.056C287.748 565.256 286.772 564.856 285.748 564.856C284.5 564.856 283.54 565.416 282.868 566.536C282.228 567.656 281.908 569.384 281.908 571.72C281.908 573.896 282.18 575.816 282.724 577.48C283.268 579.112 284.004 580.376 284.932 581.272C285.86 582.168 286.884 582.616 288.004 582.616ZM320.29 578.92C320.29 579.88 320.386 580.616 320.578 581.128C320.802 581.608 321.25 581.944 321.922 582.136C322.594 582.328 323.586 582.424 324.898 582.424C324.994 582.424 325.042 582.52 325.042 582.712C325.042 582.904 324.994 583 324.898 583C323.874 583 322.754 582.984 321.538 582.952C320.354 582.92 319.058 582.904 317.65 582.904C316.498 582.904 315.394 582.92 314.338 582.952C313.314 582.984 312.386 583 311.554 583C311.458 583 311.41 582.904 311.41 582.712C311.41 582.52 311.458 582.424 311.554 582.424C312.546 582.424 313.282 582.344 313.762 582.184C314.242 582.024 314.562 581.704 314.722 581.224C314.882 580.744 314.962 580.04 314.962 579.112V556.888C314.962 555.96 314.882 555.272 314.722 554.824C314.562 554.344 314.242 554.024 313.762 553.864C313.282 553.672 312.546 553.576 311.554 553.576C311.458 553.576 311.41 553.48 311.41 553.288C311.41 553.096 311.458 553 311.554 553C312.386 553 313.314 553.032 314.338 553.096C315.362 553.128 316.45 553.144 317.602 553.144C318.37 553.144 319.378 553.096 320.626 553C321.874 552.904 323.042 552.856 324.13 552.856C326.146 552.856 327.922 553.128 329.458 553.672C331.026 554.184 332.274 555.016 333.202 556.168C334.13 557.32 334.626 558.84 334.69 560.728C334.754 562.36 334.482 563.784 333.874 565C333.298 566.216 332.482 567.224 331.426 568.024C330.402 568.824 329.25 569.432 327.97 569.848C326.722 570.232 325.474 570.424 324.226 570.424C323.906 570.424 323.538 570.408 323.122 570.376C322.738 570.344 322.354 570.28 321.97 570.184C321.874 570.152 321.842 570.04 321.874 569.848C321.906 569.624 321.986 569.528 322.114 569.56C322.37 569.624 322.658 569.672 322.978 569.704C323.298 569.736 323.554 569.752 323.746 569.752C324.674 569.752 325.522 569.464 326.29 568.888C327.058 568.312 327.682 567.432 328.162 566.248C328.642 565.064 328.882 563.592 328.882 561.832C328.882 560.136 328.642 558.712 328.162 557.56C327.682 556.376 326.978 555.48 326.05 554.872C325.122 554.232 323.97 553.912 322.594 553.912C322.018 553.912 321.554 553.992 321.202 554.152C320.882 554.312 320.642 554.616 320.482 555.064C320.354 555.512 320.29 556.152 320.29 556.984V578.92ZM343.619 569.992L343.235 569.368C344.483 567.928 345.539 566.824 346.403 566.056C347.267 565.288 348.003 564.76 348.611 564.472C349.219 564.152 349.763 563.992 350.243 563.992C350.915 563.992 351.603 564.248 352.307 564.76C353.043 565.24 353.411 565.88 353.411 566.68C353.411 567.352 353.203 567.912 352.787 568.36C352.403 568.776 351.859 568.984 351.155 568.984C350.483 568.984 349.971 568.808 349.619 568.456C349.299 568.104 348.995 567.768 348.707 567.448C348.451 567.096 348.067 566.92 347.555 566.92C347.331 566.92 347.075 567 346.787 567.16C346.531 567.288 346.147 567.576 345.635 568.024C345.155 568.44 344.483 569.096 343.619 569.992ZM337.763 583C337.667 583 337.619 582.904 337.619 582.712C337.619 582.52 337.667 582.424 337.763 582.424C338.755 582.424 339.427 582.2 339.779 581.752C340.131 581.272 340.307 580.392 340.307 579.112V570.088C340.307 569.096 340.195 568.376 339.971 567.928C339.747 567.448 339.363 567.208 338.819 567.208C338.531 567.208 338.195 567.272 337.811 567.4C337.427 567.496 336.995 567.656 336.515 567.88C336.387 567.944 336.291 567.88 336.227 567.688C336.163 567.496 336.163 567.384 336.227 567.352L342.899 564.088C343.091 564.024 343.203 563.992 343.235 563.992C343.587 563.992 343.939 564.376 344.291 565.144C344.643 565.912 344.819 567.016 344.819 568.456V579.112C344.819 579.944 344.947 580.616 345.203 581.128C345.459 581.608 345.891 581.944 346.499 582.136C347.139 582.328 348.003 582.424 349.091 582.424C349.219 582.424 349.283 582.52 349.283 582.712C349.283 582.904 349.219 583 349.091 583C348.227 583 347.235 582.984 346.115 582.952C345.027 582.92 343.843 582.904 342.563 582.904C341.667 582.904 340.803 582.92 339.971 582.952C339.139 582.984 338.403 583 337.763 583ZM364.892 583.624C362.876 583.624 361.132 583.16 359.66 582.232C358.188 581.304 357.052 580.072 356.252 578.536C355.452 576.968 355.052 575.288 355.052 573.496C355.052 571.832 355.372 570.392 356.012 569.176C356.652 567.96 357.5 566.968 358.556 566.2C359.612 565.4 360.764 564.808 362.012 564.424C363.26 564.04 364.492 563.848 365.708 563.848C367.756 563.848 369.5 564.328 370.94 565.288C372.412 566.248 373.532 567.48 374.3 568.984C375.068 570.488 375.452 572.088 375.452 573.784C375.452 575.736 374.956 577.464 373.964 578.968C373.004 580.44 371.724 581.592 370.124 582.424C368.524 583.224 366.78 583.624 364.892 583.624ZM366.332 582.616C367.612 582.616 368.572 581.992 369.212 580.744C369.852 579.496 370.172 577.736 370.172 575.464C370.172 573.128 369.868 571.176 369.26 569.608C368.684 568.04 367.932 566.856 367.004 566.056C366.076 565.256 365.1 564.856 364.076 564.856C362.828 564.856 361.868 565.416 361.196 566.536C360.556 567.656 360.236 569.384 360.236 571.72C360.236 573.896 360.508 575.816 361.052 577.48C361.596 579.112 362.332 580.376 363.26 581.272C364.188 582.168 365.212 582.616 366.332 582.616ZM386.024 564.664C386.024 565.048 386.008 565.688 385.976 566.584C385.944 567.48 385.928 568.76 385.928 570.424V585.304C385.928 587.416 385.656 589.176 385.112 590.584C384.6 592.024 383.72 593.208 382.472 594.136C381.256 595.064 379.56 595.864 377.384 596.536C377.32 596.568 377.24 596.488 377.144 596.296C377.08 596.136 377.096 596.04 377.192 596.008C378.76 595.336 379.848 594.248 380.456 592.744C381.096 591.24 381.416 589.128 381.416 586.408V570.52C381.416 569.464 381.32 568.696 381.128 568.216C380.936 567.704 380.568 567.448 380.024 567.448C379.8 567.448 379.528 567.496 379.208 567.592C378.92 567.688 378.6 567.816 378.248 567.976C378.12 568.008 378.008 567.928 377.912 567.736C377.816 567.544 377.816 567.432 377.912 567.4L385.16 564.04C385.224 564.008 385.272 563.992 385.304 563.992C385.464 563.992 385.624 564.072 385.784 564.232C385.944 564.392 386.024 564.536 386.024 564.664ZM383.384 559.24C382.488 559.24 381.768 558.984 381.224 558.472C380.712 557.96 380.456 557.24 380.456 556.312C380.456 555.48 380.712 554.824 381.224 554.344C381.768 553.832 382.488 553.576 383.384 553.576C384.28 553.576 384.968 553.832 385.448 554.344C385.928 554.824 386.168 555.48 386.168 556.312C386.168 558.264 385.24 559.24 383.384 559.24ZM400.889 583.576C398.809 583.576 397.033 583.144 395.561 582.28C394.121 581.416 393.017 580.28 392.249 578.872C391.513 577.432 391.145 575.912 391.145 574.312C391.145 572.424 391.625 570.712 392.585 569.176C393.545 567.608 394.841 566.36 396.473 565.432C398.137 564.504 400.009 564.04 402.089 564.04C404.073 564.04 405.593 564.472 406.649 565.336C407.705 566.168 408.233 567.32 408.233 568.792C408.233 569.144 408.201 569.464 408.137 569.752C408.073 570.04 407.929 570.184 407.705 570.184H403.097C403.161 568.68 402.985 567.448 402.569 566.488C402.153 565.496 401.401 565 400.313 565C399.033 565 397.993 565.672 397.193 567.016C396.393 568.328 395.993 570.088 395.993 572.296C395.993 574.088 396.281 575.656 396.857 577C397.433 578.344 398.265 579.384 399.353 580.12C400.441 580.856 401.753 581.224 403.289 581.224C404.057 581.224 404.873 581.112 405.737 580.888C406.633 580.664 407.433 580.328 408.137 579.88C408.201 579.816 408.281 579.848 408.377 579.976C408.505 580.104 408.537 580.216 408.473 580.312C407.289 581.496 406.073 582.344 404.825 582.856C403.609 583.336 402.297 583.576 400.889 583.576ZM394.313 570.28L394.265 569.368L404.777 569.128V570.184L394.313 570.28ZM420.623 583.576C418.415 583.576 416.591 583.112 415.151 582.184C413.711 581.224 412.639 580.008 411.935 578.536C411.263 577.064 410.927 575.576 410.927 574.072C410.927 572.472 411.263 571.048 411.935 569.8C412.607 568.552 413.487 567.512 414.575 566.68C415.695 565.816 416.927 565.16 418.271 564.712C419.615 564.264 420.943 564.04 422.255 564.04C423.183 564.04 424.111 564.184 425.039 564.472C425.967 564.728 426.735 565.128 427.343 565.672C427.951 566.184 428.255 566.84 428.255 567.64C428.255 568.184 428.031 568.696 427.583 569.176C427.135 569.624 426.479 569.848 425.615 569.848C424.815 569.848 424.191 569.64 423.743 569.224C423.295 568.808 422.943 568.2 422.687 567.4C422.463 566.632 422.207 566.056 421.919 565.672C421.663 565.256 421.151 565.048 420.383 565.048C419.007 565.048 417.903 565.736 417.071 567.112C416.271 568.488 415.871 570.28 415.871 572.488C415.871 574.088 416.111 575.56 416.591 576.904C417.071 578.216 417.855 579.272 418.943 580.072C420.031 580.84 421.487 581.224 423.311 581.224C424.271 581.224 425.071 581.112 425.711 580.888C426.383 580.664 427.119 580.36 427.919 579.976C427.983 579.912 428.063 579.944 428.159 580.072C428.287 580.2 428.319 580.296 428.255 580.36C427.135 581.384 425.983 582.184 424.799 582.76C423.615 583.304 422.223 583.576 420.623 583.576ZM438.613 583.576C437.845 583.576 437.061 583.448 436.261 583.192C435.493 582.936 434.837 582.488 434.293 581.848C433.781 581.208 433.525 580.312 433.525 579.16V568.504C433.525 567.832 433.445 567.304 433.285 566.92C433.125 566.536 432.869 566.264 432.517 566.104C432.165 565.944 431.685 565.864 431.077 565.864C430.949 565.864 430.885 565.72 430.885 565.432C430.885 565.144 430.949 565 431.077 565C432.709 564.936 434.037 564.584 435.061 563.944C436.085 563.272 436.853 562.296 437.365 561.016C437.429 560.888 437.557 560.824 437.749 560.824C437.973 560.824 438.085 560.888 438.085 561.016V577.576C438.085 578.856 438.405 579.768 439.045 580.312C439.717 580.856 440.533 581.128 441.493 581.128C442.229 581.128 442.917 580.984 443.557 580.696C444.229 580.376 444.789 580.04 445.237 579.688C445.333 579.592 445.445 579.624 445.573 579.784C445.733 579.912 445.749 580.024 445.621 580.12C444.437 581.304 443.285 582.184 442.165 582.76C441.077 583.304 439.893 583.576 438.613 583.576ZM444.133 566.92C442.821 566.632 441.541 566.44 440.293 566.344C439.077 566.216 437.781 566.152 436.405 566.152V564.904C437.717 564.904 438.997 564.856 440.245 564.76C441.525 564.664 442.885 564.552 444.325 564.424C444.389 564.424 444.453 564.552 444.517 564.808C444.613 565.032 444.661 565.288 444.661 565.576C444.661 565.896 444.597 566.216 444.469 566.536C444.373 566.824 444.261 566.952 444.133 566.92ZM458.788 583C458.692 583 458.644 582.904 458.644 582.712C458.644 582.52 458.692 582.424 458.788 582.424C459.876 582.424 460.676 582.344 461.188 582.184C461.732 582.024 462.084 581.704 462.244 581.224C462.436 580.744 462.532 580.04 462.532 579.112V556.888C462.532 555.96 462.452 555.272 462.292 554.824C462.132 554.344 461.812 554.024 461.332 553.864C460.852 553.672 460.116 553.576 459.124 553.576C459.028 553.576 458.98 553.48 458.98 553.288C458.98 553.096 459.028 553 459.124 553H479.476C479.796 553 479.956 553.144 479.956 553.432L480.052 559.816C480.052 559.88 479.972 559.928 479.812 559.96C479.652 559.992 479.54 559.96 479.476 559.864C478.964 557.976 478.1 556.6 476.884 555.736C475.668 554.84 474.068 554.392 472.084 554.392H470.644C469.684 554.392 468.98 554.6 468.532 555.016C468.084 555.432 467.86 556.072 467.86 556.936V578.92C467.86 579.88 467.988 580.616 468.244 581.128C468.5 581.608 468.996 581.944 469.732 582.136C470.468 582.328 471.556 582.424 472.996 582.424C473.06 582.424 473.092 582.52 473.092 582.712C473.092 582.904 473.06 583 472.996 583C471.908 583 470.724 582.984 469.444 582.952C468.196 582.92 466.724 582.904 465.028 582.904C463.876 582.904 462.756 582.92 461.668 582.952C460.58 582.984 459.62 583 458.788 583ZM477.076 572.824C477.076 571.544 476.58 570.536 475.588 569.8C474.596 569.032 473.156 568.648 471.268 568.648H465.316V567.304H471.316C473.204 567.304 474.628 566.968 475.588 566.296C476.548 565.624 477.028 564.728 477.028 563.608C477.028 563.544 477.124 563.512 477.316 563.512C477.508 563.512 477.604 563.544 477.604 563.608C477.604 564.696 477.588 565.544 477.556 566.152C477.556 566.728 477.556 567.336 477.556 567.976C477.556 568.776 477.572 569.56 477.604 570.328C477.636 571.096 477.652 571.928 477.652 572.824C477.652 572.92 477.556 572.968 477.364 572.968C477.172 572.968 477.076 572.92 477.076 572.824ZM492.72 583.624C490.704 583.624 488.96 583.16 487.488 582.232C486.016 581.304 484.88 580.072 484.08 578.536C483.28 576.968 482.88 575.288 482.88 573.496C482.88 571.832 483.2 570.392 483.84 569.176C484.48 567.96 485.328 566.968 486.384 566.2C487.44 565.4 488.592 564.808 489.84 564.424C491.088 564.04 492.32 563.848 493.536 563.848C495.584 563.848 497.328 564.328 498.768 565.288C500.24 566.248 501.36 567.48 502.128 568.984C502.896 570.488 503.28 572.088 503.28 573.784C503.28 575.736 502.784 577.464 501.792 578.968C500.832 580.44 499.552 581.592 497.952 582.424C496.352 583.224 494.608 583.624 492.72 583.624ZM494.16 582.616C495.44 582.616 496.4 581.992 497.04 580.744C497.68 579.496 498 577.736 498 575.464C498 573.128 497.696 571.176 497.088 569.608C496.512 568.04 495.76 566.856 494.832 566.056C493.904 565.256 492.928 564.856 491.904 564.856C490.656 564.856 489.696 565.416 489.024 566.536C488.384 567.656 488.064 569.384 488.064 571.72C488.064 573.896 488.336 575.816 488.88 577.48C489.424 579.112 490.16 580.376 491.088 581.272C492.016 582.168 493.04 582.616 494.16 582.616ZM514.044 583.576C512.284 583.576 510.892 583.016 509.868 581.896C508.876 580.776 508.38 579.336 508.38 577.576V570.52C508.38 569.464 508.252 568.68 507.996 568.168C507.772 567.656 507.404 567.4 506.892 567.4C506.54 567.4 506.14 567.512 505.692 567.736C505.564 567.768 505.452 567.688 505.356 567.496C505.292 567.304 505.308 567.192 505.404 567.16L511.836 564.088C511.932 564.056 512.012 564.04 512.076 564.04C512.236 564.04 512.396 564.12 512.556 564.28C512.748 564.408 512.844 564.536 512.844 564.664V575.272C512.844 577 513.164 578.296 513.804 579.16C514.476 580.024 515.484 580.456 516.828 580.456C517.756 580.456 518.684 580.2 519.612 579.688C520.54 579.144 521.276 578.472 521.82 577.672L522.108 578.248C521.02 579.816 519.804 581.096 518.46 582.088C517.116 583.08 515.644 583.576 514.044 583.576ZM525.372 564.664V577.432C525.372 578.52 525.468 579.288 525.66 579.736C525.884 580.184 526.236 580.408 526.716 580.408C526.94 580.408 527.212 580.36 527.532 580.264C527.884 580.168 528.268 580.04 528.684 579.88C528.812 579.816 528.924 579.88 529.02 580.072C529.116 580.232 529.116 580.344 529.02 580.408L522.396 583.624C522.332 583.656 522.252 583.672 522.156 583.672C521.836 583.672 521.548 583.272 521.292 582.472C521.036 581.672 520.908 580.536 520.908 579.064V570.52C520.908 569.464 520.78 568.68 520.524 568.168C520.3 567.656 519.932 567.4 519.42 567.4C519.068 567.4 518.652 567.512 518.172 567.736C518.076 567.768 517.98 567.688 517.884 567.496C517.82 567.304 517.836 567.192 517.932 567.16L524.364 564.088C524.428 564.056 524.508 564.04 524.604 564.04C524.764 564.04 524.924 564.12 525.084 564.28C525.276 564.408 525.372 564.536 525.372 564.664ZM543.847 583C543.751 583 543.703 582.904 543.703 582.712C543.703 582.52 543.751 582.424 543.847 582.424C544.839 582.424 545.511 582.2 545.863 581.752C546.215 581.272 546.391 580.392 546.391 579.112V572.2C546.391 570.472 546.071 569.192 545.431 568.36C544.823 567.528 543.847 567.112 542.503 567.112C541.543 567.112 540.551 567.352 539.527 567.832C538.535 568.312 537.735 568.968 537.127 569.8L536.887 569.224C538.007 567.624 539.271 566.344 540.679 565.384C542.087 564.392 543.623 563.896 545.287 563.896C547.079 563.896 548.455 564.456 549.415 565.576C550.407 566.696 550.903 568.136 550.903 569.896V579.112C550.903 580.392 551.079 581.272 551.431 581.752C551.815 582.2 552.503 582.424 553.495 582.424C553.591 582.424 553.639 582.52 553.639 582.712C553.639 582.904 553.591 583 553.495 583C552.855 583 552.119 582.984 551.287 582.952C550.455 582.92 549.575 582.904 548.647 582.904C547.751 582.904 546.887 582.92 546.055 582.952C545.223 582.984 544.487 583 543.847 583ZM530.935 583C530.839 583 530.791 582.904 530.791 582.712C530.791 582.52 530.839 582.424 530.935 582.424C531.927 582.424 532.599 582.2 532.951 581.752C533.303 581.272 533.479 580.392 533.479 579.112V570.088C533.479 569.096 533.367 568.376 533.143 567.928C532.919 567.448 532.535 567.208 531.991 567.208C531.703 567.208 531.367 567.272 530.983 567.4C530.599 567.496 530.167 567.656 529.687 567.88C529.559 567.944 529.463 567.88 529.399 567.688C529.335 567.496 529.335 567.384 529.399 567.352L536.071 564.088C536.263 564.024 536.375 563.992 536.407 563.992C536.759 563.992 537.111 564.376 537.463 565.144C537.815 565.912 537.991 567.016 537.991 568.456V579.112C537.991 580.392 538.167 581.272 538.519 581.752C538.903 582.2 539.591 582.424 540.583 582.424C540.679 582.424 540.727 582.52 540.727 582.712C540.727 582.904 540.679 583 540.583 583C539.943 583 539.207 582.984 538.375 582.952C537.543 582.92 536.663 582.904 535.735 582.904C534.839 582.904 533.975 582.92 533.143 582.952C532.311 582.984 531.575 583 530.935 583ZM563.4 583.624C562.024 583.624 560.76 583.256 559.608 582.52C558.488 581.784 557.576 580.728 556.872 579.352C556.2 577.944 555.864 576.248 555.864 574.264C555.864 572.312 556.216 570.68 556.92 569.368C557.624 568.024 558.52 566.952 559.608 566.152C560.728 565.352 561.928 564.776 563.208 564.424C564.488 564.04 565.704 563.848 566.856 563.848C568.008 563.848 569.08 563.992 570.072 564.28C571.064 564.568 571.96 564.92 572.76 565.336L571.656 569.224C570.984 567.784 570.216 566.744 569.352 566.104C568.488 565.432 567.416 565.096 566.136 565.096C564.504 565.096 563.208 565.672 562.248 566.824C561.288 567.944 560.808 569.912 560.808 572.728C560.808 574.552 561.032 576.104 561.48 577.384C561.928 578.664 562.552 579.64 563.352 580.312C564.152 580.984 565.048 581.32 566.04 581.32C567.32 581.32 568.44 580.968 569.4 580.264C570.36 579.56 571.288 578.712 572.184 577.72L572.664 578.152C571.992 578.92 571.192 579.736 570.264 580.6C569.368 581.432 568.344 582.152 567.192 582.76C566.072 583.336 564.808 583.624 563.4 583.624ZM575.112 548.824V577.432C575.112 578.52 575.208 579.288 575.4 579.736C575.624 580.184 575.976 580.408 576.456 580.408C576.68 580.408 576.952 580.36 577.272 580.264C577.624 580.168 578.008 580.04 578.424 579.88C578.52 579.816 578.616 579.88 578.712 580.072C578.808 580.232 578.824 580.344 578.76 580.408L572.136 583.624C572.04 583.656 571.96 583.672 571.896 583.672C571.576 583.672 571.272 583.272 570.984 582.472C570.728 581.672 570.6 580.536 570.6 579.064V554.728C570.6 553.64 570.504 552.856 570.312 552.376C570.12 551.864 569.752 551.608 569.208 551.608C568.984 551.608 568.712 551.656 568.392 551.752C568.104 551.848 567.784 551.976 567.432 552.136C567.304 552.168 567.192 552.088 567.096 551.896C567 551.704 566.984 551.592 567.048 551.56L574.104 548.248C574.168 548.216 574.232 548.2 574.296 548.2C574.456 548.2 574.632 548.28 574.824 548.44C575.016 548.568 575.112 548.696 575.112 548.824Z" fill="#1F2D20"/>
</svg>
