<svg width="40" height="40" viewBox="0 0 40 40" fill="none" xmlns="http://www.w3.org/2000/svg">
<path d="M36.6163 30.5502C36.6163 31.1502 36.483 31.7668 36.1997 32.3668C35.9163 32.9668 35.5497 33.5335 35.0663 34.0668C34.2497 34.9668 33.3497 35.6168 32.333 36.0335C31.333 36.4502 30.2497 36.6668 29.083 36.6668C27.383 36.6668 25.5663 36.2668 23.6497 35.4502C21.733 34.6335 19.8163 33.5335 17.9163 32.1502C15.9997 30.7502 14.183 29.2002 12.4497 27.4835C10.733 25.7502 9.18301 23.9335 7.79967 22.0335C6.43301 20.1335 5.33301 18.2335 4.53301 16.3502C3.73301 14.4502 3.33301 12.6335 3.33301 10.9002C3.33301 9.76683 3.53301 8.6835 3.93301 7.6835C4.33301 6.66683 4.96634 5.7335 5.84967 4.90016C6.91634 3.85016 8.08301 3.3335 9.31634 3.3335C9.78301 3.3335 10.2497 3.4335 10.6663 3.6335C11.0997 3.8335 11.483 4.1335 11.783 4.56683L15.6497 10.0168C15.9497 10.4335 16.1663 10.8168 16.3163 11.1835C16.4663 11.5335 16.5497 11.8835 16.5497 12.2002C16.5497 12.6002 16.433 13.0002 16.1997 13.3835C15.983 13.7668 15.6663 14.1668 15.2663 14.5668L13.9997 15.8835C13.8163 16.0668 13.733 16.2835 13.733 16.5502C13.733 16.6835 13.7497 16.8002 13.783 16.9335C13.833 17.0668 13.883 17.1668 13.9163 17.2668C14.2163 17.8168 14.733 18.5335 15.4663 19.4002C16.2163 20.2668 17.0163 21.1502 17.883 22.0335C18.783 22.9168 19.6497 23.7335 20.533 24.4835C21.3997 25.2168 22.1163 25.7168 22.683 26.0168C22.7663 26.0502 22.8663 26.1002 22.983 26.1502C23.1163 26.2002 23.2497 26.2168 23.3997 26.2168C23.683 26.2168 23.8997 26.1168 24.083 25.9335L25.3497 24.6835C25.7663 24.2668 26.1663 23.9502 26.5497 23.7502C26.933 23.5168 27.3163 23.4002 27.733 23.4002C28.0497 23.4002 28.383 23.4668 28.7497 23.6168C29.1163 23.7668 29.4997 23.9835 29.9163 24.2668L35.433 28.1835C35.8663 28.4835 36.1663 28.8335 36.3497 29.2502C36.5163 29.6668 36.6163 30.0835 36.6163 30.5502Z" stroke="white" stroke-width="1.5" stroke-miterlimit="10"/>
</svg>
