<svg width="34" height="34" viewBox="0 0 34 34" fill="none" xmlns="http://www.w3.org/2000/svg">
<path fill-rule="evenodd" clip-rule="evenodd" d="M17 17C17 14.6528 18.9028 12.75 21.25 12.75C23.5972 12.75 25.5 14.6528 25.5 17C25.5 19.3472 23.5972 21.25 21.25 21.25C18.9028 21.25 17 19.3472 17 17Z" fill="#1ABCFE"/>
<path fill-rule="evenodd" clip-rule="evenodd" d="M8.5 25.5C8.5 23.1528 10.4028 21.25 12.75 21.25H17V25.5C17 27.8472 15.0972 29.75 12.75 29.75C10.4028 29.75 8.5 27.8472 8.5 25.5Z" fill="#0ACF83"/>
<path fill-rule="evenodd" clip-rule="evenodd" d="M17 4.25V12.75H21.25C23.5972 12.75 25.5 10.8472 25.5 8.5C25.5 6.15279 23.5972 4.25 21.25 4.25H17Z" fill="#FF7262"/>
<path fill-rule="evenodd" clip-rule="evenodd" d="M8.5 8.5C8.5 10.8472 10.4028 12.75 12.75 12.75H17V4.25H12.75C10.4028 4.25 8.5 6.15279 8.5 8.5Z" fill="#F24E1E"/>
<path fill-rule="evenodd" clip-rule="evenodd" d="M8.5 17C8.5 19.3472 10.4028 21.25 12.75 21.25H17V12.75H12.75C10.4028 12.75 8.5 14.6528 8.5 17Z" fill="#A259FF"/>
</svg>
