<svg width="40" height="40" viewBox="0 0 40 40" fill="none" xmlns="http://www.w3.org/2000/svg">
<path d="M29.52 8H10.48C9.12 8 8 9.12 8 10.48V29.52C8 30.88 9.12 32 10.48 32H29.52C30.88 32 32 30.88 32 29.52V10.48C32 9.12 30.88 8 29.52 8ZM11.32 10.48H28.68C29.12 10.48 29.52 10.84 29.52 11.32V12.88H10.48V11.32C10.48 10.84 10.84 10.48 11.32 10.48ZM28.68 29.52H11.32C10.88 29.52 10.48 29.16 10.48 28.68V15.28H29.52V28.68C29.52 29.16 29.16 29.52 28.68 29.52Z" fill="#207733"/>
<path d="M18.6798 25.3202L16.0398 22.6802L18.6798 20.0402C18.8398 19.8802 18.8398 19.6402 18.6798 19.4802L17.5598 18.3602C17.3998 18.2002 17.1598 18.2002 16.9998 18.3602L14.0798 21.2802L13.4798 21.8802L12.9598 22.4002C12.8798 22.4802 12.8398 22.6002 12.8398 22.6802C12.8398 22.8002 12.8798 22.8802 12.9598 22.9602L17.0398 27.0402C17.1998 27.2002 17.4398 27.2002 17.5998 27.0402L18.7198 25.9202C18.8398 25.7202 18.8398 25.4802 18.6798 25.3202Z" fill="#207733"/>
<path d="M27.0802 22.3602L26.5602 21.8402L25.9602 21.2402L23.0402 18.3202C22.8802 18.1602 22.6402 18.1602 22.4802 18.3202L21.3602 19.4402C21.2002 19.6002 21.2002 19.8402 21.3602 20.0002L24.0002 22.6402L21.3602 25.2802C21.2002 25.4402 21.2002 25.6802 21.3602 25.8402L22.4802 26.9602C22.6402 27.1202 22.8802 27.1202 23.0402 26.9602L27.1202 22.8802C27.2002 22.8002 27.2402 22.6802 27.2402 22.6002C27.2002 22.5602 27.1602 22.4402 27.0802 22.3602Z" fill="#207733"/>
</svg>
