<svg width="32" height="32" viewBox="0 0 32 32" fill="none" xmlns="http://www.w3.org/2000/svg">
<g clip-path="url(#clip0_54_1751)">
<path d="M31.8269 10.5055L29.3393 8.01782C29.2285 7.90695 29.0783 7.84473 28.9216 7.84473C28.7648 7.84473 28.6147 7.90695 28.5038 8.01782L27.5311 8.99052C23.8944 6.45484 19.2579 5.94511 15.2196 7.4623L19.0456 3.63628C19.3138 3.77383 19.6122 3.84798 19.9222 3.84798C20.4362 3.84798 20.9194 3.6478 21.2829 3.28428C22.0328 2.5342 22.0328 1.31358 21.2828 0.563495C20.9195 0.200074 20.4364 0 19.9225 0C19.4085 0 18.9254 0.200074 18.5621 0.563594C17.9576 1.16795 17.841 2.07744 18.2106 2.80054L12.167 8.84401L11.3409 8.01792C11.1103 7.78713 10.736 7.78713 10.5056 8.01792L8.01792 10.5056C7.90705 10.6163 7.84482 10.7666 7.84482 10.9232C7.84482 11.08 7.90705 11.2301 8.01792 11.341L8.84401 12.167L2.80064 18.2103C2.53243 18.0726 2.23409 17.9986 1.92404 17.9986C1.41017 17.9986 0.927015 18.1986 0.563594 18.5621C0.200074 18.9254 0 19.4085 0 19.9225C0 20.4365 0.200074 20.9196 0.563594 21.2829C0.926917 21.6463 1.41007 21.8464 1.92384 21.8464C2.43781 21.8464 2.92086 21.6464 3.28428 21.2829C3.88884 20.6784 4.00532 19.769 3.63579 19.0458L7.4621 15.2196C5.94501 19.2581 6.45484 23.8944 8.99072 27.531L8.01782 28.5039C7.78703 28.7346 7.78703 29.1087 8.01782 29.3393L10.5055 31.8269C10.6208 31.9423 10.772 32 10.9231 32C11.0743 32 11.2255 31.9423 11.3408 31.8269L13.8284 29.3393C14.0592 29.1086 14.0592 28.7345 13.8284 28.5039L11.3408 26.0163C11.1102 25.7855 10.736 25.7855 10.5055 26.0163L9.84192 26.6798C7.10961 22.6113 7.10961 17.2335 9.84182 13.1649L10.5055 13.8284C10.6208 13.9437 10.772 14.0014 10.9231 14.0014C11.0743 14.0014 11.2255 13.9437 11.3408 13.8284L13.8284 11.3409C13.9393 11.23 14.0015 11.0799 14.0015 10.9231C14.0015 10.7665 13.9393 10.6162 13.8284 10.5055L13.1648 9.84182C17.2332 7.10981 22.6108 7.10971 26.6798 9.84182L26.0163 10.5054C25.7856 10.736 25.7856 11.1101 26.0163 11.3407L28.5038 13.8283C28.6147 13.9392 28.7648 14.0014 28.9216 14.0014C29.0783 14.0014 29.2285 13.9392 29.3393 13.8283L31.8269 11.3407C32.0577 11.1102 32.0577 10.7361 31.8269 10.5055ZM10.9233 27.2695L12.5754 28.9216L10.9233 30.5737L9.27114 28.9216L10.9233 27.2695ZM19.3974 1.39894C19.5377 1.25873 19.7241 1.18154 19.9225 1.18154C20.1208 1.18154 20.3072 1.25873 20.4474 1.39894C20.7369 1.68842 20.7369 2.15946 20.4475 2.44894C20.3072 2.58914 20.1207 2.66644 19.9223 2.66644C19.7242 2.66644 19.538 2.58934 19.3978 2.44943L19.3975 2.44903L19.3972 2.44884C19.1079 2.15926 19.108 1.68832 19.3974 1.39894ZM2.44894 20.4474C2.30863 20.5877 2.12224 20.6649 1.92384 20.6649C1.72554 20.6649 1.53925 20.5877 1.39894 20.4474C1.25873 20.3072 1.18154 20.1208 1.18154 19.9225C1.18154 19.7241 1.25873 19.5376 1.39894 19.3974C1.53925 19.2572 1.72564 19.18 1.92394 19.18C2.12204 19.18 2.30833 19.2571 2.44854 19.3969L2.44884 19.3973L2.44913 19.3975C2.73841 19.6871 2.73831 20.158 2.44894 20.4474ZM10.9233 12.5753L10.0974 11.7495L10.0973 11.7493C10.0971 11.7491 10.0969 11.749 10.0969 11.749L9.27104 10.9231L10.9231 9.27104L11.7477 10.0956C11.7482 10.0961 11.7485 10.0967 11.749 10.0972C11.7495 10.0977 11.7501 10.098 11.7506 10.0985L11.826 10.1739C11.8276 10.1755 11.8291 10.177 11.8306 10.1786L12.5754 10.9233L10.9233 12.5753ZM28.9216 12.5753L27.2696 10.9232L28.9216 9.27114L30.5737 10.9232L28.9216 12.5753Z" fill="#207733"/>
</g>
<defs>
<clipPath id="clip0_54_1751">
<rect width="32" height="32" fill="white"/>
</clipPath>
</defs>
</svg>
