<svg width="32" height="32" viewBox="0 0 32 32" fill="none" xmlns="http://www.w3.org/2000/svg">
<path d="M11.7333 14.5998L14.6 11.6998L12.7333 9.79978L12.2 10.3331C11.9556 10.5776 11.6502 10.7056 11.284 10.7171C10.9178 10.7287 10.6009 10.6007 10.3333 10.3331C10.0658 10.0656 9.93244 9.74912 9.93333 9.38378C9.93422 9.01845 10.0676 8.70156 10.3333 8.43312L10.8333 7.93312L9.33333 6.43312L6.43333 9.33312L11.7333 14.5998ZM22.6667 25.5665L25.5667 22.6665L24.0667 21.1665L23.5333 21.6665C23.2667 21.9331 22.9556 22.0664 22.6 22.0664C22.2444 22.0664 21.9333 21.9331 21.6667 21.6665C21.4 21.3998 21.2667 21.0887 21.2667 20.7331C21.2667 20.3776 21.4 20.0665 21.6667 19.7998L22.1667 19.2664L20.2667 17.3998L17.4 20.2664L22.6667 25.5665ZM21.6333 8.56645L23.5 10.4331L25.3667 8.56645L23.4667 6.66645L21.6333 8.56645ZM5.33333 27.9998C4.95556 27.9998 4.63911 27.8718 4.384 27.6158C4.12889 27.3598 4.00089 27.0433 4 26.6665V22.8998C4 22.722 4.03333 22.55 4.1 22.3838C4.16667 22.2176 4.26667 22.0673 4.4 21.9331L9.83333 16.4998L4.06667 10.7331C3.68889 10.3553 3.5 9.88867 3.5 9.33312C3.5 8.77756 3.68889 8.31089 4.06667 7.93312L7.93333 4.06645C8.31111 3.68867 8.77778 3.50556 9.33333 3.51712C9.88889 3.52867 10.3556 3.72289 10.7333 4.09978L16.5333 9.86645L21.5667 4.79978C21.8333 4.53312 22.1333 4.33312 22.4667 4.19978C22.8 4.06645 23.1444 3.99978 23.5 3.99978C23.8556 3.99978 24.2 4.06645 24.5333 4.19978C24.8667 4.33312 25.1667 4.53312 25.4333 4.79978L27.2 6.59978C27.4667 6.86645 27.6667 7.16645 27.8 7.49978C27.9333 7.83312 28 8.17756 28 8.53312C28 8.88867 27.9333 9.22778 27.8 9.55045C27.6667 9.87312 27.4667 10.1673 27.2 10.4331L22.1667 15.4998L27.9333 21.2664C28.3111 21.6442 28.5 22.1109 28.5 22.6665C28.5 23.222 28.3111 23.6887 27.9333 24.0664L24.0667 27.9331C23.6889 28.3109 23.2222 28.4998 22.6667 28.4998C22.1111 28.4998 21.6444 28.3109 21.2667 27.9331L15.5 22.1665L10.0667 27.5998C9.93333 27.7331 9.78356 27.8331 9.61733 27.8998C9.45111 27.9664 9.27867 27.9998 9.1 27.9998H5.33333Z" fill="#207733"/>
</svg>
